STARTFONT 2.1
COMMENT $Xorg: $
COMMENT ISO10646-1 extension by Markus Kuhn <mkuhn@acm.org>, 2001-03-20
FONT -B&H-LucidaTypewriter-Medium-R-Normal-Sans-17-120-100-100-M-100-ISO10646-1
SIZE 12 100 100
FONTBOUNDINGBOX 15 25 -3 -7
STARTPROPERTIES 22
FONTNAME_REGISTRY ""
FOUNDRY "B&H"
FAMILY_NAME "LucidaTypewriter"
WEIGHT_NAME "Medium"
SLANT "R"
SETWIDTH_NAME "Normal"
ADD_STYLE_NAME "Sans"
PIXEL_SIZE 17
POINT_SIZE 120
RESOLUTION_X 100
RESOLUTION_Y 100
SPACING "M"
AVERAGE_WIDTH 100
CHARSET_REGISTRY "ISO10646"
CHARSET_ENCODING "1"
FONT_ASCENT 15
FONT_DESCENT 3
DEFAULT_CHAR 0
COPYRIGHT "Copyright Bigelow & Holmes 1986, 1985."
FACE_NAME "Lucida Sans Typewriter"
X_HEIGHT 9
CAP_HEIGHT 12
ENDPROPERTIES
CHARS 873
STARTCHAR char0
ENCODING 0
SWIDTH 602 0
DWIDTH 10 0
BBX 7 11 1 0
BITMAP
AA
00
82
00
82
00
82
00
82
00
AA
ENDCHAR
STARTCHAR space
ENCODING 32
SWIDTH 602 0
DWIDTH 10 0
BBX 1 1 0 0
BITMAP
00
ENDCHAR
STARTCHAR exclam
ENCODING 33
SWIDTH 602 0
DWIDTH 10 0
BBX 1 12 5 0
BITMAP
80
80
80
80
80
80
80
80
80
00
00
80
ENDCHAR
STARTCHAR quotedbl
ENCODING 34
SWIDTH 602 0
DWIDTH 10 0
BBX 5 4 3 8
BITMAP
88
88
88
88
ENDCHAR
STARTCHAR numbersign
ENCODING 35
SWIDTH 602 0
DWIDTH 10 0
BBX 9 12 1 0
BITMAP
0900
1B00
1200
7F80
1200
2400
FF00
2400
2400
4C00
4800
4800
ENDCHAR
STARTCHAR dollar
ENCODING 36
SWIDTH 602 0
DWIDTH 10 0
BBX 7 14 2 -1
BITMAP
10
7E
D2
90
90
F0
30
1C
16
12
12
96
FC
10
ENDCHAR
STARTCHAR percent
ENCODING 37
SWIDTH 602 0
DWIDTH 10 0
BBX 10 12 0 0
BITMAP
70C0
D880
8900
8A00
DE00
7400
0800
1380
1440
2440
4440
C380
ENDCHAR
STARTCHAR ampersand
ENCODING 38
SWIDTH 602 0
DWIDTH 10 0
BBX 11 12 0 0
BITMAP
1E00
2100
2100
2300
1C00
3000
C820
8420
8260
81C0
41C0
3EE0
ENDCHAR
STARTCHAR quotesingle
ENCODING 39
SWIDTH 602 0
DWIDTH 10 0
BBX 3 4 4 8
BITMAP
E0
E0
40
40
ENDCHAR
STARTCHAR parenleft
ENCODING 40
SWIDTH 602 0
DWIDTH 10 0
BBX 5 14 3 -2
BITMAP
18
30
60
40
80
80
80
80
80
80
40
40
30
18
ENDCHAR
STARTCHAR parenright
ENCODING 41
SWIDTH 602 0
DWIDTH 10 0
BBX 5 14 2 -2
BITMAP
C0
60
30
10
08
08
08
08
08
08
10
10
60
C0
ENDCHAR
STARTCHAR asterisk
ENCODING 42
SWIDTH 602 0
DWIDTH 10 0
BBX 8 7 1 5
BITMAP
18
18
DB
66
2C
76
24
ENDCHAR
STARTCHAR plus
ENCODING 43
SWIDTH 602 0
DWIDTH 10 0
BBX 9 9 1 0
BITMAP
0800
0800
0800
0800
FF80
0800
0800
0800
0800
ENDCHAR
STARTCHAR comma
ENCODING 44
SWIDTH 602 0
DWIDTH 10 0
BBX 2 6 4 -3
BITMAP
C0
C0
C0
40
40
80
ENDCHAR
STARTCHAR hyphen
ENCODING 45
SWIDTH 602 0
DWIDTH 10 0
BBX 9 1 1 4
BITMAP
FF80
ENDCHAR
STARTCHAR period
ENCODING 46
SWIDTH 602 0
DWIDTH 10 0
BBX 2 2 4 0
BITMAP
C0
C0
ENDCHAR
STARTCHAR slash
ENCODING 47
SWIDTH 602 0
DWIDTH 10 0
BBX 9 14 1 -2
BITMAP
0180
0100
0300
0200
0400
0400
0800
0800
1000
1000
2000
6000
4000
C000
ENDCHAR
STARTCHAR zero
ENCODING 48
SWIDTH 602 0
DWIDTH 10 0
BBX 8 12 1 0
BITMAP
3C
46
82
81
81
81
81
81
81
81
42
3C
ENDCHAR
STARTCHAR one
ENCODING 49
SWIDTH 602 0
DWIDTH 10 0
BBX 7 12 2 0
BITMAP
10
F0
10
10
10
10
10
10
10
10
10
FE
ENDCHAR
STARTCHAR two
ENCODING 50
SWIDTH 602 0
DWIDTH 10 0
BBX 6 12 2 0
BITMAP
78
8C
04
04
04
08
18
30
60
40
C0
FC
ENDCHAR
STARTCHAR three
ENCODING 51
SWIDTH 602 0
DWIDTH 10 0
BBX 6 12 2 0
BITMAP
F8
8C
04
04
08
70
0C
04
04
04
88
F0
ENDCHAR
STARTCHAR four
ENCODING 52
SWIDTH 602 0
DWIDTH 10 0
BBX 8 12 1 0
BITMAP
04
0C
1C
14
24
24
44
84
FF
04
04
04
ENDCHAR
STARTCHAR five
ENCODING 53
SWIDTH 602 0
DWIDTH 10 0
BBX 6 12 2 0
BITMAP
FC
80
80
80
F0
18
04
04
04
04
88
F0
ENDCHAR
STARTCHAR six
ENCODING 54
SWIDTH 602 0
DWIDTH 10 0
BBX 8 12 1 0
BITMAP
1E
22
40
80
BC
C2
81
81
81
81
42
3C
ENDCHAR
STARTCHAR seven
ENCODING 55
SWIDTH 602 0
DWIDTH 10 0
BBX 7 12 2 0
BITMAP
FE
06
04
0C
08
18
10
30
20
20
40
40
ENDCHAR
STARTCHAR eight
ENCODING 56
SWIDTH 602 0
DWIDTH 10 0
BBX 8 12 1 0
BITMAP
3E
63
41
41
72
3C
46
83
81
81
42
3C
ENDCHAR
STARTCHAR nine
ENCODING 57
SWIDTH 602 0
DWIDTH 10 0
BBX 8 12 1 0
BITMAP
3C
42
81
81
81
81
43
3D
01
02
44
78
ENDCHAR
STARTCHAR colon
ENCODING 58
SWIDTH 602 0
DWIDTH 10 0
BBX 2 9 4 0
BITMAP
C0
C0
00
00
00
00
00
C0
C0
ENDCHAR
STARTCHAR semicolon
ENCODING 59
SWIDTH 602 0
DWIDTH 10 0
BBX 2 12 4 -3
BITMAP
C0
C0
00
00
00
00
00
C0
C0
40
40
80
ENDCHAR
STARTCHAR less
ENCODING 60
SWIDTH 602 0
DWIDTH 10 0
BBX 9 9 1 0
BITMAP
0080
0380
0E00
3800
E000
3800
0E00
0380
0080
ENDCHAR
STARTCHAR equal
ENCODING 61
SWIDTH 602 0
DWIDTH 10 0
BBX 9 5 1 2
BITMAP
FF80
0000
0000
0000
FF80
ENDCHAR
STARTCHAR greater
ENCODING 62
SWIDTH 602 0
DWIDTH 10 0
BBX 9 9 1 0
BITMAP
8000
E000
3800
0E00
0380
0E00
3800
E000
8000
ENDCHAR
STARTCHAR question
ENCODING 63
SWIDTH 602 0
DWIDTH 10 0
BBX 7 12 2 0
BITMAP
FC
86
82
02
04
08
10
10
10
00
00
10
ENDCHAR
STARTCHAR at
ENCODING 64
SWIDTH 602 0
DWIDTH 10 0
BBX 9 12 1 0
BITMAP
1E00
2100
4700
8900
9100
9100
9300
9300
9700
4D80
6200
1E00
ENDCHAR
STARTCHAR A
ENCODING 65
SWIDTH 602 0
DWIDTH 10 0
BBX 10 12 0 0
BITMAP
0C00
0C00
0C00
1200
1200
1200
2100
2100
7F00
4080
4080
80C0
ENDCHAR
STARTCHAR B
ENCODING 66
SWIDTH 602 0
DWIDTH 10 0
BBX 8 12 1 0
BITMAP
FE
83
81
81
87
FC
86
83
81
81
83
FE
ENDCHAR
STARTCHAR C
ENCODING 67
SWIDTH 602 0
DWIDTH 10 0
BBX 9 12 1 0
BITMAP
1F80
2080
4000
C000
8000
8000
8000
8000
C000
4000
3080
1F80
ENDCHAR
STARTCHAR D
ENCODING 68
SWIDTH 602 0
DWIDTH 10 0
BBX 9 12 1 0
BITMAP
FE00
8300
8180
8080
8080
8080
8080
8080
8080
8100
8300
FC00
ENDCHAR
STARTCHAR E
ENCODING 69
SWIDTH 602 0
DWIDTH 10 0
BBX 7 12 2 0
BITMAP
FE
80
80
80
80
FC
80
80
80
80
80
FE
ENDCHAR
STARTCHAR F
ENCODING 70
SWIDTH 602 0
DWIDTH 10 0
BBX 7 12 2 0
BITMAP
FE
80
80
80
80
80
FC
80
80
80
80
80
ENDCHAR
STARTCHAR G
ENCODING 71
SWIDTH 602 0
DWIDTH 10 0
BBX 9 12 0 0
BITMAP
1F80
2080
4000
8000
8000
8000
8000
8080
C080
4080
3080
1F80
ENDCHAR
STARTCHAR H
ENCODING 72
SWIDTH 602 0
DWIDTH 10 0
BBX 8 12 1 0
BITMAP
81
81
81
81
81
FF
81
81
81
81
81
81
ENDCHAR
STARTCHAR I
ENCODING 73
SWIDTH 602 0
DWIDTH 10 0
BBX 7 12 2 0
BITMAP
FE
10
10
10
10
10
10
10
10
10
10
FE
ENDCHAR
STARTCHAR J
ENCODING 74
SWIDTH 602 0
DWIDTH 10 0
BBX 5 12 2 0
BITMAP
78
08
08
08
08
08
08
08
08
08
88
F0
ENDCHAR
STARTCHAR K
ENCODING 75
SWIDTH 602 0
DWIDTH 10 0
BBX 9 12 1 0
BITMAP
8300
8600
8C00
9800
9000
A000
E000
9000
8800
8400
8200
8180
ENDCHAR
STARTCHAR L
ENCODING 76
SWIDTH 602 0
DWIDTH 10 0
BBX 7 12 2 0
BITMAP
80
80
80
80
80
80
80
80
80
80
80
FE
ENDCHAR
STARTCHAR M
ENCODING 77
SWIDTH 602 0
DWIDTH 10 0
BBX 9 12 1 0
BITMAP
C180
C180
E380
A280
A280
A280
9480
9480
9480
9480
8880
8080
ENDCHAR
STARTCHAR N
ENCODING 78
SWIDTH 602 0
DWIDTH 10 0
BBX 8 12 1 0
BITMAP
81
C1
E1
A1
91
91
89
89
85
83
83
81
ENDCHAR
STARTCHAR O
ENCODING 79
SWIDTH 602 0
DWIDTH 10 0
BBX 9 12 1 0
BITMAP
3E00
6300
4100
8080
8080
8080
8080
8080
8080
4100
6300
3E00
ENDCHAR
STARTCHAR P
ENCODING 80
SWIDTH 602 0
DWIDTH 10 0
BBX 8 12 2 0
BITMAP
FE
83
81
81
81
82
FC
80
80
80
80
80
ENDCHAR
STARTCHAR Q
ENCODING 81
SWIDTH 602 0
DWIDTH 10 0
BBX 10 15 0 -3
BITMAP
3C00
6300
4100
8080
8080
8080
8080
8080
8080
4180
6300
1F00
0200
01C0
0080
ENDCHAR
STARTCHAR R
ENCODING 82
SWIDTH 602 0
DWIDTH 10 0
BBX 7 12 2 0
BITMAP
FC
86
82
82
82
8C
F8
88
8C
84
82
82
ENDCHAR
STARTCHAR S
ENCODING 83
SWIDTH 602 0
DWIDTH 10 0
BBX 8 12 1 0
BITMAP
3F
C1
80
80
40
38
06
03
01
01
82
7C
ENDCHAR
STARTCHAR T
ENCODING 84
SWIDTH 602 0
DWIDTH 10 0
BBX 9 12 1 0
BITMAP
FF80
0800
0800
0800
0800
0800
0800
0800
0800
0800
0800
0800
ENDCHAR
STARTCHAR U
ENCODING 85
SWIDTH 602 0
DWIDTH 10 0
BBX 8 12 1 0
BITMAP
81
81
81
81
81
81
81
81
81
81
C2
7C
ENDCHAR
STARTCHAR V
ENCODING 86
SWIDTH 602 0
DWIDTH 10 0
BBX 10 12 0 0
BITMAP
C040
4080
4080
2080
2100
2100
1300
1200
1200
0C00
0C00
0C00
ENDCHAR
STARTCHAR W
ENCODING 87
SWIDTH 602 0
DWIDTH 10 0
BBX 10 12 0 0
BITMAP
8040
8840
88C0
9C80
D480
D480
5480
5580
5380
6300
4100
4100
ENDCHAR
STARTCHAR X
ENCODING 88
SWIDTH 602 0
DWIDTH 10 0
BBX 10 12 0 0
BITMAP
40C0
2180
2100
1200
0E00
0C00
0C00
1200
1200
2100
4180
C0C0
ENDCHAR
STARTCHAR Y
ENCODING 89
SWIDTH 602 0
DWIDTH 10 0
BBX 9 12 1 0
BITMAP
C180
4100
2200
2200
1400
1400
0800
0800
0800
0800
0800
0800
ENDCHAR
STARTCHAR Z
ENCODING 90
SWIDTH 602 0
DWIDTH 10 0
BBX 9 12 1 0
BITMAP
FF80
0100
0300
0200
0400
0800
0800
1000
2000
6000
4000
FF80
ENDCHAR
STARTCHAR bracketleft
ENCODING 91
SWIDTH 602 0
DWIDTH 10 0
BBX 5 14 4 -2
BITMAP
F8
80
80
80
80
80
80
80
80
80
80
80
80
F8
ENDCHAR
STARTCHAR backslash
ENCODING 92
SWIDTH 602 0
DWIDTH 10 0
BBX 9 14 1 -2
BITMAP
C000
4000
6000
2000
1000
1000
0800
0800
0400
0400
0200
0300
0100
0180
ENDCHAR
STARTCHAR bracketright
ENCODING 93
SWIDTH 602 0
DWIDTH 10 0
BBX 5 14 1 -2
BITMAP
F8
08
08
08
08
08
08
08
08
08
08
08
08
F8
ENDCHAR
STARTCHAR asciicircum
ENCODING 94
SWIDTH 602 0
DWIDTH 10 0
BBX 9 10 1 2
BITMAP
0800
0800
0800
1400
1400
2200
2200
4100
4100
8080
ENDCHAR
STARTCHAR underscore
ENCODING 95
SWIDTH 602 0
DWIDTH 10 0
BBX 10 1 0 -1
BITMAP
FFC0
ENDCHAR
STARTCHAR grave
ENCODING 96
SWIDTH 602 0
DWIDTH 10 0
BBX 4 2 3 10
BITMAP
E0
30
ENDCHAR
STARTCHAR a
ENCODING 97
SWIDTH 602 0
DWIDTH 10 0
BBX 8 9 1 0
BITMAP
7C
42
02
02
3E
C2
82
86
7B
ENDCHAR
STARTCHAR b
ENCODING 98
SWIDTH 602 0
DWIDTH 10 0
BBX 8 12 1 0
BITMAP
80
80
80
BC
E2
81
81
81
81
83
C2
BC
ENDCHAR
STARTCHAR c
ENCODING 99
SWIDTH 602 0
DWIDTH 10 0
BBX 7 9 2 0
BITMAP
3E
42
80
80
80
80
C0
42
3E
ENDCHAR
STARTCHAR d
ENCODING 100
SWIDTH 602 0
DWIDTH 10 0
BBX 8 12 1 0
BITMAP
01
01
01
3D
43
C1
81
81
81
81
47
3D
ENDCHAR
STARTCHAR e
ENCODING 101
SWIDTH 602 0
DWIDTH 10 0
BBX 8 9 1 0
BITMAP
3E
42
81
81
FF
80
80
41
3F
ENDCHAR
STARTCHAR f
ENCODING 102
SWIDTH 602 0
DWIDTH 10 0
BBX 8 13 2 0
BITMAP
1F
20
20
20
FF
20
20
20
20
20
20
20
20
ENDCHAR
STARTCHAR g
ENCODING 103
SWIDTH 602 0
DWIDTH 10 0
BBX 8 12 1 -3
BITMAP
3D
43
81
81
81
81
81
47
3D
01
41
7E
ENDCHAR
STARTCHAR h
ENCODING 104
SWIDTH 602 0
DWIDTH 10 0
BBX 7 12 2 0
BITMAP
80
80
80
BC
C2
82
82
82
82
82
82
82
ENDCHAR
STARTCHAR i
ENCODING 105
SWIDTH 602 0
DWIDTH 10 0
BBX 4 12 2 0
BITMAP
10
00
00
F0
10
10
10
10
10
10
10
10
ENDCHAR
STARTCHAR j
ENCODING 106
SWIDTH 602 0
DWIDTH 10 0
BBX 5 15 2 -3
BITMAP
08
00
00
78
08
08
08
08
08
08
08
08
08
88
F0
ENDCHAR
STARTCHAR k
ENCODING 107
SWIDTH 602 0
DWIDTH 10 0
BBX 7 12 2 0
BITMAP
80
80
80
8C
98
90
A0
E0
B0
98
88
86
ENDCHAR
STARTCHAR l
ENCODING 108
SWIDTH 602 0
DWIDTH 10 0
BBX 4 12 2 0
BITMAP
F0
10
10
10
10
10
10
10
10
10
10
10
ENDCHAR
STARTCHAR m
ENCODING 109
SWIDTH 602 0
DWIDTH 10 0
BBX 9 9 1 0
BITMAP
B380
CC80
8880
8880
8880
8880
8880
8880
8880
ENDCHAR
STARTCHAR n
ENCODING 110
SWIDTH 602 0
DWIDTH 10 0
BBX 7 9 2 0
BITMAP
BC
C2
82
82
82
82
82
82
82
ENDCHAR
STARTCHAR o
ENCODING 111
SWIDTH 602 0
DWIDTH 10 0
BBX 9 9 1 0
BITMAP
3E00
6300
C180
8080
8080
8080
C180
6300
3E00
ENDCHAR
STARTCHAR p
ENCODING 112
SWIDTH 602 0
DWIDTH 10 0
BBX 8 12 1 -3
BITMAP
BC
E2
81
81
81
81
83
C2
BC
80
80
80
ENDCHAR
STARTCHAR q
ENCODING 113
SWIDTH 602 0
DWIDTH 10 0
BBX 8 12 1 -3
BITMAP
3D
43
C1
81
81
81
81
47
3D
01
01
01
ENDCHAR
STARTCHAR r
ENCODING 114
SWIDTH 602 0
DWIDTH 10 0
BBX 6 9 3 0
BITMAP
BC
C4
80
80
80
80
80
80
80
ENDCHAR
STARTCHAR s
ENCODING 115
SWIDTH 602 0
DWIDTH 10 0
BBX 7 9 2 0
BITMAP
7E
80
80
E0
38
06
02
86
FC
ENDCHAR
STARTCHAR t
ENCODING 116
SWIDTH 602 0
DWIDTH 10 0
BBX 7 11 2 0
BITMAP
20
20
FE
20
20
20
20
20
20
20
1E
ENDCHAR
STARTCHAR u
ENCODING 117
SWIDTH 602 0
DWIDTH 10 0
BBX 7 9 2 0
BITMAP
82
82
82
82
82
82
82
86
7A
ENDCHAR
STARTCHAR v
ENCODING 118
SWIDTH 602 0
DWIDTH 10 0
BBX 9 9 1 0
BITMAP
C080
4100
4100
2200
2200
1600
1400
1400
0800
ENDCHAR
STARTCHAR w
ENCODING 119
SWIDTH 602 0
DWIDTH 10 0
BBX 10 9 0 0
BITMAP
8040
8C40
8C80
5480
5280
5280
5280
6300
6300
ENDCHAR
STARTCHAR x
ENCODING 120
SWIDTH 602 0
DWIDTH 10 0
BBX 9 9 1 0
BITMAP
C100
2200
3600
1400
0800
1400
2600
6200
C180
ENDCHAR
STARTCHAR y
ENCODING 121
SWIDTH 602 0
DWIDTH 10 0
BBX 9 12 1 -3
BITMAP
C080
4100
4100
2200
2200
1400
1400
0800
0800
1800
1000
E000
ENDCHAR
STARTCHAR z
ENCODING 122
SWIDTH 602 0
DWIDTH 10 0
BBX 8 9 1 0
BITMAP
FF
02
04
08
18
30
60
40
FF
ENDCHAR
STARTCHAR braceleft
ENCODING 123
SWIDTH 602 0
DWIDTH 10 0
BBX 6 14 2 -2
BITMAP
1C
20
20
20
20
20
20
E0
20
20
20
20
20
1C
ENDCHAR
STARTCHAR bar
ENCODING 124
SWIDTH 602 0
DWIDTH 10 0
BBX 1 14 5 -2
BITMAP
80
80
80
80
80
80
80
80
80
80
80
80
80
80
ENDCHAR
STARTCHAR braceright
ENCODING 125
SWIDTH 602 0
DWIDTH 10 0
BBX 7 14 1 -2
BITMAP
E0
10
10
10
10
10
10
0E
10
10
10
10
10
E0
ENDCHAR
STARTCHAR asciitilde
ENCODING 126
SWIDTH 602 0
DWIDTH 10 0
BBX 9 3 1 3
BITMAP
7080
8880
8700
ENDCHAR
STARTCHAR space
ENCODING 160
SWIDTH 602 0
DWIDTH 10 0
BBX 1 1 0 0
BITMAP
00
ENDCHAR
STARTCHAR exclamdown
ENCODING 161
SWIDTH 602 0
DWIDTH 10 0
BBX 1 12 5 -3
BITMAP
80
00
00
80
80
80
80
80
80
80
80
80
ENDCHAR
STARTCHAR cent
ENCODING 162
SWIDTH 602 0
DWIDTH 10 0
BBX 7 12 2 0
BITMAP
08
1E
3A
48
88
88
88
88
88
6E
38
08
ENDCHAR
STARTCHAR sterling
ENCODING 163
SWIDTH 602 0
DWIDTH 10 0
BBX 6 12 2 0
BITMAP
1C
20
20
20
20
F8
20
20
20
20
C0
FC
ENDCHAR
STARTCHAR currency
ENCODING 164
SWIDTH 602 0
DWIDTH 10 0
BBX 9 8 1 2
BITMAP
8080
7F00
6300
4100
4100
6300
7F00
8080
ENDCHAR
STARTCHAR yen
ENCODING 165
SWIDTH 602 0
DWIDTH 10 0
BBX 9 12 1 0
BITMAP
C180
4100
2200
1600
1400
0800
7E00
0800
7E00
0800
0800
0800
ENDCHAR
STARTCHAR brokenbar
ENCODING 166
SWIDTH 602 0
DWIDTH 10 0
BBX 1 14 5 -2
BITMAP
80
80
80
80
80
80
00
00
80
80
80
80
80
80
ENDCHAR
STARTCHAR section
ENCODING 167
SWIDTH 602 0
DWIDTH 10 0
BBX 7 15 2 -3
BITMAP
3E
C2
80
80
F0
DC
86
82
C2
3C
0E
02
02
86
FC
ENDCHAR
STARTCHAR dieresis
ENCODING 168
SWIDTH 602 0
DWIDTH 10 0
BBX 5 1 3 11
BITMAP
98
ENDCHAR
STARTCHAR copyright
ENCODING 169
SWIDTH 602 0
DWIDTH 10 0
BBX 10 12 0 0
BITMAP
1F00
6180
40C0
9F40
B140
A040
A040
B040
9F40
C080
6180
3E00
ENDCHAR
STARTCHAR ordfeminine
ENCODING 170
SWIDTH 602 0
DWIDTH 10 0
BBX 6 6 2 6
BITMAP
F8
08
78
88
88
7C
ENDCHAR
STARTCHAR guillemotleft
ENCODING 171
SWIDTH 602 0
DWIDTH 10 0
BBX 8 7 1 1
BITMAP
11
32
64
C8
64
22
11
ENDCHAR
STARTCHAR logicalnot
ENCODING 172
SWIDTH 602 0
DWIDTH 10 0
BBX 9 5 1 2
BITMAP
FF80
0080
0080
0080
0080
ENDCHAR
STARTCHAR hyphen
ENCODING 173
SWIDTH 602 0
DWIDTH 10 0
BBX 7 1 2 5
BITMAP
FE
ENDCHAR
STARTCHAR registered
ENCODING 174
SWIDTH 602 0
DWIDTH 10 0
BBX 7 7 2 5
BITMAP
38
7C
AA
B2
AA
44
38
ENDCHAR
STARTCHAR macron
ENCODING 175
SWIDTH 602 0
DWIDTH 10 0
BBX 5 1 3 11
BITMAP
F8
ENDCHAR
STARTCHAR degree
ENCODING 176
SWIDTH 602 0
DWIDTH 10 0
BBX 3 2 4 10
BITMAP
E0
E0
ENDCHAR
STARTCHAR plusminus
ENCODING 177
SWIDTH 602 0
DWIDTH 10 0
BBX 9 9 1 0
BITMAP
0800
0800
0800
FF80
0800
0800
0800
0000
FF80
ENDCHAR
STARTCHAR twosuperior
ENCODING 178
SWIDTH 602 0
DWIDTH 10 0
BBX 4 6 -1 6
BITMAP
E0
10
10
60
40
F0
ENDCHAR
STARTCHAR threesuperior
ENCODING 179
SWIDTH 602 0
DWIDTH 10 0
BBX 4 6 -1 6
BITMAP
F0
10
60
10
10
E0
ENDCHAR
STARTCHAR acute
ENCODING 180
SWIDTH 602 0
DWIDTH 10 0
BBX 4 2 3 10
BITMAP
70
C0
ENDCHAR
STARTCHAR mu
ENCODING 181
SWIDTH 602 0
DWIDTH 10 0
BBX 7 11 2 -2
BITMAP
82
82
82
82
82
82
82
8E
FA
80
80
ENDCHAR
STARTCHAR paragraph
ENCODING 182
SWIDTH 602 0
DWIDTH 10 0
BBX 6 14 2 -2
BITMAP
7C
F4
F4
F4
F4
34
14
14
14
14
14
14
14
14
ENDCHAR
STARTCHAR periodcentered
ENCODING 183
SWIDTH 602 0
DWIDTH 10 0
BBX 2 1 4 5
BITMAP
C0
ENDCHAR
STARTCHAR cedilla
ENCODING 184
SWIDTH 602 0
DWIDTH 10 0
BBX 3 3 4 -3
BITMAP
C0
20
E0
ENDCHAR
STARTCHAR onesuperior
ENCODING 185
SWIDTH 602 0
DWIDTH 10 0
BBX 5 6 0 6
BITMAP
E0
20
20
20
20
F8
ENDCHAR
STARTCHAR ordmasculine
ENCODING 186
SWIDTH 602 0
DWIDTH 10 0
BBX 7 6 2 6
BITMAP
7C
C6
82
82
C6
7C
ENDCHAR
STARTCHAR guillemotright
ENCODING 187
SWIDTH 602 0
DWIDTH 10 0
BBX 8 7 1 1
BITMAP
88
4C
26
13
26
4C
88
ENDCHAR
STARTCHAR onequarter
ENCODING 188
SWIDTH 602 0
DWIDTH 10 0
BBX 10 12 2 0
BITMAP
E0C0
2080
2100
2200
2600
FC00
0980
1980
1280
2680
47C0
C080
ENDCHAR
STARTCHAR onehalf
ENCODING 189
SWIDTH 602 0
DWIDTH 10 0
BBX 10 12 2 0
BITMAP
E0C0
2080
2100
2200
2600
FC00
0B80
1840
1040
2180
4100
C3C0
ENDCHAR
STARTCHAR threequarters
ENCODING 190
SWIDTH 602 0
DWIDTH 10 0
BBX 10 12 2 0
BITMAP
F0C0
1080
6100
1200
1600
E400
0980
1980
1280
2680
47C0
C080
ENDCHAR
STARTCHAR questiondown
ENCODING 191
SWIDTH 602 0
DWIDTH 10 0
BBX 7 12 2 -3
BITMAP
10
00
00
10
10
10
20
40
80
82
C2
7E
ENDCHAR
STARTCHAR Agrave
ENCODING 192
SWIDTH 602 0
DWIDTH 10 0
BBX 10 15 0 0
BITMAP
1C00
0600
0000
0C00
0C00
0C00
1200
1200
1200
2100
2100
7F00
4080
4080
80C0
ENDCHAR
STARTCHAR Aacute
ENCODING 193
SWIDTH 602 0
DWIDTH 10 0
BBX 10 15 0 0
BITMAP
0E00
1800
0000
0C00
0C00
0C00
1200
1200
1200
2100
2100
7F00
4080
4080
80C0
ENDCHAR
STARTCHAR Acircumflex
ENCODING 194
SWIDTH 602 0
DWIDTH 10 0
BBX 10 15 0 0
BITMAP
1E00
3300
0000
0C00
0C00
0C00
1200
1200
1200
2100
2100
7F00
4080
4080
80C0
ENDCHAR
STARTCHAR Atilde
ENCODING 195
SWIDTH 602 0
DWIDTH 10 0
BBX 10 14 0 0
BITMAP
3F00
0000
0C00
0C00
0C00
1200
1200
1200
2100
2100
7F00
4080
4080
80C0
ENDCHAR
STARTCHAR Adieresis
ENCODING 196
SWIDTH 602 0
DWIDTH 10 0
BBX 10 14 0 0
BITMAP
1300
0000
0C00
0C00
0C00
1200
1200
1200
2100
2100
7F00
4080
4080
80C0
ENDCHAR
STARTCHAR Aring
ENCODING 197
SWIDTH 602 0
DWIDTH 10 0
BBX 10 15 0 0
BITMAP
0E00
0E00
0000
0C00
0C00
0C00
1200
1200
1200
2100
2100
7F00
4080
4080
80C0
ENDCHAR
STARTCHAR AE
ENCODING 198
SWIDTH 602 0
DWIDTH 10 0
BBX 9 12 0 0
BITMAP
0F80
0C00
0C00
1400
1400
3700
2400
2400
7C00
4400
4400
8780
ENDCHAR
STARTCHAR Ccedilla
ENCODING 199
SWIDTH 602 0
DWIDTH 10 0
BBX 9 15 1 -3
BITMAP
1F80
2080
4000
C000
8000
8000
8000
8000
C000
4000
3080
1F80
0800
0400
1C00
ENDCHAR
STARTCHAR Egrave
ENCODING 200
SWIDTH 602 0
DWIDTH 10 0
BBX 7 15 2 0
BITMAP
70
18
00
FE
80
80
80
80
FC
80
80
80
80
80
FE
ENDCHAR
STARTCHAR Eacute
ENCODING 201
SWIDTH 602 0
DWIDTH 10 0
BBX 7 15 2 0
BITMAP
38
60
00
FE
80
80
80
80
FC
80
80
80
80
80
FE
ENDCHAR
STARTCHAR Ecircumflex
ENCODING 202
SWIDTH 602 0
DWIDTH 10 0
BBX 7 15 2 0
BITMAP
3C
66
00
FE
80
80
80
80
FC
80
80
80
80
80
FE
ENDCHAR
STARTCHAR Edieresis
ENCODING 203
SWIDTH 602 0
DWIDTH 10 0
BBX 7 14 2 0
BITMAP
4C
00
FE
80
80
80
80
FC
80
80
80
80
80
FE
ENDCHAR
STARTCHAR Igrave
ENCODING 204
SWIDTH 602 0
DWIDTH 10 0
BBX 7 15 2 0
BITMAP
38
0C
00
FE
10
10
10
10
10
10
10
10
10
10
FE
ENDCHAR
STARTCHAR Iacute
ENCODING 205
SWIDTH 602 0
DWIDTH 10 0
BBX 7 15 2 0
BITMAP
38
60
00
FE
10
10
10
10
10
10
10
10
10
10
FE
ENDCHAR
STARTCHAR Icircumflex
ENCODING 206
SWIDTH 602 0
DWIDTH 10 0
BBX 7 15 2 0
BITMAP
78
CC
00
FE
10
10
10
10
10
10
10
10
10
10
FE
ENDCHAR
STARTCHAR Idieresis
ENCODING 207
SWIDTH 602 0
DWIDTH 10 0
BBX 7 14 2 0
BITMAP
4C
00
FE
10
10
10
10
10
10
10
10
10
10
FE
ENDCHAR
STARTCHAR Eth
ENCODING 208
SWIDTH 602 0
DWIDTH 10 0
BBX 10 12 0 0
BITMAP
7F00
4180
40C0
4040
4040
F040
4040
4040
4040
4080
4180
7E00
ENDCHAR
STARTCHAR Ntilde
ENCODING 209
SWIDTH 602 0
DWIDTH 10 0
BBX 8 14 1 0
BITMAP
7E
00
81
C1
E1
A1
91
91
89
89
85
83
83
81
ENDCHAR
STARTCHAR Ograve
ENCODING 210
SWIDTH 602 0
DWIDTH 10 0
BBX 9 15 1 0
BITMAP
1C00
0600
0000
3E00
6300
4100
8080
8080
8080
8080
8080
8080
4100
6300
3E00
ENDCHAR
STARTCHAR Oacute
ENCODING 211
SWIDTH 602 0
DWIDTH 10 0
BBX 9 15 1 0
BITMAP
1C00
3000
0000
3E00
6300
4100
8080
8080
8080
8080
8080
8080
4100
6300
3E00
ENDCHAR
STARTCHAR Ocircumflex
ENCODING 212
SWIDTH 602 0
DWIDTH 10 0
BBX 9 15 1 0
BITMAP
3C00
6600
0000
3E00
6300
4100
8080
8080
8080
8080
8080
8080
4100
6300
3E00
ENDCHAR
STARTCHAR Otilde
ENCODING 213
SWIDTH 602 0
DWIDTH 10 0
BBX 9 14 1 0
BITMAP
7E00
0000
3E00
6300
4100
8080
8080
8080
8080
8080
8080
4100
6300
3E00
ENDCHAR
STARTCHAR Odieresis
ENCODING 214
SWIDTH 602 0
DWIDTH 10 0
BBX 9 14 1 0
BITMAP
2600
0000
3E00
6300
4100
8080
8080
8080
8080
8080
8080
4100
6300
3E00
ENDCHAR
STARTCHAR multiply
ENCODING 215
SWIDTH 602 0
DWIDTH 10 0
BBX 9 9 1 0
BITMAP
8080
4100
2200
1400
0800
1400
2200
4100
8080
ENDCHAR
STARTCHAR Oslash
ENCODING 216
SWIDTH 602 0
DWIDTH 10 0
BBX 9 12 1 0
BITMAP
3F80
6380
4180
8280
8480
8C80
9880
9080
A080
C100
E300
FE00
ENDCHAR
STARTCHAR Ugrave
ENCODING 217
SWIDTH 602 0
DWIDTH 10 0
BBX 8 15 1 0
BITMAP
38
0C
00
81
81
81
81
81
81
81
81
81
81
C2
7C
ENDCHAR
STARTCHAR Uacute
ENCODING 218
SWIDTH 602 0
DWIDTH 10 0
BBX 8 15 1 0
BITMAP
1C
30
00
81
81
81
81
81
81
81
81
81
81
C2
7C
ENDCHAR
STARTCHAR Ucircumflex
ENCODING 219
SWIDTH 602 0
DWIDTH 10 0
BBX 8 15 1 0
BITMAP
3C
66
00
81
81
81
81
81
81
81
81
81
81
C2
7C
ENDCHAR
STARTCHAR Udieresis
ENCODING 220
SWIDTH 602 0
DWIDTH 10 0
BBX 8 14 1 0
BITMAP
4C
00
81
81
81
81
81
81
81
81
81
81
C2
7C
ENDCHAR
STARTCHAR Yacute
ENCODING 221
SWIDTH 602 0
DWIDTH 10 0
BBX 9 15 1 0
BITMAP
1C00
3000
0000
C180
4100
2200
2200
1400
1400
0800
0800
0800
0800
0800
0800
ENDCHAR
STARTCHAR Thorn
ENCODING 222
SWIDTH 602 0
DWIDTH 10 0
BBX 8 12 2 0
BITMAP
80
80
FE
83
81
81
81
82
FC
80
80
80
ENDCHAR
STARTCHAR germandbls
ENCODING 223
SWIDTH 602 0
DWIDTH 10 0
BBX 8 13 2 0
BITMAP
78
84
84
8C
88
90
90
8C
86
81
81
A1
BE
ENDCHAR
STARTCHAR agrave
ENCODING 224
SWIDTH 602 0
DWIDTH 10 0
BBX 8 12 1 0
BITMAP
38
0C
00
7C
42
02
02
3E
C2
82
86
7B
ENDCHAR
STARTCHAR aacute
ENCODING 225
SWIDTH 602 0
DWIDTH 10 0
BBX 8 12 1 0
BITMAP
38
60
00
7C
42
02
02
3E
C2
82
86
7B
ENDCHAR
STARTCHAR acircumflex
ENCODING 226
SWIDTH 602 0
DWIDTH 10 0
BBX 8 12 1 0
BITMAP
3C
66
00
7C
42
02
02
3E
C2
82
86
7B
ENDCHAR
STARTCHAR atilde
ENCODING 227
SWIDTH 602 0
DWIDTH 10 0
BBX 8 11 1 0
BITMAP
7E
00
7C
42
02
02
3E
C2
82
86
7B
ENDCHAR
STARTCHAR adieresis
ENCODING 228
SWIDTH 602 0
DWIDTH 10 0
BBX 8 11 1 0
BITMAP
4C
00
7C
42
02
02
3E
C2
82
86
7B
ENDCHAR
STARTCHAR aring
ENCODING 229
SWIDTH 602 0
DWIDTH 10 0
BBX 8 12 1 0
BITMAP
38
38
00
7C
42
02
02
3E
C2
82
86
7B
ENDCHAR
STARTCHAR ae
ENCODING 230
SWIDTH 602 0
DWIDTH 10 0
BBX 10 9 0 0
BITMAP
7B80
0640
0440
0440
3FC0
C400
8400
8640
7FC0
ENDCHAR
STARTCHAR ccedilla
ENCODING 231
SWIDTH 602 0
DWIDTH 10 0
BBX 7 12 2 -3
BITMAP
3E
42
80
80
80
80
C0
42
3E
10
08
38
ENDCHAR
STARTCHAR egrave
ENCODING 232
SWIDTH 602 0
DWIDTH 10 0
BBX 8 12 1 0
BITMAP
38
0C
00
3E
42
81
81
FF
80
80
41
3F
ENDCHAR
STARTCHAR eacute
ENCODING 233
SWIDTH 602 0
DWIDTH 10 0
BBX 8 12 1 0
BITMAP
1C
30
00
3E
42
81
81
FF
80
80
41
3F
ENDCHAR
STARTCHAR ecircumflex
ENCODING 234
SWIDTH 602 0
DWIDTH 10 0
BBX 8 12 1 0
BITMAP
3C
66
00
3E
42
81
81
FF
80
80
41
3F
ENDCHAR
STARTCHAR edieresis
ENCODING 235
SWIDTH 602 0
DWIDTH 10 0
BBX 8 11 1 0
BITMAP
4C
00
3E
42
81
81
FF
80
80
41
3F
ENDCHAR
STARTCHAR igrave
ENCODING 236
SWIDTH 602 0
DWIDTH 10 0
BBX 5 12 2 0
BITMAP
70
18
00
F0
10
10
10
10
10
10
10
10
ENDCHAR
STARTCHAR iacute
ENCODING 237
SWIDTH 602 0
DWIDTH 10 0
BBX 5 12 2 0
BITMAP
38
60
00
F0
10
10
10
10
10
10
10
10
ENDCHAR
STARTCHAR icircumflex
ENCODING 238
SWIDTH 602 0
DWIDTH 10 0
BBX 6 12 2 0
BITMAP
78
CC
00
F0
10
10
10
10
10
10
10
10
ENDCHAR
STARTCHAR idieresis
ENCODING 239
SWIDTH 602 0
DWIDTH 10 0
BBX 6 11 2 0
BITMAP
4C
00
F0
10
10
10
10
10
10
10
10
ENDCHAR
STARTCHAR eth
ENCODING 240
SWIDTH 602 0
DWIDTH 10 0
BBX 8 12 1 0
BITMAP
FC
68
84
3E
42
81
81
81
81
81
42
3C
ENDCHAR
STARTCHAR ntilde
ENCODING 241
SWIDTH 602 0
DWIDTH 10 0
BBX 7 11 2 0
BITMAP
FC
00
BC
C2
82
82
82
82
82
82
82
ENDCHAR
STARTCHAR ograve
ENCODING 242
SWIDTH 602 0
DWIDTH 10 0
BBX 9 12 1 0
BITMAP
1C00
0600
0000
3E00
6300
C180
8080
8080
8080
C180
6300
3E00
ENDCHAR
STARTCHAR oacute
ENCODING 243
SWIDTH 602 0
DWIDTH 10 0
BBX 9 12 1 0
BITMAP
1C00
3000
0000
3E00
6300
C180
8080
8080
8080
C180
6300
3E00
ENDCHAR
STARTCHAR ocircumflex
ENCODING 244
SWIDTH 602 0
DWIDTH 10 0
BBX 9 12 1 0
BITMAP
3C00
6600
0000
3E00
6300
C180
8080
8080
8080
C180
6300
3E00
ENDCHAR
STARTCHAR otilde
ENCODING 245
SWIDTH 602 0
DWIDTH 10 0
BBX 9 11 1 0
BITMAP
7E00
0000
3E00
6300
C180
8080
8080
8080
C180
6300
3E00
ENDCHAR
STARTCHAR odieresis
ENCODING 246
SWIDTH 602 0
DWIDTH 10 0
BBX 9 11 1 0
BITMAP
2600
0000
3E00
6300
C180
8080
8080
8080
C180
6300
3E00
ENDCHAR
STARTCHAR divide
ENCODING 247
SWIDTH 602 0
DWIDTH 10 0
BBX 7 9 2 0
BITMAP
10
00
00
00
FE
00
00
00
10
ENDCHAR
STARTCHAR oslash
ENCODING 248
SWIDTH 602 0
DWIDTH 10 0
BBX 9 9 1 0
BITMAP
3F80
6180
C280
8480
8880
9080
A180
C300
FE00
ENDCHAR
STARTCHAR ugrave
ENCODING 249
SWIDTH 602 0
DWIDTH 10 0
BBX 7 12 2 0
BITMAP
38
0C
00
82
82
82
82
82
82
82
86
7A
ENDCHAR
STARTCHAR uacute
ENCODING 250
SWIDTH 602 0
DWIDTH 10 0
BBX 7 12 2 0
BITMAP
38
60
00
82
82
82
82
82
82
82
86
7A
ENDCHAR
STARTCHAR ucircumflex
ENCODING 251
SWIDTH 602 0
DWIDTH 10 0
BBX 7 12 2 0
BITMAP
3C
66
00
82
82
82
82
82
82
82
86
7A
ENDCHAR
STARTCHAR udieresis
ENCODING 252
SWIDTH 602 0
DWIDTH 10 0
BBX 7 11 2 0
BITMAP
4C
00
82
82
82
82
82
82
82
86
7A
ENDCHAR
STARTCHAR yacute
ENCODING 253
SWIDTH 602 0
DWIDTH 10 0
BBX 9 15 1 -3
BITMAP
1C00
3000
0000
C080
4100
4100
2200
2200
1400
1400
0800
0800
1800
1000
E000
ENDCHAR
STARTCHAR thorn
ENCODING 254
SWIDTH 602 0
DWIDTH 10 0
BBX 8 14 1 -3
BITMAP
80
80
BC
E2
81
81
81
81
83
C2
BC
80
80
80
ENDCHAR
STARTCHAR ydieresis
ENCODING 255
SWIDTH 602 0
DWIDTH 10 0
BBX 9 14 1 -3
BITMAP
2600
0000
C080
4100
4100
2200
2200
1400
1400
0800
0800
1800
1000
E000
ENDCHAR
STARTCHAR Amacron
ENCODING 256
SWIDTH 602 0
DWIDTH 10 0
BBX 10 14 0 0
BITMAP
1F00
0000
0C00
0C00
0C00
1200
1200
1200
2100
2100
7F00
4080
4080
80C0
ENDCHAR
STARTCHAR amacron
ENCODING 257
SWIDTH 602 0
DWIDTH 10 0
BBX 8 11 1 0
BITMAP
3E
00
7C
42
02
02
3E
C2
82
86
7B
ENDCHAR
STARTCHAR Abreve
ENCODING 258
SWIDTH 602 0
DWIDTH 10 0
BBX 10 15 0 0
BITMAP
2100
1E00
0000
0C00
0C00
0C00
1200
1200
1200
2100
2100
7F00
4080
4080
80C0
ENDCHAR
STARTCHAR abreve
ENCODING 259
SWIDTH 602 0
DWIDTH 10 0
BBX 8 12 1 0
BITMAP
42
3C
00
7C
42
02
02
3E
C2
82
86
7B
ENDCHAR
STARTCHAR Aogonek
ENCODING 260
SWIDTH 602 0
DWIDTH 10 0
BBX 10 15 0 -3
BITMAP
0C00
0C00
0C00
1200
1200
1200
2100
2100
7F00
4080
4080
80C0
0400
0800
0E00
ENDCHAR
STARTCHAR aogonek
ENCODING 261
SWIDTH 602 0
DWIDTH 10 0
BBX 8 12 1 -3
BITMAP
7C
42
02
02
3E
C2
82
86
7B
08
10
1C
ENDCHAR
STARTCHAR Cacute
ENCODING 262
SWIDTH 602 0
DWIDTH 10 0
BBX 9 15 1 0
BITMAP
0E00
1800
0000
1F80
2080
4000
C000
8000
8000
8000
8000
C000
4000
3080
1F80
ENDCHAR
STARTCHAR cacute
ENCODING 263
SWIDTH 602 0
DWIDTH 10 0
BBX 7 12 2 0
BITMAP
1C
30
00
3E
42
80
80
80
80
C0
42
3E
ENDCHAR
STARTCHAR Ccircumflex
ENCODING 264
SWIDTH 602 0
DWIDTH 10 0
BBX 9 15 1 0
BITMAP
1E00
3300
0000
1F80
2080
4000
C000
8000
8000
8000
8000
C000
4000
3080
1F80
ENDCHAR
STARTCHAR ccircumflex
ENCODING 265
SWIDTH 602 0
DWIDTH 10 0
BBX 7 12 2 0
BITMAP
3C
66
00
3E
42
80
80
80
80
C0
42
3E
ENDCHAR
STARTCHAR Cdotaccent
ENCODING 266
SWIDTH 602 0
DWIDTH 10 0
BBX 9 14 1 0
BITMAP
0C00
0000
1F80
2080
4000
C000
8000
8000
8000
8000
C000
4000
3080
1F80
ENDCHAR
STARTCHAR cdotaccent
ENCODING 267
SWIDTH 602 0
DWIDTH 10 0
BBX 7 11 2 0
BITMAP
18
00
3E
42
80
80
80
80
C0
42
3E
ENDCHAR
STARTCHAR Ccaron
ENCODING 268
SWIDTH 602 0
DWIDTH 10 0
BBX 9 15 1 0
BITMAP
3300
1E00
0000
1F80
2080
4000
C000
8000
8000
8000
8000
C000
4000
3080
1F80
ENDCHAR
STARTCHAR ccaron
ENCODING 269
SWIDTH 602 0
DWIDTH 10 0
BBX 7 12 2 0
BITMAP
66
3C
00
3E
42
80
80
80
80
C0
42
3E
ENDCHAR
STARTCHAR Dcaron
ENCODING 270
SWIDTH 602 0
DWIDTH 10 0
BBX 9 15 1 0
BITMAP
6600
3C00
0000
FE00
8300
8180
8080
8080
8080
8080
8080
8080
8100
8300
FC00
ENDCHAR
STARTCHAR dcaron
ENCODING 271
SWIDTH 602 0
DWIDTH 10 0
BBX 8 15 1 0
BITMAP
33
1E
00
01
01
01
3D
43
C1
81
81
81
81
47
3D
ENDCHAR
STARTCHAR Dcroat
ENCODING 272
SWIDTH 602 0
DWIDTH 10 0
BBX 10 12 0 0
BITMAP
7F00
4180
40C0
4040
4040
F040
4040
4040
4040
4080
4180
7E00
ENDCHAR
STARTCHAR dcroat
ENCODING 273
SWIDTH 602 0
DWIDTH 10 0
BBX 9 12 1 0
BITMAP
0100
3F80
0100
3D00
4300
C100
8100
8100
8100
8100
4700
3D00
ENDCHAR
STARTCHAR Emacron
ENCODING 274
SWIDTH 602 0
DWIDTH 10 0
BBX 7 14 2 0
BITMAP
F8
00
FE
80
80
80
80
FC
80
80
80
80
80
FE
ENDCHAR
STARTCHAR emacron
ENCODING 275
SWIDTH 602 0
DWIDTH 10 0
BBX 8 11 1 0
BITMAP
3E
00
3E
42
81
81
FF
80
80
41
3F
ENDCHAR
STARTCHAR Ebreve
ENCODING 276
SWIDTH 602 0
DWIDTH 10 0
BBX 7 15 2 0
BITMAP
84
78
00
FE
80
80
80
80
FC
80
80
80
80
80
FE
ENDCHAR
STARTCHAR ebreve
ENCODING 277
SWIDTH 602 0
DWIDTH 10 0
BBX 8 12 1 0
BITMAP
42
3C
00
3E
42
81
81
FF
80
80
41
3F
ENDCHAR
STARTCHAR Edotaccent
ENCODING 278
SWIDTH 602 0
DWIDTH 10 0
BBX 7 14 2 0
BITMAP
30
00
FE
80
80
80
80
FC
80
80
80
80
80
FE
ENDCHAR
STARTCHAR edotaccent
ENCODING 279
SWIDTH 602 0
DWIDTH 10 0
BBX 8 11 1 0
BITMAP
18
00
3E
42
81
81
FF
80
80
41
3F
ENDCHAR
STARTCHAR Eogonek
ENCODING 280
SWIDTH 602 0
DWIDTH 10 0
BBX 7 15 2 -3
BITMAP
FE
80
80
80
80
FC
80
80
80
80
80
FE
20
40
70
ENDCHAR
STARTCHAR eogonek
ENCODING 281
SWIDTH 602 0
DWIDTH 10 0
BBX 8 12 1 -3
BITMAP
3E
42
81
81
FF
80
80
41
3F
08
10
1C
ENDCHAR
STARTCHAR Ecaron
ENCODING 282
SWIDTH 602 0
DWIDTH 10 0
BBX 7 15 2 0
BITMAP
CC
78
00
FE
80
80
80
80
FC
80
80
80
80
80
FE
ENDCHAR
STARTCHAR ecaron
ENCODING 283
SWIDTH 602 0
DWIDTH 10 0
BBX 8 12 1 0
BITMAP
66
3C
00
3E
42
81
81
FF
80
80
41
3F
ENDCHAR
STARTCHAR Gcircumflex
ENCODING 284
SWIDTH 602 0
DWIDTH 10 0
BBX 9 15 0 0
BITMAP
1E00
3300
0000
1F80
2080
4000
8000
8000
8000
8000
8080
C080
4080
3080
1F80
ENDCHAR
STARTCHAR gcircumflex
ENCODING 285
SWIDTH 602 0
DWIDTH 10 0
BBX 8 15 1 -3
BITMAP
3C
66
00
3D
43
81
81
81
81
81
47
3D
01
41
7E
ENDCHAR
STARTCHAR Gbreve
ENCODING 286
SWIDTH 602 0
DWIDTH 10 0
BBX 9 15 0 0
BITMAP
2100
1E00
0000
1F80
2080
4000
8000
8000
8000
8000
8080
C080
4080
3080
1F80
ENDCHAR
STARTCHAR gbreve
ENCODING 287
SWIDTH 602 0
DWIDTH 10 0
BBX 8 15 1 -3
BITMAP
42
3C
00
3D
43
81
81
81
81
81
47
3D
01
41
7E
ENDCHAR
STARTCHAR Gdotaccent
ENCODING 288
SWIDTH 602 0
DWIDTH 10 0
BBX 9 14 0 0
BITMAP
0C00
0000
1F80
2080
4000
8000
8000
8000
8000
8080
C080
4080
3080
1F80
ENDCHAR
STARTCHAR gdotaccent
ENCODING 289
SWIDTH 602 0
DWIDTH 10 0
BBX 8 14 1 -3
BITMAP
18
00
3D
43
81
81
81
81
81
47
3D
01
41
7E
ENDCHAR
STARTCHAR Gcommaaccent
ENCODING 290
SWIDTH 602 0
DWIDTH 10 0
BBX 9 19 0 -7
BITMAP
1F80
2080
4000
8000
8000
8000
8000
8080
C080
4080
3080
1F80
0000
0C00
0C00
0C00
0400
0400
0800
ENDCHAR
STARTCHAR gcommaaccent
ENCODING 291
SWIDTH 602 0
DWIDTH 10 0
BBX 8 17 1 -3
BITMAP
18
10
18
18
00
3D
43
81
81
81
81
81
47
3D
01
41
7E
ENDCHAR
STARTCHAR Hcircumflex
ENCODING 292
SWIDTH 602 0
DWIDTH 10 0
BBX 8 15 1 0
BITMAP
3C
66
00
81
81
81
81
81
FF
81
81
81
81
81
81
ENDCHAR
STARTCHAR hcircumflex
ENCODING 293
SWIDTH 602 0
DWIDTH 10 0
BBX 7 15 2 0
BITMAP
78
CC
00
80
80
80
BC
C2
82
82
82
82
82
82
82
ENDCHAR
STARTCHAR Hbar
ENCODING 294
SWIDTH 602 0
DWIDTH 10 0
BBX 8 12 1 0
BITMAP
81
81
FF
81
81
FF
81
81
81
81
81
81
ENDCHAR
STARTCHAR hbar
ENCODING 295
SWIDTH 602 0
DWIDTH 10 0
BBX 8 12 1 0
BITMAP
40
FE
40
5E
61
41
41
41
41
41
41
41
ENDCHAR
STARTCHAR Itilde
ENCODING 296
SWIDTH 602 0
DWIDTH 10 0
BBX 7 14 2 0
BITMAP
7E
00
FE
10
10
10
10
10
10
10
10
10
10
FE
ENDCHAR
STARTCHAR itilde
ENCODING 297
SWIDTH 602 0
DWIDTH 10 0
BBX 6 11 1 0
BITMAP
FC
00
78
08
08
08
08
08
08
08
08
ENDCHAR
STARTCHAR Imacron
ENCODING 298
SWIDTH 602 0
DWIDTH 10 0
BBX 7 14 2 0
BITMAP
7C
00
FE
10
10
10
10
10
10
10
10
10
10
FE
ENDCHAR
STARTCHAR imacron
ENCODING 299
SWIDTH 602 0
DWIDTH 10 0
BBX 5 11 2 0
BITMAP
F8
00
F0
10
10
10
10
10
10
10
10
ENDCHAR
STARTCHAR Ibreve
ENCODING 300
SWIDTH 602 0
DWIDTH 10 0
BBX 7 15 2 0
BITMAP
42
3C
00
FE
10
10
10
10
10
10
10
10
10
10
FE
ENDCHAR
STARTCHAR ibreve
ENCODING 301
SWIDTH 602 0
DWIDTH 10 0
BBX 6 12 1 0
BITMAP
84
78
00
78
08
08
08
08
08
08
08
08
ENDCHAR
STARTCHAR Iogonek
ENCODING 302
SWIDTH 602 0
DWIDTH 10 0
BBX 7 15 2 -3
BITMAP
FE
10
10
10
10
10
10
10
10
10
10
FE
10
20
38
ENDCHAR
STARTCHAR iogonek
ENCODING 303
SWIDTH 602 0
DWIDTH 10 0
BBX 5 15 2 -3
BITMAP
10
00
00
F0
10
10
10
10
10
10
10
10
10
20
38
ENDCHAR
STARTCHAR Idotaccent
ENCODING 304
SWIDTH 602 0
DWIDTH 10 0
BBX 7 14 2 0
BITMAP
18
00
FE
10
10
10
10
10
10
10
10
10
10
FE
ENDCHAR
STARTCHAR dotlessi
ENCODING 305
SWIDTH 602 0
DWIDTH 10 0
BBX 4 9 2 0
BITMAP
F0
10
10
10
10
10
10
10
10
ENDCHAR
STARTCHAR IJ
ENCODING 306
SWIDTH 602 0
DWIDTH 10 0
BBX 9 12 2 0
BITMAP
FF80
1080
1080
1080
1080
1080
1080
1080
1080
1080
1880
FF00
ENDCHAR
STARTCHAR ij
ENCODING 307
SWIDTH 602 0
DWIDTH 10 0
BBX 6 15 2 -3
BITMAP
14
00
00
FC
14
14
14
14
14
14
14
14
04
44
78
ENDCHAR
STARTCHAR Jcircumflex
ENCODING 308
SWIDTH 602 0
DWIDTH 10 0
BBX 6 15 2 0
BITMAP
78
CC
00
78
08
08
08
08
08
08
08
08
08
88
F0
ENDCHAR
STARTCHAR jcircumflex
ENCODING 309
SWIDTH 602 0
DWIDTH 10 0
BBX 6 15 2 -3
BITMAP
78
CC
00
78
08
08
08
08
08
08
08
08
08
88
F0
ENDCHAR
STARTCHAR Kcommaaccent
ENCODING 310
SWIDTH 602 0
DWIDTH 10 0
BBX 9 19 1 -7
BITMAP
8300
8600
8C00
9800
9000
A000
E000
9000
8800
8400
8200
8180
0000
1800
1800
1800
0800
0800
1000
ENDCHAR
STARTCHAR kcommaaccent
ENCODING 311
SWIDTH 602 0
DWIDTH 10 0
BBX 7 19 2 -7
BITMAP
80
80
80
8C
98
90
A0
E0
B0
98
88
86
00
30
30
30
10
10
20
ENDCHAR
STARTCHAR kgreenlandic
ENCODING 312
SWIDTH 602 0
DWIDTH 10 0
BBX 7 9 2 0
BITMAP
8C
98
90
A0
E0
B0
98
88
86
ENDCHAR
STARTCHAR Lacute
ENCODING 313
SWIDTH 602 0
DWIDTH 10 0
BBX 7 15 2 0
BITMAP
70
C0
00
80
80
80
80
80
80
80
80
80
80
80
FE
ENDCHAR
STARTCHAR lacute
ENCODING 314
SWIDTH 602 0
DWIDTH 10 0
BBX 5 15 2 0
BITMAP
38
60
00
F0
10
10
10
10
10
10
10
10
10
10
10
ENDCHAR
STARTCHAR Lcommaaccent
ENCODING 315
SWIDTH 602 0
DWIDTH 10 0
BBX 7 19 2 -7
BITMAP
80
80
80
80
80
80
80
80
80
80
80
FE
00
30
30
30
10
10
20
ENDCHAR
STARTCHAR lcommaaccent
ENCODING 316
SWIDTH 602 0
DWIDTH 10 0
BBX 4 19 2 -7
BITMAP
F0
10
10
10
10
10
10
10
10
10
10
10
00
30
30
30
10
10
20
ENDCHAR
STARTCHAR Lcaron
ENCODING 317
SWIDTH 602 0
DWIDTH 10 0
BBX 8 15 1 0
BITMAP
CC
78
00
40
40
40
40
40
40
40
40
40
40
40
7F
ENDCHAR
STARTCHAR lcaron
ENCODING 318
SWIDTH 602 0
DWIDTH 10 0
BBX 6 15 1 0
BITMAP
CC
78
00
78
08
08
08
08
08
08
08
08
08
08
08
ENDCHAR
STARTCHAR Ldot
ENCODING 319
SWIDTH 602 0
DWIDTH 10 0
BBX 7 12 2 0
BITMAP
80
80
80
80
80
80
8C
80
80
80
80
FE
ENDCHAR
STARTCHAR ldot
ENCODING 320
SWIDTH 602 0
DWIDTH 10 0
BBX 7 12 2 0
BITMAP
F0
10
10
10
10
10
16
10
10
10
10
10
ENDCHAR
STARTCHAR Lslash
ENCODING 321
SWIDTH 602 0
DWIDTH 10 0
BBX 9 12 0 0
BITMAP
2000
2000
2000
2000
2800
3000
6000
A000
2000
2000
2000
3F80
ENDCHAR
STARTCHAR lslash
ENCODING 322
SWIDTH 602 0
DWIDTH 10 0
BBX 6 12 2 0
BITMAP
F0
10
10
14
1C
10
70
50
10
10
10
10
ENDCHAR
STARTCHAR Nacute
ENCODING 323
SWIDTH 602 0
DWIDTH 10 0
BBX 8 15 1 0
BITMAP
1C
30
00
81
C1
E1
A1
91
91
89
89
85
83
83
81
ENDCHAR
STARTCHAR nacute
ENCODING 324
SWIDTH 602 0
DWIDTH 10 0
BBX 7 12 2 0
BITMAP
1C
30
00
BC
C2
82
82
82
82
82
82
82
ENDCHAR
STARTCHAR Ncommaaccent
ENCODING 325
SWIDTH 602 0
DWIDTH 10 0
BBX 8 19 1 -7
BITMAP
81
C1
E1
A1
91
91
89
89
85
83
83
81
00
18
18
18
08
08
10
ENDCHAR
STARTCHAR ncommaaccent
ENCODING 326
SWIDTH 602 0
DWIDTH 10 0
BBX 7 16 2 -7
BITMAP
BC
C2
82
82
82
82
82
82
82
00
18
18
18
08
08
10
ENDCHAR
STARTCHAR Ncaron
ENCODING 327
SWIDTH 602 0
DWIDTH 10 0
BBX 8 15 1 0
BITMAP
66
3C
00
81
C1
E1
A1
91
91
89
89
85
83
83
81
ENDCHAR
STARTCHAR ncaron
ENCODING 328
SWIDTH 602 0
DWIDTH 10 0
BBX 7 12 2 0
BITMAP
CC
78
00
BC
C2
82
82
82
82
82
82
82
ENDCHAR
STARTCHAR napostrophe
ENCODING 329
SWIDTH 602 0
DWIDTH 10 0
BBX 8 12 1 0
BITMAP
C0
C0
40
DE
61
41
41
41
41
41
41
41
ENDCHAR
STARTCHAR Eng
ENCODING 330
SWIDTH 602 0
DWIDTH 10 0
BBX 8 15 1 -3
BITMAP
81
C1
E1
A1
91
91
89
89
85
83
83
81
01
11
1E
ENDCHAR
STARTCHAR eng
ENCODING 331
SWIDTH 602 0
DWIDTH 10 0
BBX 7 12 2 -3
BITMAP
BC
C2
82
82
82
82
82
82
82
02
22
3C
ENDCHAR
STARTCHAR Omacron
ENCODING 332
SWIDTH 602 0
DWIDTH 10 0
BBX 9 14 1 0
BITMAP
3E00
0000
3E00
6300
4100
8080
8080
8080
8080
8080
8080
4100
6300
3E00
ENDCHAR
STARTCHAR omacron
ENCODING 333
SWIDTH 602 0
DWIDTH 10 0
BBX 9 11 1 0
BITMAP
3E00
0000
3E00
6300
C180
8080
8080
8080
C180
6300
3E00
ENDCHAR
STARTCHAR Obreve
ENCODING 334
SWIDTH 602 0
DWIDTH 10 0
BBX 9 15 1 0
BITMAP
2100
1E00
0000
3E00
6300
4100
8080
8080
8080
8080
8080
8080
4100
6300
3E00
ENDCHAR
STARTCHAR obreve
ENCODING 335
SWIDTH 602 0
DWIDTH 10 0
BBX 9 12 1 0
BITMAP
2100
1E00
0000
3E00
6300
C180
8080
8080
8080
C180
6300
3E00
ENDCHAR
STARTCHAR Ohungarumlaut
ENCODING 336
SWIDTH 602 0
DWIDTH 10 0
BBX 9 15 1 0
BITMAP
1B00
3400
0000
3E00
6300
4100
8080
8080
8080
8080
8080
8080
4100
6300
3E00
ENDCHAR
STARTCHAR ohungarumlaut
ENCODING 337
SWIDTH 602 0
DWIDTH 10 0
BBX 9 12 1 0
BITMAP
1B00
3400
0000
3E00
6300
C180
8080
8080
8080
C180
6300
3E00
ENDCHAR
STARTCHAR OE
ENCODING 338
SWIDTH 602 0
DWIDTH 10 0
BBX 9 12 1 0
BITMAP
7F80
4400
8400
8400
8400
8700
8400
8400
8400
8400
4400
7F80
ENDCHAR
STARTCHAR oe
ENCODING 339
SWIDTH 602 0
DWIDTH 10 0
BBX 10 9 0 0
BITMAP
3B80
4E40
8440
8440
87C0
8400
8400
4C40
3BC0
ENDCHAR
STARTCHAR Racute
ENCODING 340
SWIDTH 602 0
DWIDTH 10 0
BBX 7 15 2 0
BITMAP
1C
30
00
FC
86
82
82
82
8C
F8
88
8C
84
82
82
ENDCHAR
STARTCHAR racute
ENCODING 341
SWIDTH 602 0
DWIDTH 10 0
BBX 6 12 3 0
BITMAP
38
60
00
BC
C4
80
80
80
80
80
80
80
ENDCHAR
STARTCHAR Rcommaaccent
ENCODING 342
SWIDTH 602 0
DWIDTH 10 0
BBX 7 19 2 -7
BITMAP
FC
86
82
82
82
8C
F8
88
8C
84
82
82
00
30
30
30
10
10
20
ENDCHAR
STARTCHAR rcommaaccent
ENCODING 343
SWIDTH 602 0
DWIDTH 10 0
BBX 6 16 3 -7
BITMAP
BC
C4
80
80
80
80
80
80
80
00
C0
C0
C0
40
40
80
ENDCHAR
STARTCHAR Rcaron
ENCODING 344
SWIDTH 602 0
DWIDTH 10 0
BBX 7 15 2 0
BITMAP
CC
78
00
FC
86
82
82
82
8C
F8
88
8C
84
82
82
ENDCHAR
STARTCHAR rcaron
ENCODING 345
SWIDTH 602 0
DWIDTH 10 0
BBX 6 12 3 0
BITMAP
CC
78
00
BC
C4
80
80
80
80
80
80
80
ENDCHAR
STARTCHAR Sacute
ENCODING 346
SWIDTH 602 0
DWIDTH 10 0
BBX 8 15 1 0
BITMAP
1C
30
00
3F
C1
80
80
40
38
06
03
01
01
82
7C
ENDCHAR
STARTCHAR sacute
ENCODING 347
SWIDTH 602 0
DWIDTH 10 0
BBX 7 12 2 0
BITMAP
1C
30
00
7E
80
80
E0
38
06
02
86
FC
ENDCHAR
STARTCHAR Scircumflex
ENCODING 348
SWIDTH 602 0
DWIDTH 10 0
BBX 8 15 1 0
BITMAP
3C
66
00
3F
C1
80
80
40
38
06
03
01
01
82
7C
ENDCHAR
STARTCHAR scircumflex
ENCODING 349
SWIDTH 602 0
DWIDTH 10 0
BBX 7 12 2 0
BITMAP
78
CC
00
7E
80
80
E0
38
06
02
86
FC
ENDCHAR
STARTCHAR Scedilla
ENCODING 350
SWIDTH 602 0
DWIDTH 10 0
BBX 8 15 1 -3
BITMAP
3F
C1
80
80
40
38
06
03
01
01
82
7C
18
04
1C
ENDCHAR
STARTCHAR scedilla
ENCODING 351
SWIDTH 602 0
DWIDTH 10 0
BBX 7 12 2 -3
BITMAP
7E
80
80
E0
38
06
02
86
FC
30
08
38
ENDCHAR
STARTCHAR Scaron
ENCODING 352
SWIDTH 602 0
DWIDTH 10 0
BBX 8 15 1 0
BITMAP
66
3C
00
3F
C1
80
80
40
38
06
03
01
01
82
7C
ENDCHAR
STARTCHAR scaron
ENCODING 353
SWIDTH 602 0
DWIDTH 10 0
BBX 7 12 2 0
BITMAP
CC
78
00
7E
80
80
E0
38
06
02
86
FC
ENDCHAR
STARTCHAR Tcommaaccent
ENCODING 354
SWIDTH 602 0
DWIDTH 10 0
BBX 9 15 1 -3
BITMAP
FF80
0800
0800
0800
0800
0800
0800
0800
0800
0800
0800
0800
1800
0400
1C00
ENDCHAR
STARTCHAR tcommaaccent
ENCODING 355
SWIDTH 602 0
DWIDTH 10 0
BBX 7 14 2 -3
BITMAP
20
20
FE
20
20
20
20
20
20
20
1E
18
04
1C
ENDCHAR
STARTCHAR Tcaron
ENCODING 356
SWIDTH 602 0
DWIDTH 10 0
BBX 9 15 1 0
BITMAP
3300
1E00
0000
FF80
0800
0800
0800
0800
0800
0800
0800
0800
0800
0800
0800
ENDCHAR
STARTCHAR tcaron
ENCODING 357
SWIDTH 602 0
DWIDTH 10 0
BBX 7 14 2 0
BITMAP
CC
78
00
20
20
FE
20
20
20
20
20
20
20
1E
ENDCHAR
STARTCHAR Tbar
ENCODING 358
SWIDTH 602 0
DWIDTH 10 0
BBX 9 12 1 0
BITMAP
FF80
0800
0800
0800
0800
7F00
0800
0800
0800
0800
0800
0800
ENDCHAR
STARTCHAR tbar
ENCODING 359
SWIDTH 602 0
DWIDTH 10 0
BBX 7 11 2 0
BITMAP
20
20
FE
20
20
FE
20
20
20
20
1E
ENDCHAR
STARTCHAR Utilde
ENCODING 360
SWIDTH 602 0
DWIDTH 10 0
BBX 8 14 1 0
BITMAP
7E
00
81
81
81
81
81
81
81
81
81
81
C2
7C
ENDCHAR
STARTCHAR utilde
ENCODING 361
SWIDTH 602 0
DWIDTH 10 0
BBX 7 11 2 0
BITMAP
7E
00
82
82
82
82
82
82
82
86
7A
ENDCHAR
STARTCHAR Umacron
ENCODING 362
SWIDTH 602 0
DWIDTH 10 0
BBX 8 14 1 0
BITMAP
3E
00
81
81
81
81
81
81
81
81
81
81
C2
7C
ENDCHAR
STARTCHAR umacron
ENCODING 363
SWIDTH 602 0
DWIDTH 10 0
BBX 7 11 2 0
BITMAP
7C
00
82
82
82
82
82
82
82
86
7A
ENDCHAR
STARTCHAR Ubreve
ENCODING 364
SWIDTH 602 0
DWIDTH 10 0
BBX 8 15 1 0
BITMAP
42
3C
00
81
81
81
81
81
81
81
81
81
81
C2
7C
ENDCHAR
STARTCHAR ubreve
ENCODING 365
SWIDTH 602 0
DWIDTH 10 0
BBX 7 12 2 0
BITMAP
42
3C
00
82
82
82
82
82
82
82
86
7A
ENDCHAR
STARTCHAR Uring
ENCODING 366
SWIDTH 602 0
DWIDTH 10 0
BBX 8 15 1 0
BITMAP
1C
1C
00
81
81
81
81
81
81
81
81
81
81
C2
7C
ENDCHAR
STARTCHAR uring
ENCODING 367
SWIDTH 602 0
DWIDTH 10 0
BBX 7 12 2 0
BITMAP
38
38
00
82
82
82
82
82
82
82
86
7A
ENDCHAR
STARTCHAR Uhungarumlaut
ENCODING 368
SWIDTH 602 0
DWIDTH 10 0
BBX 8 15 1 0
BITMAP
1B
34
00
81
81
81
81
81
81
81
81
81
81
C2
7C
ENDCHAR
STARTCHAR uhungarumlaut
ENCODING 369
SWIDTH 602 0
DWIDTH 10 0
BBX 7 12 2 0
BITMAP
36
68
00
82
82
82
82
82
82
82
86
7A
ENDCHAR
STARTCHAR Uogonek
ENCODING 370
SWIDTH 602 0
DWIDTH 10 0
BBX 8 15 1 -3
BITMAP
81
81
81
81
81
81
81
81
81
81
C2
7C
10
20
38
ENDCHAR
STARTCHAR uogonek
ENCODING 371
SWIDTH 602 0
DWIDTH 10 0
BBX 7 12 2 -3
BITMAP
82
82
82
82
82
82
82
86
7A
10
20
38
ENDCHAR
STARTCHAR Wcircumflex
ENCODING 372
SWIDTH 602 0
DWIDTH 10 0
BBX 10 15 0 0
BITMAP
1E00
3300
0000
8040
8840
88C0
9C80
D480
D480
5480
5580
5380
6300
4100
4100
ENDCHAR
STARTCHAR wcircumflex
ENCODING 373
SWIDTH 602 0
DWIDTH 10 0
BBX 10 12 0 0
BITMAP
1E00
3300
0000
8040
8C40
8C80
5480
5280
5280
5280
6300
6300
ENDCHAR
STARTCHAR Ycircumflex
ENCODING 374
SWIDTH 602 0
DWIDTH 10 0
BBX 9 15 1 0
BITMAP
1E00
3300
0000
C180
4100
2200
2200
1400
1400
0800
0800
0800
0800
0800
0800
ENDCHAR
STARTCHAR ycircumflex
ENCODING 375
SWIDTH 602 0
DWIDTH 10 0
BBX 9 15 1 -3
BITMAP
3C00
6600
0000
C080
4100
4100
2200
2200
1400
1400
0800
0800
1800
1000
E000
ENDCHAR
STARTCHAR Ydieresis
ENCODING 376
SWIDTH 602 0
DWIDTH 10 0
BBX 9 14 1 0
BITMAP
2600
0000
C180
4100
2200
2200
1400
1400
0800
0800
0800
0800
0800
0800
ENDCHAR
STARTCHAR Zacute
ENCODING 377
SWIDTH 602 0
DWIDTH 10 0
BBX 9 15 1 0
BITMAP
0700
0C00
0000
FF80
0100
0300
0200
0400
0800
0800
1000
2000
6000
4000
FF80
ENDCHAR
STARTCHAR zacute
ENCODING 378
SWIDTH 602 0
DWIDTH 10 0
BBX 8 12 1 0
BITMAP
0E
18
00
FF
02
04
08
18
30
60
40
FF
ENDCHAR
STARTCHAR Zdotaccent
ENCODING 379
SWIDTH 602 0
DWIDTH 10 0
BBX 9 14 1 0
BITMAP
0C00
0000
FF80
0100
0300
0200
0400
0800
0800
1000
2000
6000
4000
FF80
ENDCHAR
STARTCHAR zdotaccent
ENCODING 380
SWIDTH 602 0
DWIDTH 10 0
BBX 8 11 1 0
BITMAP
18
00
FF
02
04
08
18
30
60
40
FF
ENDCHAR
STARTCHAR Zcaron
ENCODING 381
SWIDTH 602 0
DWIDTH 10 0
BBX 9 15 1 0
BITMAP
6600
3C00
0000
FF80
0100
0300
0200
0400
0800
0800
1000
2000
6000
4000
FF80
ENDCHAR
STARTCHAR zcaron
ENCODING 382
SWIDTH 602 0
DWIDTH 10 0
BBX 8 12 1 0
BITMAP
66
3C
00
FF
02
04
08
18
30
60
40
FF
ENDCHAR
STARTCHAR uni0186
ENCODING 390
SWIDTH 602 0
DWIDTH 10 0
BBX 9 12 1 0
BITMAP
FC00
8600
0100
0180
0080
0080
0080
0080
0180
0100
8200
FC00
ENDCHAR
STARTCHAR uni0189
ENCODING 393
SWIDTH 602 0
DWIDTH 10 0
BBX 10 12 0 0
BITMAP
7F00
4180
40C0
4040
4040
F040
4040
4040
4040
4080
4180
7E00
ENDCHAR
STARTCHAR uni018E
ENCODING 398
SWIDTH 602 0
DWIDTH 10 0
BBX 7 12 2 0
BITMAP
FE
02
02
02
02
02
7E
02
02
02
02
FE
ENDCHAR
STARTCHAR florin
ENCODING 402
SWIDTH 602 0
DWIDTH 10 0
BBX 8 14 2 -2
BITMAP
0F
08
10
10
30
F8
40
40
40
40
80
80
80
80
ENDCHAR
STARTCHAR uni0197
ENCODING 407
SWIDTH 602 0
DWIDTH 10 0
BBX 7 12 2 0
BITMAP
FE
10
10
10
10
FE
10
10
10
10
10
FE
ENDCHAR
STARTCHAR uni019A
ENCODING 410
SWIDTH 602 0
DWIDTH 10 0
BBX 7 12 1 0
BITMAP
78
08
08
08
08
FE
08
08
08
08
08
08
ENDCHAR
STARTCHAR uni019D
ENCODING 413
SWIDTH 602 0
DWIDTH 10 0
BBX 12 15 -3 -3
BITMAP
0810
0C10
0E10
0A10
0910
0910
0890
0890
0850
0830
0830
0810
0800
8800
F000
ENDCHAR
STARTCHAR uni019F
ENCODING 415
SWIDTH 602 0
DWIDTH 10 0
BBX 9 12 1 0
BITMAP
3E00
6300
4100
8080
8080
FF80
8080
8080
8080
4100
6300
3E00
ENDCHAR
STARTCHAR Ohorn
ENCODING 416
SWIDTH 602 0
DWIDTH 10 0
BBX 10 12 1 0
BITMAP
3EC0
63C0
4140
80C0
8080
8080
8080
8080
8080
4100
6300
3E00
ENDCHAR
STARTCHAR ohorn
ENCODING 417
SWIDTH 602 0
DWIDTH 10 0
BBX 10 9 1 0
BITMAP
3EC0
63C0
C1C0
80C0
8080
8080
C180
6300
3E00
ENDCHAR
STARTCHAR uni01A7
ENCODING 423
SWIDTH 602 0
DWIDTH 10 0
BBX 8 12 1 0
BITMAP
FC
83
01
01
02
1C
60
C0
80
80
41
3E
ENDCHAR
STARTCHAR uni01A8
ENCODING 424
SWIDTH 602 0
DWIDTH 10 0
BBX 7 9 2 0
BITMAP
FC
02
02
0E
38
C0
80
C2
7E
ENDCHAR
STARTCHAR uni01AE
ENCODING 430
SWIDTH 602 0
DWIDTH 10 0
BBX 9 15 1 -3
BITMAP
FF80
0800
0800
0800
0800
0800
0800
0800
0800
0800
0800
0800
0800
0880
0780
ENDCHAR
STARTCHAR Uhorn
ENCODING 431
SWIDTH 602 0
DWIDTH 10 0
BBX 10 12 1 0
BITMAP
81C0
81C0
8140
81C0
8100
8100
8100
8100
8100
8100
C200
7C00
ENDCHAR
STARTCHAR uhorn
ENCODING 432
SWIDTH 602 0
DWIDTH 10 0
BBX 9 9 2 0
BITMAP
8380
8380
8280
8380
8200
8200
8200
8600
7A00
ENDCHAR
STARTCHAR uni01B5
ENCODING 437
SWIDTH 602 0
DWIDTH 10 0
BBX 9 12 1 0
BITMAP
FF80
0100
0300
0200
0400
7F00
0800
1000
2000
6000
4000
FF80
ENDCHAR
STARTCHAR uni01B6
ENCODING 438
SWIDTH 602 0
DWIDTH 10 0
BBX 8 9 1 0
BITMAP
FF
02
04
08
7F
30
60
40
FF
ENDCHAR
STARTCHAR uni01BB
ENCODING 443
SWIDTH 602 0
DWIDTH 10 0
BBX 6 12 2 0
BITMAP
78
8C
04
04
04
FC
18
30
60
40
C0
FC
ENDCHAR
STARTCHAR uni01BC
ENCODING 444
SWIDTH 602 0
DWIDTH 10 0
BBX 6 12 2 0
BITMAP
FC
80
80
80
F0
18
04
04
04
04
88
F0
ENDCHAR
STARTCHAR uni01C0
ENCODING 448
SWIDTH 602 0
DWIDTH 10 0
BBX 1 14 5 -2
BITMAP
80
80
80
80
80
80
80
80
80
80
80
80
80
80
ENDCHAR
STARTCHAR uni01C2
ENCODING 450
SWIDTH 602 0
DWIDTH 10 0
BBX 9 14 1 -2
BITMAP
0800
0800
0800
0800
0800
FF80
0800
0800
0800
FF80
0800
0800
0800
0800
ENDCHAR
STARTCHAR uni01C3
ENCODING 451
SWIDTH 602 0
DWIDTH 10 0
BBX 1 12 5 0
BITMAP
80
80
80
80
80
80
80
80
80
00
00
80
ENDCHAR
STARTCHAR uni01CD
ENCODING 461
SWIDTH 602 0
DWIDTH 10 0
BBX 10 15 0 0
BITMAP
3300
1E00
0000
0C00
0C00
0C00
1200
1200
1200
2100
2100
7F00
4080
4080
80C0
ENDCHAR
STARTCHAR uni01CE
ENCODING 462
SWIDTH 602 0
DWIDTH 10 0
BBX 8 12 1 0
BITMAP
66
3C
00
7C
42
02
02
3E
C2
82
86
7B
ENDCHAR
STARTCHAR uni01CF
ENCODING 463
SWIDTH 602 0
DWIDTH 10 0
BBX 7 15 2 0
BITMAP
66
3C
00
FE
10
10
10
10
10
10
10
10
10
10
FE
ENDCHAR
STARTCHAR uni01D0
ENCODING 464
SWIDTH 602 0
DWIDTH 10 0
BBX 6 12 1 0
BITMAP
CC
78
00
78
08
08
08
08
08
08
08
08
ENDCHAR
STARTCHAR uni01D1
ENCODING 465
SWIDTH 602 0
DWIDTH 10 0
BBX 9 15 1 0
BITMAP
3300
1E00
0000
3E00
6300
4100
8080
8080
8080
8080
8080
8080
4100
6300
3E00
ENDCHAR
STARTCHAR uni01D2
ENCODING 466
SWIDTH 602 0
DWIDTH 10 0
BBX 9 12 1 0
BITMAP
3300
1E00
0000
3E00
6300
C180
8080
8080
8080
C180
6300
3E00
ENDCHAR
STARTCHAR uni01D3
ENCODING 467
SWIDTH 602 0
DWIDTH 10 0
BBX 8 15 1 0
BITMAP
66
3C
00
81
81
81
81
81
81
81
81
81
81
C2
7C
ENDCHAR
STARTCHAR uni01D4
ENCODING 468
SWIDTH 602 0
DWIDTH 10 0
BBX 7 12 2 0
BITMAP
66
3C
00
82
82
82
82
82
82
82
86
7A
ENDCHAR
STARTCHAR uni01D5
ENCODING 469
SWIDTH 602 0
DWIDTH 10 0
BBX 8 16 1 0
BITMAP
7C
00
4C
00
81
81
81
81
81
81
81
81
81
81
C2
7C
ENDCHAR
STARTCHAR uni01D6
ENCODING 470
SWIDTH 602 0
DWIDTH 10 0
BBX 7 13 2 0
BITMAP
7C
00
4C
00
82
82
82
82
82
82
82
86
7A
ENDCHAR
STARTCHAR uni01D7
ENCODING 471
SWIDTH 602 0
DWIDTH 10 0
BBX 8 17 1 0
BITMAP
0E
18
00
4C
00
81
81
81
81
81
81
81
81
81
81
C2
7C
ENDCHAR
STARTCHAR uni01D8
ENCODING 472
SWIDTH 602 0
DWIDTH 10 0
BBX 7 14 2 0
BITMAP
1C
30
00
4C
00
82
82
82
82
82
82
82
86
7A
ENDCHAR
STARTCHAR uni01D9
ENCODING 473
SWIDTH 602 0
DWIDTH 10 0
BBX 8 17 1 0
BITMAP
66
3C
00
4C
00
81
81
81
81
81
81
81
81
81
81
C2
7C
ENDCHAR
STARTCHAR uni01DA
ENCODING 474
SWIDTH 602 0
DWIDTH 10 0
BBX 7 14 2 0
BITMAP
66
3C
00
4C
00
82
82
82
82
82
82
82
86
7A
ENDCHAR
STARTCHAR uni01DB
ENCODING 475
SWIDTH 602 0
DWIDTH 10 0
BBX 8 17 1 0
BITMAP
70
18
00
4C
00
81
81
81
81
81
81
81
81
81
81
C2
7C
ENDCHAR
STARTCHAR uni01DC
ENCODING 476
SWIDTH 602 0
DWIDTH 10 0
BBX 7 14 2 0
BITMAP
70
18
00
4C
00
82
82
82
82
82
82
82
86
7A
ENDCHAR
STARTCHAR uni01DD
ENCODING 477
SWIDTH 602 0
DWIDTH 10 0
BBX 8 9 1 0
BITMAP
FC
82
01
01
FF
81
81
42
7C
ENDCHAR
STARTCHAR uni01DE
ENCODING 478
SWIDTH 602 0
DWIDTH 10 0
BBX 10 16 0 0
BITMAP
1F00
0000
1300
0000
0C00
0C00
0C00
1200
1200
1200
2100
2100
7F00
4080
4080
80C0
ENDCHAR
STARTCHAR uni01DF
ENCODING 479
SWIDTH 602 0
DWIDTH 10 0
BBX 8 13 1 0
BITMAP
7C
00
4C
00
7C
42
02
02
3E
C2
82
86
7B
ENDCHAR
STARTCHAR uni01E0
ENCODING 480
SWIDTH 602 0
DWIDTH 10 0
BBX 10 16 0 0
BITMAP
1F00
0000
0C00
0000
0C00
0C00
0C00
1200
1200
1200
2100
2100
7F00
4080
4080
80C0
ENDCHAR
STARTCHAR uni01E1
ENCODING 481
SWIDTH 602 0
DWIDTH 10 0
BBX 8 13 1 0
BITMAP
7C
00
18
00
7C
42
02
02
3E
C2
82
86
7B
ENDCHAR
STARTCHAR uni01E2
ENCODING 482
SWIDTH 602 0
DWIDTH 10 0
BBX 9 14 0 0
BITMAP
1F00
0000
0F80
0C00
0C00
1400
1400
3700
2400
2400
7C00
4400
4400
8780
ENDCHAR
STARTCHAR uni01E3
ENCODING 483
SWIDTH 602 0
DWIDTH 10 0
BBX 10 11 0 0
BITMAP
1F00
0000
7B80
0640
0440
0440
3FC0
C400
8400
8640
7FC0
ENDCHAR
STARTCHAR uni01E4
ENCODING 484
SWIDTH 602 0
DWIDTH 10 0
BBX 11 12 0 0
BITMAP
1F80
2080
4000
8000
8000
8000
8000
8080
CFE0
4080
3080
1F80
ENDCHAR
STARTCHAR uni01E5
ENCODING 485
SWIDTH 602 0
DWIDTH 10 0
BBX 8 12 1 -3
BITMAP
3D
43
81
81
81
81
81
47
3D
FF
41
7E
ENDCHAR
STARTCHAR Gcaron
ENCODING 486
SWIDTH 602 0
DWIDTH 10 0
BBX 9 15 0 0
BITMAP
3300
1E00
0000
1F80
2080
4000
8000
8000
8000
8000
8080
C080
4080
3080
1F80
ENDCHAR
STARTCHAR gcaron
ENCODING 487
SWIDTH 602 0
DWIDTH 10 0
BBX 8 15 1 -3
BITMAP
66
3C
00
3D
43
81
81
81
81
81
47
3D
01
41
7E
ENDCHAR
STARTCHAR uni01E8
ENCODING 488
SWIDTH 602 0
DWIDTH 10 0
BBX 9 15 1 0
BITMAP
6600
3C00
0000
8300
8600
8C00
9800
9000
A000
E000
9000
8800
8400
8200
8180
ENDCHAR
STARTCHAR uni01E9
ENCODING 489
SWIDTH 602 0
DWIDTH 10 0
BBX 7 15 2 0
BITMAP
CC
78
00
80
80
80
8C
98
90
A0
E0
B0
98
88
86
ENDCHAR
STARTCHAR uni01EA
ENCODING 490
SWIDTH 602 0
DWIDTH 10 0
BBX 9 15 1 -3
BITMAP
3E00
6300
4100
8080
8080
8080
8080
8080
8080
4100
6300
3E00
0800
1000
1C00
ENDCHAR
STARTCHAR uni01EB
ENCODING 491
SWIDTH 602 0
DWIDTH 10 0
BBX 9 12 1 -3
BITMAP
3E00
6300
C180
8080
8080
8080
C180
6300
3E00
0800
1000
1C00
ENDCHAR
STARTCHAR uni01EC
ENCODING 492
SWIDTH 602 0
DWIDTH 10 0
BBX 9 17 1 -3
BITMAP
3E00
0000
3E00
6300
4100
8080
8080
8080
8080
8080
8080
4100
6300
3E00
0800
1000
1C00
ENDCHAR
STARTCHAR uni01ED
ENCODING 493
SWIDTH 602 0
DWIDTH 10 0
BBX 9 14 1 -3
BITMAP
3E00
0000
3E00
6300
C180
8080
8080
8080
C180
6300
3E00
0800
1000
1C00
ENDCHAR
STARTCHAR uni01F0
ENCODING 496
SWIDTH 602 0
DWIDTH 10 0
BBX 6 15 2 -3
BITMAP
CC
78
00
78
08
08
08
08
08
08
08
08
08
88
F0
ENDCHAR
STARTCHAR uni01F4
ENCODING 500
SWIDTH 602 0
DWIDTH 10 0
BBX 9 15 0 0
BITMAP
0E00
1800
0000
1F80
2080
4000
8000
8000
8000
8000
8080
C080
4080
3080
1F80
ENDCHAR
STARTCHAR uni01F5
ENCODING 501
SWIDTH 602 0
DWIDTH 10 0
BBX 8 15 1 -3
BITMAP
0E
18
00
3D
43
81
81
81
81
81
47
3D
01
41
7E
ENDCHAR
STARTCHAR uni01F8
ENCODING 504
SWIDTH 602 0
DWIDTH 10 0
BBX 8 15 1 0
BITMAP
70
18
00
81
C1
E1
A1
91
91
89
89
85
83
83
81
ENDCHAR
STARTCHAR uni01F9
ENCODING 505
SWIDTH 602 0
DWIDTH 10 0
BBX 7 12 2 0
BITMAP
70
18
00
BC
C2
82
82
82
82
82
82
82
ENDCHAR
STARTCHAR Aringacute
ENCODING 506
SWIDTH 602 0
DWIDTH 10 0
BBX 10 18 0 0
BITMAP
0700
0C00
0000
0E00
0E00
0000
0C00
0C00
0C00
1200
1200
1200
2100
2100
7F00
4080
4080
80C0
ENDCHAR
STARTCHAR aringacute
ENCODING 507
SWIDTH 602 0
DWIDTH 10 0
BBX 8 15 1 0
BITMAP
1C
30
00
38
38
00
7C
42
02
02
3E
C2
82
86
7B
ENDCHAR
STARTCHAR AEacute
ENCODING 508
SWIDTH 602 0
DWIDTH 10 0
BBX 9 15 0 0
BITMAP
0700
0C00
0000
0F80
0C00
0C00
1400
1400
3700
2400
2400
7C00
4400
4400
8780
ENDCHAR
STARTCHAR aeacute
ENCODING 509
SWIDTH 602 0
DWIDTH 10 0
BBX 10 12 0 0
BITMAP
0700
0C00
0000
7B80
0640
0440
0440
3FC0
C400
8400
8640
7FC0
ENDCHAR
STARTCHAR Oslashacute
ENCODING 510
SWIDTH 602 0
DWIDTH 10 0
BBX 9 15 1 0
BITMAP
0700
0C00
0000
3F80
6380
4180
8280
8480
8C80
9880
9080
A080
C100
E300
FE00
ENDCHAR
STARTCHAR oslashacute
ENCODING 511
SWIDTH 602 0
DWIDTH 10 0
BBX 9 12 1 0
BITMAP
0700
0C00
0000
3F80
6180
C280
8480
8880
9080
A180
C300
FE00
ENDCHAR
STARTCHAR uni0200
ENCODING 512
SWIDTH 602 0
DWIDTH 10 0
BBX 10 15 0 0
BITMAP
6C00
1600
0000
0C00
0C00
0C00
1200
1200
1200
2100
2100
7F00
4080
4080
80C0
ENDCHAR
STARTCHAR uni0201
ENCODING 513
SWIDTH 602 0
DWIDTH 10 0
BBX 8 12 1 0
BITMAP
D8
2C
00
7C
42
02
02
3E
C2
82
86
7B
ENDCHAR
STARTCHAR uni0202
ENCODING 514
SWIDTH 602 0
DWIDTH 10 0
BBX 10 15 0 0
BITMAP
1E00
2100
0000
0C00
0C00
0C00
1200
1200
1200
2100
2100
7F00
4080
4080
80C0
ENDCHAR
STARTCHAR uni0203
ENCODING 515
SWIDTH 602 0
DWIDTH 10 0
BBX 8 12 1 0
BITMAP
3C
42
00
7C
42
02
02
3E
C2
82
86
7B
ENDCHAR
STARTCHAR uni0204
ENCODING 516
SWIDTH 602 0
DWIDTH 10 0
BBX 8 15 1 0
BITMAP
D8
2C
00
7F
40
40
40
40
7E
40
40
40
40
40
7F
ENDCHAR
STARTCHAR uni0205
ENCODING 517
SWIDTH 602 0
DWIDTH 10 0
BBX 8 12 1 0
BITMAP
D8
2C
00
3E
42
81
81
FF
80
80
41
3F
ENDCHAR
STARTCHAR uni0206
ENCODING 518
SWIDTH 602 0
DWIDTH 10 0
BBX 7 15 2 0
BITMAP
78
84
00
FE
80
80
80
80
FC
80
80
80
80
80
FE
ENDCHAR
STARTCHAR uni0207
ENCODING 519
SWIDTH 602 0
DWIDTH 10 0
BBX 8 12 1 0
BITMAP
3C
42
00
3E
42
81
81
FF
80
80
41
3F
ENDCHAR
STARTCHAR uni0208
ENCODING 520
SWIDTH 602 0
DWIDTH 10 0
BBX 7 15 2 0
BITMAP
D8
2C
00
FE
10
10
10
10
10
10
10
10
10
10
FE
ENDCHAR
STARTCHAR uni0209
ENCODING 521
SWIDTH 602 0
DWIDTH 10 0
BBX 6 12 1 0
BITMAP
D8
2C
00
78
08
08
08
08
08
08
08
08
ENDCHAR
STARTCHAR uni020A
ENCODING 522
SWIDTH 602 0
DWIDTH 10 0
BBX 7 15 2 0
BITMAP
3C
42
00
FE
10
10
10
10
10
10
10
10
10
10
FE
ENDCHAR
STARTCHAR uni020B
ENCODING 523
SWIDTH 602 0
DWIDTH 10 0
BBX 6 12 1 0
BITMAP
78
84
00
78
08
08
08
08
08
08
08
08
ENDCHAR
STARTCHAR uni020C
ENCODING 524
SWIDTH 602 0
DWIDTH 10 0
BBX 9 15 1 0
BITMAP
6C00
1600
0000
3E00
6300
4100
8080
8080
8080
8080
8080
8080
4100
6300
3E00
ENDCHAR
STARTCHAR uni020D
ENCODING 525
SWIDTH 602 0
DWIDTH 10 0
BBX 9 12 1 0
BITMAP
6C00
1600
0000
3E00
6300
C180
8080
8080
8080
C180
6300
3E00
ENDCHAR
STARTCHAR uni020E
ENCODING 526
SWIDTH 602 0
DWIDTH 10 0
BBX 9 15 1 0
BITMAP
1E00
2100
0000
3E00
6300
4100
8080
8080
8080
8080
8080
8080
4100
6300
3E00
ENDCHAR
STARTCHAR uni020F
ENCODING 527
SWIDTH 602 0
DWIDTH 10 0
BBX 9 12 1 0
BITMAP
1E00
2100
0000
3E00
6300
C180
8080
8080
8080
C180
6300
3E00
ENDCHAR
STARTCHAR uni0210
ENCODING 528
SWIDTH 602 0
DWIDTH 10 0
BBX 7 15 2 0
BITMAP
D8
2C
00
FC
86
82
82
82
8C
F8
88
8C
84
82
82
ENDCHAR
STARTCHAR uni0211
ENCODING 529
SWIDTH 602 0
DWIDTH 10 0
BBX 7 12 2 0
BITMAP
D8
2C
00
5E
62
40
40
40
40
40
40
40
ENDCHAR
STARTCHAR uni0212
ENCODING 530
SWIDTH 602 0
DWIDTH 10 0
BBX 7 15 2 0
BITMAP
78
84
00
FC
86
82
82
82
8C
F8
88
8C
84
82
82
ENDCHAR
STARTCHAR uni0213
ENCODING 531
SWIDTH 602 0
DWIDTH 10 0
BBX 6 12 3 0
BITMAP
78
84
00
BC
C4
80
80
80
80
80
80
80
ENDCHAR
STARTCHAR uni0214
ENCODING 532
SWIDTH 602 0
DWIDTH 10 0
BBX 8 15 1 0
BITMAP
D8
2C
00
81
81
81
81
81
81
81
81
81
81
C2
7C
ENDCHAR
STARTCHAR uni0215
ENCODING 533
SWIDTH 602 0
DWIDTH 10 0
BBX 7 12 2 0
BITMAP
D8
2C
00
82
82
82
82
82
82
82
86
7A
ENDCHAR
STARTCHAR uni0216
ENCODING 534
SWIDTH 602 0
DWIDTH 10 0
BBX 8 15 1 0
BITMAP
3C
42
00
81
81
81
81
81
81
81
81
81
81
C2
7C
ENDCHAR
STARTCHAR uni0217
ENCODING 535
SWIDTH 602 0
DWIDTH 10 0
BBX 7 12 2 0
BITMAP
3C
42
00
82
82
82
82
82
82
82
86
7A
ENDCHAR
STARTCHAR Scommaaccent
ENCODING 536
SWIDTH 602 0
DWIDTH 10 0
BBX 8 19 1 -7
BITMAP
3F
C1
80
80
40
38
06
03
01
01
82
7C
00
18
18
18
08
08
10
ENDCHAR
STARTCHAR scommaaccent
ENCODING 537
SWIDTH 602 0
DWIDTH 10 0
BBX 7 16 2 -7
BITMAP
7E
80
80
E0
38
06
02
86
FC
00
18
18
18
08
08
10
ENDCHAR
STARTCHAR Tcommaaccent
ENCODING 538
SWIDTH 602 0
DWIDTH 10 0
BBX 9 19 1 -7
BITMAP
FF80
0800
0800
0800
0800
0800
0800
0800
0800
0800
0800
0800
0000
0C00
0C00
0C00
0400
0400
0800
ENDCHAR
STARTCHAR tcommaaccent
ENCODING 539
SWIDTH 602 0
DWIDTH 10 0
BBX 7 18 2 -7
BITMAP
20
20
FE
20
20
20
20
20
20
20
1E
00
18
18
18
08
08
10
ENDCHAR
STARTCHAR uni021E
ENCODING 542
SWIDTH 602 0
DWIDTH 10 0
BBX 8 15 1 0
BITMAP
66
3C
00
81
81
81
81
81
FF
81
81
81
81
81
81
ENDCHAR
STARTCHAR uni021F
ENCODING 543
SWIDTH 602 0
DWIDTH 10 0
BBX 7 15 2 0
BITMAP
CC
78
00
80
80
80
BC
C2
82
82
82
82
82
82
82
ENDCHAR
STARTCHAR uni0226
ENCODING 550
SWIDTH 602 0
DWIDTH 10 0
BBX 10 14 0 0
BITMAP
0C00
0000
0C00
0C00
0C00
1200
1200
1200
2100
2100
7F00
4080
4080
80C0
ENDCHAR
STARTCHAR uni0227
ENCODING 551
SWIDTH 602 0
DWIDTH 10 0
BBX 8 11 1 0
BITMAP
18
00
7C
42
02
02
3E
C2
82
86
7B
ENDCHAR
STARTCHAR uni0228
ENCODING 552
SWIDTH 602 0
DWIDTH 10 0
BBX 7 15 2 -3
BITMAP
FE
80
80
80
80
FC
80
80
80
80
80
FE
30
08
38
ENDCHAR
STARTCHAR uni0229
ENCODING 553
SWIDTH 602 0
DWIDTH 10 0
BBX 8 12 1 -3
BITMAP
3E
42
81
81
FF
80
80
41
3F
18
04
1C
ENDCHAR
STARTCHAR uni022A
ENCODING 554
SWIDTH 602 0
DWIDTH 10 0
BBX 9 16 1 0
BITMAP
3E00
0000
2600
0000
3E00
6300
4100
8080
8080
8080
8080
8080
8080
4100
6300
3E00
ENDCHAR
STARTCHAR uni022B
ENCODING 555
SWIDTH 602 0
DWIDTH 10 0
BBX 9 13 1 0
BITMAP
3E00
0000
2600
0000
3E00
6300
C180
8080
8080
8080
C180
6300
3E00
ENDCHAR
STARTCHAR uni022C
ENCODING 556
SWIDTH 602 0
DWIDTH 10 0
BBX 9 16 1 0
BITMAP
3E00
0000
7E00
0000
3E00
6300
4100
8080
8080
8080
8080
8080
8080
4100
6300
3E00
ENDCHAR
STARTCHAR uni022D
ENCODING 557
SWIDTH 602 0
DWIDTH 10 0
BBX 9 13 1 0
BITMAP
3E00
0000
7E00
0000
3E00
6300
C180
8080
8080
8080
C180
6300
3E00
ENDCHAR
STARTCHAR uni022E
ENCODING 558
SWIDTH 602 0
DWIDTH 10 0
BBX 9 14 1 0
BITMAP
0C00
0000
3E00
6300
4100
8080
8080
8080
8080
8080
8080
4100
6300
3E00
ENDCHAR
STARTCHAR uni022F
ENCODING 559
SWIDTH 602 0
DWIDTH 10 0
BBX 9 11 1 0
BITMAP
0C00
0000
3E00
6300
C180
8080
8080
8080
C180
6300
3E00
ENDCHAR
STARTCHAR uni0230
ENCODING 560
SWIDTH 602 0
DWIDTH 10 0
BBX 9 16 1 0
BITMAP
3E00
0000
0C00
0000
3E00
6300
4100
8080
8080
8080
8080
8080
8080
4100
6300
3E00
ENDCHAR
STARTCHAR uni0231
ENCODING 561
SWIDTH 602 0
DWIDTH 10 0
BBX 9 13 1 0
BITMAP
3E00
0000
0C00
0000
3E00
6300
C180
8080
8080
8080
C180
6300
3E00
ENDCHAR
STARTCHAR uni0232
ENCODING 562
SWIDTH 602 0
DWIDTH 10 0
BBX 9 14 1 0
BITMAP
3E00
0000
C180
4100
2200
2200
1400
1400
0800
0800
0800
0800
0800
0800
ENDCHAR
STARTCHAR uni0233
ENCODING 563
SWIDTH 602 0
DWIDTH 10 0
BBX 9 14 1 -3
BITMAP
3E00
0000
C080
4100
4100
2200
2200
1400
1400
0800
0800
1800
1000
E000
ENDCHAR
STARTCHAR uni0250
ENCODING 592
SWIDTH 602 0
DWIDTH 10 0
BBX 8 9 1 0
BITMAP
DE
61
41
43
7C
40
40
42
3E
ENDCHAR
STARTCHAR uni0254
ENCODING 596
SWIDTH 602 0
DWIDTH 10 0
BBX 7 9 2 0
BITMAP
F8
84
02
02
02
02
06
84
F8
ENDCHAR
STARTCHAR uni0258
ENCODING 600
SWIDTH 602 0
DWIDTH 10 0
BBX 8 9 1 0
BITMAP
7C
42
81
81
FF
01
01
82
FC
ENDCHAR
STARTCHAR uni0259
ENCODING 601
SWIDTH 602 0
DWIDTH 10 0
BBX 8 9 1 0
BITMAP
FC
82
01
01
FF
81
81
42
7C
ENDCHAR
STARTCHAR uni025F
ENCODING 607
SWIDTH 602 0
DWIDTH 10 0
BBX 8 13 2 -4
BITMAP
04
04
04
04
04
04
04
04
FF
04
04
04
F8
ENDCHAR
STARTCHAR uni0265
ENCODING 613
SWIDTH 602 0
DWIDTH 10 0
BBX 7 12 2 -3
BITMAP
82
82
82
82
82
82
82
86
7A
02
02
02
ENDCHAR
STARTCHAR uni0275
ENCODING 629
SWIDTH 602 0
DWIDTH 10 0
BBX 9 9 1 0
BITMAP
3E00
6300
C180
8080
FF80
8080
C180
6300
3E00
ENDCHAR
STARTCHAR uni0279
ENCODING 633
SWIDTH 602 0
DWIDTH 10 0
BBX 6 9 3 0
BITMAP
04
04
04
04
04
04
04
8C
F4
ENDCHAR
STARTCHAR uni0287
ENCODING 647
SWIDTH 602 0
DWIDTH 10 0
BBX 7 11 2 0
BITMAP
F0
08
08
08
08
08
08
08
FE
08
08
ENDCHAR
STARTCHAR uni0288
ENCODING 648
SWIDTH 602 0
DWIDTH 10 0
BBX 7 14 2 -3
BITMAP
20
20
FE
20
20
20
20
20
20
20
20
20
22
1E
ENDCHAR
STARTCHAR uni0289
ENCODING 649
SWIDTH 602 0
DWIDTH 10 0
BBX 7 9 2 0
BITMAP
82
82
82
82
FE
82
82
86
7A
ENDCHAR
STARTCHAR uni028C
ENCODING 652
SWIDTH 602 0
DWIDTH 10 0
BBX 9 9 1 0
BITMAP
0800
1400
1400
3400
2200
2200
4100
4100
8180
ENDCHAR
STARTCHAR uni028D
ENCODING 653
SWIDTH 602 0
DWIDTH 10 0
BBX 10 9 0 0
BITMAP
3180
3180
5280
5280
5280
4A80
4C40
8C40
8040
ENDCHAR
STARTCHAR uni028E
ENCODING 654
SWIDTH 602 0
DWIDTH 10 0
BBX 9 12 1 0
BITMAP
0380
0400
0C00
0800
0800
1400
1400
2200
2200
4100
4100
8180
ENDCHAR
STARTCHAR uni029E
ENCODING 670
SWIDTH 602 0
DWIDTH 10 0
BBX 7 12 2 -3
BITMAP
C2
22
32
1A
0E
0A
12
32
62
02
02
02
ENDCHAR
STARTCHAR uni02BB
ENCODING 699
SWIDTH 602 0
DWIDTH 10 0
BBX 2 4 4 8
BITMAP
C0
80
C0
C0
ENDCHAR
STARTCHAR afii57929
ENCODING 700
SWIDTH 602 0
DWIDTH 10 0
BBX 2 4 4 8
BITMAP
C0
C0
40
C0
ENDCHAR
STARTCHAR afii64937
ENCODING 701
SWIDTH 602 0
DWIDTH 10 0
BBX 2 4 4 8
BITMAP
C0
C0
80
C0
ENDCHAR
STARTCHAR circumflex
ENCODING 710
SWIDTH 602 0
DWIDTH 10 0
BBX 6 2 2 10
BITMAP
78
CC
ENDCHAR
STARTCHAR caron
ENCODING 711
SWIDTH 602 0
DWIDTH 10 0
BBX 6 2 2 10
BITMAP
CC
78
ENDCHAR
STARTCHAR uni02C8
ENCODING 712
SWIDTH 602 0
DWIDTH 10 0
BBX 3 4 4 8
BITMAP
E0
E0
40
40
ENDCHAR
STARTCHAR macron
ENCODING 713
SWIDTH 602 0
DWIDTH 10 0
BBX 5 1 3 11
BITMAP
F8
ENDCHAR
STARTCHAR uni02CA
ENCODING 714
SWIDTH 602 0
DWIDTH 10 0
BBX 4 2 3 10
BITMAP
70
C0
ENDCHAR
STARTCHAR uni02CB
ENCODING 715
SWIDTH 602 0
DWIDTH 10 0
BBX 4 2 3 10
BITMAP
E0
30
ENDCHAR
STARTCHAR uni02CD
ENCODING 717
SWIDTH 602 0
DWIDTH 10 0
BBX 5 1 3 -2
BITMAP
F8
ENDCHAR
STARTCHAR uni02CE
ENCODING 718
SWIDTH 602 0
DWIDTH 10 0
BBX 4 2 3 -3
BITMAP
E0
30
ENDCHAR
STARTCHAR uni02CF
ENCODING 719
SWIDTH 602 0
DWIDTH 10 0
BBX 4 2 3 -3
BITMAP
70
C0
ENDCHAR
STARTCHAR breve
ENCODING 728
SWIDTH 602 0
DWIDTH 10 0
BBX 6 2 2 10
BITMAP
84
78
ENDCHAR
STARTCHAR dotaccent
ENCODING 729
SWIDTH 602 0
DWIDTH 10 0
BBX 2 1 4 11
BITMAP
C0
ENDCHAR
STARTCHAR ring
ENCODING 730
SWIDTH 602 0
DWIDTH 10 0
BBX 3 2 4 11
BITMAP
E0
E0
ENDCHAR
STARTCHAR ogonek
ENCODING 731
SWIDTH 602 0
DWIDTH 10 0
BBX 3 3 3 -3
BITMAP
40
80
E0
ENDCHAR
STARTCHAR tilde
ENCODING 732
SWIDTH 602 0
DWIDTH 10 0
BBX 6 1 2 11
BITMAP
FC
ENDCHAR
STARTCHAR hungarumlaut
ENCODING 733
SWIDTH 602 0
DWIDTH 10 0
BBX 6 2 2 10
BITMAP
6C
D0
ENDCHAR
STARTCHAR uni02EE
ENCODING 750
SWIDTH 602 0
DWIDTH 10 0
BBX 6 4 2 8
BITMAP
84
84
84
84
ENDCHAR
STARTCHAR uni037E
ENCODING 894
SWIDTH 602 0
DWIDTH 10 0
BBX 2 12 4 -3
BITMAP
C0
C0
00
00
00
00
00
C0
C0
40
40
80
ENDCHAR
STARTCHAR tonos
ENCODING 900
SWIDTH 602 0
DWIDTH 10 0
BBX 4 2 3 10
BITMAP
70
C0
ENDCHAR
STARTCHAR dieresistonos
ENCODING 901
SWIDTH 602 0
DWIDTH 10 0
BBX 5 4 3 11
BITMAP
38
60
00
98
ENDCHAR
STARTCHAR anoteleia
ENCODING 903
SWIDTH 602 0
DWIDTH 10 0
BBX 2 1 4 5
BITMAP
C0
ENDCHAR
STARTCHAR mu
ENCODING 956
SWIDTH 602 0
DWIDTH 10 0
BBX 7 11 2 -2
BITMAP
82
82
82
82
82
82
82
8E
FA
80
80
ENDCHAR
STARTCHAR uni1E00
ENCODING 7680
SWIDTH 602 0
DWIDTH 10 0
BBX 10 15 0 -3
BITMAP
0C00
0C00
0C00
1200
1200
1200
2100
2100
7F00
4080
4080
80C0
0000
0E00
0E00
ENDCHAR
STARTCHAR uni1E01
ENCODING 7681
SWIDTH 602 0
DWIDTH 10 0
BBX 8 12 1 -3
BITMAP
7C
42
02
02
3E
C2
82
86
7B
00
1C
1C
ENDCHAR
STARTCHAR uni1E02
ENCODING 7682
SWIDTH 602 0
DWIDTH 10 0
BBX 8 14 1 0
BITMAP
18
00
FE
83
81
81
87
FC
86
83
81
81
83
FE
ENDCHAR
STARTCHAR uni1E03
ENCODING 7683
SWIDTH 602 0
DWIDTH 10 0
BBX 8 14 1 0
BITMAP
30
00
80
80
80
BC
E2
81
81
81
81
83
C2
BC
ENDCHAR
STARTCHAR uni1E04
ENCODING 7684
SWIDTH 602 0
DWIDTH 10 0
BBX 8 14 1 -2
BITMAP
FE
83
81
81
87
FC
86
83
81
81
83
FE
00
18
ENDCHAR
STARTCHAR uni1E05
ENCODING 7685
SWIDTH 602 0
DWIDTH 10 0
BBX 8 14 1 -2
BITMAP
80
80
80
BC
E2
81
81
81
81
83
C2
BC
00
18
ENDCHAR
STARTCHAR uni1E06
ENCODING 7686
SWIDTH 602 0
DWIDTH 10 0
BBX 8 14 1 -2
BITMAP
FE
83
81
81
87
FC
86
83
81
81
83
FE
00
7C
ENDCHAR
STARTCHAR uni1E07
ENCODING 7687
SWIDTH 602 0
DWIDTH 10 0
BBX 8 14 1 -2
BITMAP
80
80
80
BC
E2
81
81
81
81
83
C2
BC
00
7C
ENDCHAR
STARTCHAR uni1E08
ENCODING 7688
SWIDTH 602 0
DWIDTH 10 0
BBX 9 18 1 -3
BITMAP
0E00
1800
0000
1F80
2080
4000
C000
8000
8000
8000
8000
C000
4000
3080
1F80
0800
0400
1C00
ENDCHAR
STARTCHAR uni1E09
ENCODING 7689
SWIDTH 602 0
DWIDTH 10 0
BBX 7 15 2 -3
BITMAP
1C
30
00
3E
42
80
80
80
80
C0
42
3E
10
08
38
ENDCHAR
STARTCHAR uni1E0A
ENCODING 7690
SWIDTH 602 0
DWIDTH 10 0
BBX 9 14 1 0
BITMAP
1800
0000
FE00
8300
8180
8080
8080
8080
8080
8080
8080
8100
8300
FC00
ENDCHAR
STARTCHAR uni1E0B
ENCODING 7691
SWIDTH 602 0
DWIDTH 10 0
BBX 8 14 1 0
BITMAP
0C
00
01
01
01
3D
43
C1
81
81
81
81
47
3D
ENDCHAR
STARTCHAR uni1E0C
ENCODING 7692
SWIDTH 602 0
DWIDTH 10 0
BBX 9 14 1 -2
BITMAP
FE00
8300
8180
8080
8080
8080
8080
8080
8080
8100
8300
FC00
0000
1800
ENDCHAR
STARTCHAR uni1E0D
ENCODING 7693
SWIDTH 602 0
DWIDTH 10 0
BBX 8 14 1 -2
BITMAP
01
01
01
3D
43
C1
81
81
81
81
47
3D
00
18
ENDCHAR
STARTCHAR uni1E0E
ENCODING 7694
SWIDTH 602 0
DWIDTH 10 0
BBX 9 14 1 -2
BITMAP
FE00
8300
8180
8080
8080
8080
8080
8080
8080
8100
8300
FC00
0000
3E00
ENDCHAR
STARTCHAR uni1E0F
ENCODING 7695
SWIDTH 602 0
DWIDTH 10 0
BBX 8 14 1 -2
BITMAP
01
01
01
3D
43
C1
81
81
81
81
47
3D
00
3E
ENDCHAR
STARTCHAR uni1E10
ENCODING 7696
SWIDTH 602 0
DWIDTH 10 0
BBX 9 15 1 -3
BITMAP
FE00
8300
8180
8080
8080
8080
8080
8080
8080
8100
8300
FC00
1800
0400
1C00
ENDCHAR
STARTCHAR uni1E11
ENCODING 7697
SWIDTH 602 0
DWIDTH 10 0
BBX 8 15 1 -3
BITMAP
01
01
01
3D
43
C1
81
81
81
81
47
3D
18
04
1C
ENDCHAR
STARTCHAR uni1E12
ENCODING 7698
SWIDTH 602 0
DWIDTH 10 0
BBX 9 15 1 -3
BITMAP
FE00
8300
8180
8080
8080
8080
8080
8080
8080
8100
8300
FC00
0000
3C00
6600
ENDCHAR
STARTCHAR uni1E13
ENCODING 7699
SWIDTH 602 0
DWIDTH 10 0
BBX 8 15 1 -3
BITMAP
01
01
01
3D
43
C1
81
81
81
81
47
3D
00
3C
66
ENDCHAR
STARTCHAR uni1E14
ENCODING 7700
SWIDTH 602 0
DWIDTH 10 0
BBX 7 17 2 0
BITMAP
E0
30
00
F8
00
FE
80
80
80
80
FC
80
80
80
80
80
FE
ENDCHAR
STARTCHAR uni1E15
ENCODING 7701
SWIDTH 602 0
DWIDTH 10 0
BBX 8 14 1 0
BITMAP
38
0C
00
3E
00
3E
42
81
81
FF
80
80
41
3F
ENDCHAR
STARTCHAR uni1E16
ENCODING 7702
SWIDTH 602 0
DWIDTH 10 0
BBX 7 17 2 0
BITMAP
1C
30
00
F8
00
FE
80
80
80
80
FC
80
80
80
80
80
FE
ENDCHAR
STARTCHAR uni1E17
ENCODING 7703
SWIDTH 602 0
DWIDTH 10 0
BBX 8 14 1 0
BITMAP
0E
18
00
3E
00
3E
42
81
81
FF
80
80
41
3F
ENDCHAR
STARTCHAR uni1E18
ENCODING 7704
SWIDTH 602 0
DWIDTH 10 0
BBX 7 15 2 -3
BITMAP
FE
80
80
80
80
FC
80
80
80
80
80
FE
00
78
CC
ENDCHAR
STARTCHAR uni1E19
ENCODING 7705
SWIDTH 602 0
DWIDTH 10 0
BBX 8 12 1 -3
BITMAP
3E
42
81
81
FF
80
80
41
3F
00
3C
66
ENDCHAR
STARTCHAR uni1E1A
ENCODING 7706
SWIDTH 602 0
DWIDTH 10 0
BBX 7 14 2 -2
BITMAP
FE
80
80
80
80
FC
80
80
80
80
80
FE
00
FC
ENDCHAR
STARTCHAR uni1E1B
ENCODING 7707
SWIDTH 602 0
DWIDTH 10 0
BBX 8 11 1 -2
BITMAP
3E
42
81
81
FF
80
80
41
3F
00
7E
ENDCHAR
STARTCHAR uni1E1C
ENCODING 7708
SWIDTH 602 0
DWIDTH 10 0
BBX 7 18 2 -3
BITMAP
84
78
00
FE
80
80
80
80
FC
80
80
80
80
80
FE
30
08
38
ENDCHAR
STARTCHAR uni1E1D
ENCODING 7709
SWIDTH 602 0
DWIDTH 10 0
BBX 8 15 1 -3
BITMAP
42
3C
00
3E
42
81
81
FF
80
80
41
3F
18
04
1C
ENDCHAR
STARTCHAR uni1E1E
ENCODING 7710
SWIDTH 602 0
DWIDTH 10 0
BBX 7 14 2 0
BITMAP
30
00
FE
80
80
80
80
80
FC
80
80
80
80
80
ENDCHAR
STARTCHAR uni1E1F
ENCODING 7711
SWIDTH 602 0
DWIDTH 10 0
BBX 8 15 2 0
BITMAP
18
00
1F
20
20
20
FF
20
20
20
20
20
20
20
20
ENDCHAR
STARTCHAR uni1E20
ENCODING 7712
SWIDTH 602 0
DWIDTH 10 0
BBX 9 14 0 0
BITMAP
3E00
0000
1F80
2080
4000
8000
8000
8000
8000
8080
C080
4080
3080
1F80
ENDCHAR
STARTCHAR uni1E21
ENCODING 7713
SWIDTH 602 0
DWIDTH 10 0
BBX 8 14 1 -3
BITMAP
3E
00
3D
43
81
81
81
81
81
47
3D
01
41
7E
ENDCHAR
STARTCHAR uni1E22
ENCODING 7714
SWIDTH 602 0
DWIDTH 10 0
BBX 8 14 1 0
BITMAP
18
00
81
81
81
81
81
FF
81
81
81
81
81
81
ENDCHAR
STARTCHAR uni1E23
ENCODING 7715
SWIDTH 602 0
DWIDTH 10 0
BBX 7 14 2 0
BITMAP
30
00
80
80
80
BC
C2
82
82
82
82
82
82
82
ENDCHAR
STARTCHAR uni1E24
ENCODING 7716
SWIDTH 602 0
DWIDTH 10 0
BBX 8 14 1 -2
BITMAP
81
81
81
81
81
FF
81
81
81
81
81
81
00
18
ENDCHAR
STARTCHAR uni1E25
ENCODING 7717
SWIDTH 602 0
DWIDTH 10 0
BBX 7 14 2 -2
BITMAP
80
80
80
BC
C2
82
82
82
82
82
82
82
00
18
ENDCHAR
STARTCHAR uni1E26
ENCODING 7718
SWIDTH 602 0
DWIDTH 10 0
BBX 8 14 1 0
BITMAP
4C
00
81
81
81
81
81
FF
81
81
81
81
81
81
ENDCHAR
STARTCHAR uni1E27
ENCODING 7719
SWIDTH 602 0
DWIDTH 10 0
BBX 7 14 2 0
BITMAP
98
00
80
80
80
BC
C2
82
82
82
82
82
82
82
ENDCHAR
STARTCHAR uni1E28
ENCODING 7720
SWIDTH 602 0
DWIDTH 10 0
BBX 8 15 1 -3
BITMAP
81
81
81
81
81
FF
81
81
81
81
81
81
18
04
1C
ENDCHAR
STARTCHAR uni1E29
ENCODING 7721
SWIDTH 602 0
DWIDTH 10 0
BBX 7 15 2 -3
BITMAP
80
80
80
BC
C2
82
82
82
82
82
82
82
30
08
38
ENDCHAR
STARTCHAR uni1E2A
ENCODING 7722
SWIDTH 602 0
DWIDTH 10 0
BBX 8 15 1 -3
BITMAP
81
81
81
81
81
FF
81
81
81
81
81
81
00
42
3C
ENDCHAR
STARTCHAR uni1E2B
ENCODING 7723
SWIDTH 602 0
DWIDTH 10 0
BBX 7 15 2 -3
BITMAP
80
80
80
BC
C2
82
82
82
82
82
82
82
00
42
3C
ENDCHAR
STARTCHAR uni1E2C
ENCODING 7724
SWIDTH 602 0
DWIDTH 10 0
BBX 7 14 2 -2
BITMAP
FE
10
10
10
10
10
10
10
10
10
10
FE
00
7E
ENDCHAR
STARTCHAR uni1E2D
ENCODING 7725
SWIDTH 602 0
DWIDTH 10 0
BBX 6 14 2 -2
BITMAP
10
00
00
F0
10
10
10
10
10
10
10
10
00
FC
ENDCHAR
STARTCHAR uni1E2E
ENCODING 7726
SWIDTH 602 0
DWIDTH 10 0
BBX 7 17 2 0
BITMAP
1C
30
00
4C
00
FE
10
10
10
10
10
10
10
10
10
10
FE
ENDCHAR
STARTCHAR uni1E2F
ENCODING 7727
SWIDTH 602 0
DWIDTH 10 0
BBX 6 14 2 0
BITMAP
1C
30
00
4C
00
F0
10
10
10
10
10
10
10
10
ENDCHAR
STARTCHAR uni1E30
ENCODING 7728
SWIDTH 602 0
DWIDTH 10 0
BBX 9 15 1 0
BITMAP
0E00
1800
0000
8300
8600
8C00
9800
9000
A000
E000
9000
8800
8400
8200
8180
ENDCHAR
STARTCHAR uni1E31
ENCODING 7729
SWIDTH 602 0
DWIDTH 10 0
BBX 7 15 2 0
BITMAP
38
60
00
80
80
80
8C
98
90
A0
E0
B0
98
88
86
ENDCHAR
STARTCHAR uni1E32
ENCODING 7730
SWIDTH 602 0
DWIDTH 10 0
BBX 9 14 1 -2
BITMAP
8300
8600
8C00
9800
9000
A000
E000
9000
8800
8400
8200
8180
0000
1800
ENDCHAR
STARTCHAR uni1E33
ENCODING 7731
SWIDTH 602 0
DWIDTH 10 0
BBX 7 14 2 -2
BITMAP
80
80
80
8C
98
90
A0
E0
B0
98
88
86
00
30
ENDCHAR
STARTCHAR uni1E34
ENCODING 7732
SWIDTH 602 0
DWIDTH 10 0
BBX 9 14 1 -2
BITMAP
8300
8600
8C00
9800
9000
A000
E000
9000
8800
8400
8200
8180
0000
3E00
ENDCHAR
STARTCHAR uni1E35
ENCODING 7733
SWIDTH 602 0
DWIDTH 10 0
BBX 7 14 2 -2
BITMAP
80
80
80
8C
98
90
A0
E0
B0
98
88
86
00
7C
ENDCHAR
STARTCHAR uni1E36
ENCODING 7734
SWIDTH 602 0
DWIDTH 10 0
BBX 7 14 2 -2
BITMAP
80
80
80
80
80
80
80
80
80
80
80
FE
00
30
ENDCHAR
STARTCHAR uni1E37
ENCODING 7735
SWIDTH 602 0
DWIDTH 10 0
BBX 4 14 2 -2
BITMAP
F0
10
10
10
10
10
10
10
10
10
10
10
00
30
ENDCHAR
STARTCHAR uni1E38
ENCODING 7736
SWIDTH 602 0
DWIDTH 10 0
BBX 8 16 1 -2
BITMAP
F8
00
40
40
40
40
40
40
40
40
40
40
40
7F
00
18
ENDCHAR
STARTCHAR uni1E39
ENCODING 7737
SWIDTH 602 0
DWIDTH 10 0
BBX 5 16 2 -2
BITMAP
F8
00
F0
10
10
10
10
10
10
10
10
10
10
10
00
30
ENDCHAR
STARTCHAR uni1E3A
ENCODING 7738
SWIDTH 602 0
DWIDTH 10 0
BBX 7 14 2 -2
BITMAP
80
80
80
80
80
80
80
80
80
80
80
FE
00
F8
ENDCHAR
STARTCHAR uni1E3B
ENCODING 7739
SWIDTH 602 0
DWIDTH 10 0
BBX 6 14 2 -2
BITMAP
F0
10
10
10
10
10
10
10
10
10
10
10
00
7C
ENDCHAR
STARTCHAR uni1E3C
ENCODING 7740
SWIDTH 602 0
DWIDTH 10 0
BBX 7 15 2 -3
BITMAP
80
80
80
80
80
80
80
80
80
80
80
FE
00
78
CC
ENDCHAR
STARTCHAR uni1E3D
ENCODING 7741
SWIDTH 602 0
DWIDTH 10 0
BBX 6 15 2 -3
BITMAP
F0
10
10
10
10
10
10
10
10
10
10
10
00
78
CC
ENDCHAR
STARTCHAR uni1E3E
ENCODING 7742
SWIDTH 602 0
DWIDTH 10 0
BBX 9 15 1 0
BITMAP
0E00
1800
0000
C180
C180
E380
A280
A280
A280
9480
9480
9480
9480
8880
8080
ENDCHAR
STARTCHAR uni1E3F
ENCODING 7743
SWIDTH 602 0
DWIDTH 10 0
BBX 9 12 1 0
BITMAP
0E00
1800
0000
B380
CC80
8880
8880
8880
8880
8880
8880
8880
ENDCHAR
STARTCHAR uni1E40
ENCODING 7744
SWIDTH 602 0
DWIDTH 10 0
BBX 9 14 1 0
BITMAP
0C00
0000
C180
C180
E380
A280
A280
A280
9480
9480
9480
9480
8880
8080
ENDCHAR
STARTCHAR uni1E41
ENCODING 7745
SWIDTH 602 0
DWIDTH 10 0
BBX 9 11 1 0
BITMAP
0C00
0000
B380
CC80
8880
8880
8880
8880
8880
8880
8880
ENDCHAR
STARTCHAR uni1E42
ENCODING 7746
SWIDTH 602 0
DWIDTH 10 0
BBX 9 14 1 -2
BITMAP
C180
C180
E380
A280
A280
A280
9480
9480
9480
9480
8880
8080
0000
0C00
ENDCHAR
STARTCHAR uni1E43
ENCODING 7747
SWIDTH 602 0
DWIDTH 10 0
BBX 9 11 1 -2
BITMAP
B380
CC80
8880
8880
8880
8880
8880
8880
8880
0000
0C00
ENDCHAR
STARTCHAR uni1E44
ENCODING 7748
SWIDTH 602 0
DWIDTH 10 0
BBX 8 14 1 0
BITMAP
18
00
81
C1
E1
A1
91
91
89
89
85
83
83
81
ENDCHAR
STARTCHAR uni1E45
ENCODING 7749
SWIDTH 602 0
DWIDTH 10 0
BBX 7 11 2 0
BITMAP
30
00
BC
C2
82
82
82
82
82
82
82
ENDCHAR
STARTCHAR uni1E46
ENCODING 7750
SWIDTH 602 0
DWIDTH 10 0
BBX 8 14 1 -2
BITMAP
81
C1
E1
A1
91
91
89
89
85
83
83
81
00
18
ENDCHAR
STARTCHAR uni1E47
ENCODING 7751
SWIDTH 602 0
DWIDTH 10 0
BBX 7 11 2 -2
BITMAP
BC
C2
82
82
82
82
82
82
82
00
18
ENDCHAR
STARTCHAR uni1E48
ENCODING 7752
SWIDTH 602 0
DWIDTH 10 0
BBX 8 14 1 -2
BITMAP
81
C1
E1
A1
91
91
89
89
85
83
83
81
00
3E
ENDCHAR
STARTCHAR uni1E49
ENCODING 7753
SWIDTH 602 0
DWIDTH 10 0
BBX 7 11 2 -2
BITMAP
BC
C2
82
82
82
82
82
82
82
00
7C
ENDCHAR
STARTCHAR uni1E4A
ENCODING 7754
SWIDTH 602 0
DWIDTH 10 0
BBX 8 15 1 -3
BITMAP
81
C1
E1
A1
91
91
89
89
85
83
83
81
00
3C
66
ENDCHAR
STARTCHAR uni1E4B
ENCODING 7755
SWIDTH 602 0
DWIDTH 10 0
BBX 7 12 2 -3
BITMAP
BC
C2
82
82
82
82
82
82
82
00
3C
66
ENDCHAR
STARTCHAR uni1E4C
ENCODING 7756
SWIDTH 602 0
DWIDTH 10 0
BBX 9 17 1 0
BITMAP
0E00
1800
0000
7E00
0000
3E00
6300
4100
8080
8080
8080
8080
8080
8080
4100
6300
3E00
ENDCHAR
STARTCHAR uni1E4D
ENCODING 7757
SWIDTH 602 0
DWIDTH 10 0
BBX 9 14 1 0
BITMAP
0E00
1800
0000
7E00
0000
3E00
6300
C180
8080
8080
8080
C180
6300
3E00
ENDCHAR
STARTCHAR uni1E4E
ENCODING 7758
SWIDTH 602 0
DWIDTH 10 0
BBX 9 16 1 0
BITMAP
2600
0000
7E00
0000
3E00
6300
4100
8080
8080
8080
8080
8080
8080
4100
6300
3E00
ENDCHAR
STARTCHAR uni1E4F
ENCODING 7759
SWIDTH 602 0
DWIDTH 10 0
BBX 9 13 1 0
BITMAP
2600
0000
7E00
0000
3E00
6300
C180
8080
8080
8080
C180
6300
3E00
ENDCHAR
STARTCHAR uni1E50
ENCODING 7760
SWIDTH 602 0
DWIDTH 10 0
BBX 9 17 1 0
BITMAP
3800
0C00
0000
3E00
0000
3E00
6300
4100
8080
8080
8080
8080
8080
8080
4100
6300
3E00
ENDCHAR
STARTCHAR uni1E51
ENCODING 7761
SWIDTH 602 0
DWIDTH 10 0
BBX 9 14 1 0
BITMAP
3800
0C00
0000
3E00
0000
3E00
6300
C180
8080
8080
8080
C180
6300
3E00
ENDCHAR
STARTCHAR uni1E52
ENCODING 7762
SWIDTH 602 0
DWIDTH 10 0
BBX 9 17 1 0
BITMAP
0E00
1800
0000
3E00
0000
3E00
6300
4100
8080
8080
8080
8080
8080
8080
4100
6300
3E00
ENDCHAR
STARTCHAR uni1E53
ENCODING 7763
SWIDTH 602 0
DWIDTH 10 0
BBX 9 14 1 0
BITMAP
0E00
1800
0000
3E00
0000
3E00
6300
C180
8080
8080
8080
C180
6300
3E00
ENDCHAR
STARTCHAR uni1E54
ENCODING 7764
SWIDTH 602 0
DWIDTH 10 0
BBX 8 15 2 0
BITMAP
0E
18
00
FE
83
81
81
81
82
FC
80
80
80
80
80
ENDCHAR
STARTCHAR uni1E55
ENCODING 7765
SWIDTH 602 0
DWIDTH 10 0
BBX 8 15 1 -3
BITMAP
1C
30
00
BC
E2
81
81
81
81
83
C2
BC
80
80
80
ENDCHAR
STARTCHAR uni1E56
ENCODING 7766
SWIDTH 602 0
DWIDTH 10 0
BBX 8 14 2 0
BITMAP
18
00
FE
83
81
81
81
82
FC
80
80
80
80
80
ENDCHAR
STARTCHAR uni1E57
ENCODING 7767
SWIDTH 602 0
DWIDTH 10 0
BBX 8 14 1 -3
BITMAP
18
00
BC
E2
81
81
81
81
83
C2
BC
80
80
80
ENDCHAR
STARTCHAR uni1E58
ENCODING 7768
SWIDTH 602 0
DWIDTH 10 0
BBX 7 14 2 0
BITMAP
30
00
FC
86
82
82
82
8C
F8
88
8C
84
82
82
ENDCHAR
STARTCHAR uni1E59
ENCODING 7769
SWIDTH 602 0
DWIDTH 10 0
BBX 6 11 3 0
BITMAP
30
00
BC
C4
80
80
80
80
80
80
80
ENDCHAR
STARTCHAR uni1E5A
ENCODING 7770
SWIDTH 602 0
DWIDTH 10 0
BBX 7 14 2 -2
BITMAP
FC
86
82
82
82
8C
F8
88
8C
84
82
82
00
30
ENDCHAR
STARTCHAR uni1E5B
ENCODING 7771
SWIDTH 602 0
DWIDTH 10 0
BBX 6 11 3 -2
BITMAP
BC
C4
80
80
80
80
80
80
80
00
C0
ENDCHAR
STARTCHAR uni1E5C
ENCODING 7772
SWIDTH 602 0
DWIDTH 10 0
BBX 7 16 2 -2
BITMAP
7C
00
FC
86
82
82
82
8C
F8
88
8C
84
82
82
00
30
ENDCHAR
STARTCHAR uni1E5D
ENCODING 7773
SWIDTH 602 0
DWIDTH 10 0
BBX 6 13 3 -2
BITMAP
F8
00
BC
C4
80
80
80
80
80
80
80
00
C0
ENDCHAR
STARTCHAR uni1E5E
ENCODING 7774
SWIDTH 602 0
DWIDTH 10 0
BBX 7 14 2 -2
BITMAP
FC
86
82
82
82
8C
F8
88
8C
84
82
82
00
7C
ENDCHAR
STARTCHAR uni1E5F
ENCODING 7775
SWIDTH 602 0
DWIDTH 10 0
BBX 7 11 2 -2
BITMAP
5E
62
40
40
40
40
40
40
40
00
F8
ENDCHAR
STARTCHAR uni1E60
ENCODING 7776
SWIDTH 602 0
DWIDTH 10 0
BBX 8 14 1 0
BITMAP
18
00
3F
C1
80
80
40
38
06
03
01
01
82
7C
ENDCHAR
STARTCHAR uni1E61
ENCODING 7777
SWIDTH 602 0
DWIDTH 10 0
BBX 7 11 2 0
BITMAP
30
00
7E
80
80
E0
38
06
02
86
FC
ENDCHAR
STARTCHAR uni1E62
ENCODING 7778
SWIDTH 602 0
DWIDTH 10 0
BBX 8 14 1 -2
BITMAP
3F
C1
80
80
40
38
06
03
01
01
82
7C
00
18
ENDCHAR
STARTCHAR uni1E63
ENCODING 7779
SWIDTH 602 0
DWIDTH 10 0
BBX 7 11 2 -2
BITMAP
7E
80
80
E0
38
06
02
86
FC
00
18
ENDCHAR
STARTCHAR uni1E64
ENCODING 7780
SWIDTH 602 0
DWIDTH 10 0
BBX 8 17 1 0
BITMAP
18
00
1C
30
00
3F
C1
80
80
40
38
06
03
01
01
82
7C
ENDCHAR
STARTCHAR uni1E65
ENCODING 7781
SWIDTH 602 0
DWIDTH 10 0
BBX 7 14 2 0
BITMAP
18
00
1C
30
00
7E
80
80
E0
38
06
02
86
FC
ENDCHAR
STARTCHAR uni1E66
ENCODING 7782
SWIDTH 602 0
DWIDTH 10 0
BBX 8 17 1 0
BITMAP
18
00
66
3C
00
3F
C1
80
80
40
38
06
03
01
01
82
7C
ENDCHAR
STARTCHAR uni1E67
ENCODING 7783
SWIDTH 602 0
DWIDTH 10 0
BBX 7 14 2 0
BITMAP
30
00
CC
78
00
7E
80
80
E0
38
06
02
86
FC
ENDCHAR
STARTCHAR uni1E68
ENCODING 7784
SWIDTH 602 0
DWIDTH 10 0
BBX 8 16 1 -2
BITMAP
18
00
3F
C1
80
80
40
38
06
03
01
01
82
7C
00
18
ENDCHAR
STARTCHAR uni1E69
ENCODING 7785
SWIDTH 602 0
DWIDTH 10 0
BBX 7 13 2 -2
BITMAP
30
00
7E
80
80
E0
38
06
02
86
FC
00
18
ENDCHAR
STARTCHAR uni1E6A
ENCODING 7786
SWIDTH 602 0
DWIDTH 10 0
BBX 9 14 1 0
BITMAP
0C00
0000
FF80
0800
0800
0800
0800
0800
0800
0800
0800
0800
0800
0800
ENDCHAR
STARTCHAR uni1E6B
ENCODING 7787
SWIDTH 602 0
DWIDTH 10 0
BBX 7 13 2 0
BITMAP
30
00
20
20
FE
20
20
20
20
20
20
20
1E
ENDCHAR
STARTCHAR uni1E6C
ENCODING 7788
SWIDTH 602 0
DWIDTH 10 0
BBX 9 14 1 -2
BITMAP
FF80
0800
0800
0800
0800
0800
0800
0800
0800
0800
0800
0800
0000
0C00
ENDCHAR
STARTCHAR uni1E6D
ENCODING 7789
SWIDTH 602 0
DWIDTH 10 0
BBX 7 13 2 -2
BITMAP
20
20
FE
20
20
20
20
20
20
20
1E
00
18
ENDCHAR
STARTCHAR uni1E6E
ENCODING 7790
SWIDTH 602 0
DWIDTH 10 0
BBX 9 14 1 -2
BITMAP
FF80
0800
0800
0800
0800
0800
0800
0800
0800
0800
0800
0800
0000
3E00
ENDCHAR
STARTCHAR uni1E6F
ENCODING 7791
SWIDTH 602 0
DWIDTH 10 0
BBX 7 13 2 -2
BITMAP
20
20
FE
20
20
20
20
20
20
20
1E
00
7C
ENDCHAR
STARTCHAR uni1E70
ENCODING 7792
SWIDTH 602 0
DWIDTH 10 0
BBX 9 15 1 -3
BITMAP
FF80
0800
0800
0800
0800
0800
0800
0800
0800
0800
0800
0800
0000
1E00
3300
ENDCHAR
STARTCHAR uni1E71
ENCODING 7793
SWIDTH 602 0
DWIDTH 10 0
BBX 7 14 2 -3
BITMAP
20
20
FE
20
20
20
20
20
20
20
1E
00
3C
66
ENDCHAR
STARTCHAR uni1E72
ENCODING 7794
SWIDTH 602 0
DWIDTH 10 0
BBX 8 14 1 -2
BITMAP
81
81
81
81
81
81
81
81
81
81
C2
7C
00
4C
ENDCHAR
STARTCHAR uni1E73
ENCODING 7795
SWIDTH 602 0
DWIDTH 10 0
BBX 7 11 2 -2
BITMAP
82
82
82
82
82
82
82
86
7A
00
4C
ENDCHAR
STARTCHAR uni1E74
ENCODING 7796
SWIDTH 602 0
DWIDTH 10 0
BBX 8 14 1 -2
BITMAP
81
81
81
81
81
81
81
81
81
81
C2
7C
00
7E
ENDCHAR
STARTCHAR uni1E75
ENCODING 7797
SWIDTH 602 0
DWIDTH 10 0
BBX 7 11 2 -2
BITMAP
82
82
82
82
82
82
82
86
7A
00
7E
ENDCHAR
STARTCHAR uni1E76
ENCODING 7798
SWIDTH 602 0
DWIDTH 10 0
BBX 8 15 1 -3
BITMAP
81
81
81
81
81
81
81
81
81
81
C2
7C
00
3C
66
ENDCHAR
STARTCHAR uni1E77
ENCODING 7799
SWIDTH 602 0
DWIDTH 10 0
BBX 7 12 2 -3
BITMAP
82
82
82
82
82
82
82
86
7A
00
3C
66
ENDCHAR
STARTCHAR uni1E78
ENCODING 7800
SWIDTH 602 0
DWIDTH 10 0
BBX 8 17 1 0
BITMAP
0E
18
00
7E
00
81
81
81
81
81
81
81
81
81
81
C2
7C
ENDCHAR
STARTCHAR uni1E79
ENCODING 7801
SWIDTH 602 0
DWIDTH 10 0
BBX 7 14 2 0
BITMAP
1C
30
00
7E
00
82
82
82
82
82
82
82
86
7A
ENDCHAR
STARTCHAR uni1E7A
ENCODING 7802
SWIDTH 602 0
DWIDTH 10 0
BBX 8 16 1 0
BITMAP
4C
00
3E
00
81
81
81
81
81
81
81
81
81
81
C2
7C
ENDCHAR
STARTCHAR uni1E7B
ENCODING 7803
SWIDTH 602 0
DWIDTH 10 0
BBX 7 13 2 0
BITMAP
4C
00
7C
00
82
82
82
82
82
82
82
86
7A
ENDCHAR
STARTCHAR uni1E7C
ENCODING 7804
SWIDTH 602 0
DWIDTH 10 0
BBX 10 14 0 0
BITMAP
3F00
0000
C040
4080
4080
2080
2100
2100
1300
1200
1200
0C00
0C00
0C00
ENDCHAR
STARTCHAR uni1E7D
ENCODING 7805
SWIDTH 602 0
DWIDTH 10 0
BBX 9 11 1 0
BITMAP
7E00
0000
C080
4100
4100
2200
2200
1600
1400
1400
0800
ENDCHAR
STARTCHAR uni1E7E
ENCODING 7806
SWIDTH 602 0
DWIDTH 10 0
BBX 10 14 0 -2
BITMAP
C040
4080
4080
2080
2100
2100
1300
1200
1200
0C00
0C00
0C00
0000
0C00
ENDCHAR
STARTCHAR uni1E7F
ENCODING 7807
SWIDTH 602 0
DWIDTH 10 0
BBX 9 11 1 -2
BITMAP
C080
4100
4100
2200
2200
1600
1400
1400
0800
0000
0C00
ENDCHAR
STARTCHAR Wgrave
ENCODING 7808
SWIDTH 602 0
DWIDTH 10 0
BBX 10 15 0 0
BITMAP
3800
0C00
0000
8040
8840
88C0
9C80
D480
D480
5480
5580
5380
6300
4100
4100
ENDCHAR
STARTCHAR wgrave
ENCODING 7809
SWIDTH 602 0
DWIDTH 10 0
BBX 10 12 0 0
BITMAP
3800
0C00
0000
8040
8C40
8C80
5480
5280
5280
5280
6300
6300
ENDCHAR
STARTCHAR Wacute
ENCODING 7810
SWIDTH 602 0
DWIDTH 10 0
BBX 10 15 0 0
BITMAP
0700
0C00
0000
8040
8840
88C0
9C80
D480
D480
5480
5580
5380
6300
4100
4100
ENDCHAR
STARTCHAR wacute
ENCODING 7811
SWIDTH 602 0
DWIDTH 10 0
BBX 10 12 0 0
BITMAP
0700
0C00
0000
8040
8C40
8C80
5480
5280
5280
5280
6300
6300
ENDCHAR
STARTCHAR Wdieresis
ENCODING 7812
SWIDTH 602 0
DWIDTH 10 0
BBX 10 14 0 0
BITMAP
2600
0000
8040
8840
88C0
9C80
D480
D480
5480
5580
5380
6300
4100
4100
ENDCHAR
STARTCHAR wdieresis
ENCODING 7813
SWIDTH 602 0
DWIDTH 10 0
BBX 10 11 0 0
BITMAP
2600
0000
8040
8C40
8C80
5480
5280
5280
5280
6300
6300
ENDCHAR
STARTCHAR uni1E86
ENCODING 7814
SWIDTH 602 0
DWIDTH 10 0
BBX 10 14 0 0
BITMAP
0C00
0000
8040
8840
88C0
9C80
D480
D480
5480
5580
5380
6300
4100
4100
ENDCHAR
STARTCHAR uni1E87
ENCODING 7815
SWIDTH 602 0
DWIDTH 10 0
BBX 10 11 0 0
BITMAP
0C00
0000
8040
8C40
8C80
5480
5280
5280
5280
6300
6300
ENDCHAR
STARTCHAR uni1E88
ENCODING 7816
SWIDTH 602 0
DWIDTH 10 0
BBX 10 14 0 -2
BITMAP
8040
8840
88C0
9C80
D480
D480
5480
5580
5380
6300
4100
4100
0000
0C00
ENDCHAR
STARTCHAR uni1E89
ENCODING 7817
SWIDTH 602 0
DWIDTH 10 0
BBX 10 11 0 -2
BITMAP
8040
8C40
8C80
5480
5280
5280
5280
6300
6300
0000
0C00
ENDCHAR
STARTCHAR uni1E8A
ENCODING 7818
SWIDTH 602 0
DWIDTH 10 0
BBX 10 14 0 0
BITMAP
0600
0000
40C0
2180
2100
1200
0E00
0C00
0C00
1200
1200
2100
4180
C0C0
ENDCHAR
STARTCHAR uni1E8B
ENCODING 7819
SWIDTH 602 0
DWIDTH 10 0
BBX 9 11 1 0
BITMAP
1800
0000
C100
2200
3600
1400
0800
1400
2600
6200
C180
ENDCHAR
STARTCHAR uni1E8C
ENCODING 7820
SWIDTH 602 0
DWIDTH 10 0
BBX 10 14 0 0
BITMAP
1300
0000
40C0
2180
2100
1200
0E00
0C00
0C00
1200
1200
2100
4180
C0C0
ENDCHAR
STARTCHAR uni1E8D
ENCODING 7821
SWIDTH 602 0
DWIDTH 10 0
BBX 9 11 1 0
BITMAP
4C00
0000
C100
2200
3600
1400
0800
1400
2600
6200
C180
ENDCHAR
STARTCHAR uni1E8E
ENCODING 7822
SWIDTH 602 0
DWIDTH 10 0
BBX 9 14 1 0
BITMAP
0C00
0000
C180
4100
2200
2200
1400
1400
0800
0800
0800
0800
0800
0800
ENDCHAR
STARTCHAR uni1E8F
ENCODING 7823
SWIDTH 602 0
DWIDTH 10 0
BBX 9 14 1 -3
BITMAP
1800
0000
C080
4100
4100
2200
2200
1400
1400
0800
0800
1800
1000
E000
ENDCHAR
STARTCHAR uni1E90
ENCODING 7824
SWIDTH 602 0
DWIDTH 10 0
BBX 9 15 1 0
BITMAP
1E00
3300
0000
FF80
0100
0300
0200
0400
0800
0800
1000
2000
6000
4000
FF80
ENDCHAR
STARTCHAR uni1E91
ENCODING 7825
SWIDTH 602 0
DWIDTH 10 0
BBX 8 12 1 0
BITMAP
3C
66
00
FF
02
04
08
18
30
60
40
FF
ENDCHAR
STARTCHAR uni1E92
ENCODING 7826
SWIDTH 602 0
DWIDTH 10 0
BBX 9 14 1 -2
BITMAP
FF80
0100
0300
0200
0400
0800
0800
1000
2000
6000
4000
FF80
0000
1800
ENDCHAR
STARTCHAR uni1E93
ENCODING 7827
SWIDTH 602 0
DWIDTH 10 0
BBX 8 11 1 -2
BITMAP
FF
02
04
08
18
30
60
40
FF
00
18
ENDCHAR
STARTCHAR uni1E94
ENCODING 7828
SWIDTH 602 0
DWIDTH 10 0
BBX 9 14 1 -2
BITMAP
FF80
0100
0300
0200
0400
0800
0800
1000
2000
6000
4000
FF80
0000
7C00
ENDCHAR
STARTCHAR uni1E95
ENCODING 7829
SWIDTH 602 0
DWIDTH 10 0
BBX 8 11 1 -2
BITMAP
FF
02
04
08
18
30
60
40
FF
00
7C
ENDCHAR
STARTCHAR uni1E96
ENCODING 7830
SWIDTH 602 0
DWIDTH 10 0
BBX 7 14 2 -2
BITMAP
80
80
80
BC
C2
82
82
82
82
82
82
82
00
7C
ENDCHAR
STARTCHAR uni1E97
ENCODING 7831
SWIDTH 602 0
DWIDTH 10 0
BBX 7 13 2 0
BITMAP
4C
00
20
20
FE
20
20
20
20
20
20
20
1E
ENDCHAR
STARTCHAR uni1E98
ENCODING 7832
SWIDTH 602 0
DWIDTH 10 0
BBX 10 12 0 0
BITMAP
1C00
1C00
0000
8040
8C40
8C80
5480
5280
5280
5280
6300
6300
ENDCHAR
STARTCHAR uni1E99
ENCODING 7833
SWIDTH 602 0
DWIDTH 10 0
BBX 9 15 1 -3
BITMAP
1C00
1C00
0000
C080
4100
4100
2200
2200
1400
1400
0800
0800
1800
1000
E000
ENDCHAR
STARTCHAR uni1EA0
ENCODING 7840
SWIDTH 602 0
DWIDTH 10 0
BBX 10 14 0 -2
BITMAP
0C00
0C00
0C00
1200
1200
1200
2100
2100
7F00
4080
4080
80C0
0000
0C00
ENDCHAR
STARTCHAR uni1EA1
ENCODING 7841
SWIDTH 602 0
DWIDTH 10 0
BBX 8 11 1 -2
BITMAP
7C
42
02
02
3E
C2
82
86
7B
00
18
ENDCHAR
STARTCHAR uni1EA4
ENCODING 7844
SWIDTH 602 0
DWIDTH 10 0
BBX 10 18 0 0
BITMAP
0700
0C00
0000
1E00
3300
0000
0C00
0C00
0C00
1200
1200
1200
2100
2100
7F00
4080
4080
80C0
ENDCHAR
STARTCHAR uni1EA5
ENCODING 7845
SWIDTH 602 0
DWIDTH 10 0
BBX 8 15 1 0
BITMAP
0E
18
00
3C
66
00
7C
42
02
02
3E
C2
82
86
7B
ENDCHAR
STARTCHAR uni1EA6
ENCODING 7846
SWIDTH 602 0
DWIDTH 10 0
BBX 10 18 0 0
BITMAP
3800
0C00
0000
1E00
3300
0000
0C00
0C00
0C00
1200
1200
1200
2100
2100
7F00
4080
4080
80C0
ENDCHAR
STARTCHAR uni1EA7
ENCODING 7847
SWIDTH 602 0
DWIDTH 10 0
BBX 8 15 1 0
BITMAP
70
18
00
3C
66
00
7C
42
02
02
3E
C2
82
86
7B
ENDCHAR
STARTCHAR uni1EAA
ENCODING 7850
SWIDTH 602 0
DWIDTH 10 0
BBX 10 17 0 0
BITMAP
3F00
0000
1E00
3300
0000
0C00
0C00
0C00
1200
1200
1200
2100
2100
7F00
4080
4080
80C0
ENDCHAR
STARTCHAR uni1EAB
ENCODING 7851
SWIDTH 602 0
DWIDTH 10 0
BBX 8 14 1 0
BITMAP
7E
00
3C
66
00
7C
42
02
02
3E
C2
82
86
7B
ENDCHAR
STARTCHAR uni1EAC
ENCODING 7852
SWIDTH 602 0
DWIDTH 10 0
BBX 10 17 0 -2
BITMAP
1E00
3300
0000
0C00
0C00
0C00
1200
1200
1200
2100
2100
7F00
4080
4080
80C0
0000
0C00
ENDCHAR
STARTCHAR uni1EAD
ENCODING 7853
SWIDTH 602 0
DWIDTH 10 0
BBX 8 14 1 -2
BITMAP
3C
66
00
7C
42
02
02
3E
C2
82
86
7B
00
18
ENDCHAR
STARTCHAR uni1EAE
ENCODING 7854
SWIDTH 602 0
DWIDTH 10 0
BBX 10 18 0 0
BITMAP
0700
0C00
0000
2100
1E00
0000
0C00
0C00
0C00
1200
1200
1200
2100
2100
7F00
4080
4080
80C0
ENDCHAR
STARTCHAR uni1EAF
ENCODING 7855
SWIDTH 602 0
DWIDTH 10 0
BBX 8 15 1 0
BITMAP
0E
18
00
42
3C
00
7C
42
02
02
3E
C2
82
86
7B
ENDCHAR
STARTCHAR uni1EB0
ENCODING 7856
SWIDTH 602 0
DWIDTH 10 0
BBX 10 18 0 0
BITMAP
3800
0C00
0000
2100
1E00
0000
0C00
0C00
0C00
1200
1200
1200
2100
2100
7F00
4080
4080
80C0
ENDCHAR
STARTCHAR uni1EB1
ENCODING 7857
SWIDTH 602 0
DWIDTH 10 0
BBX 8 15 1 0
BITMAP
70
18
00
42
3C
00
7C
42
02
02
3E
C2
82
86
7B
ENDCHAR
STARTCHAR uni1EB4
ENCODING 7860
SWIDTH 602 0
DWIDTH 10 0
BBX 10 17 0 0
BITMAP
3F00
0000
2100
1E00
0000
0C00
0C00
0C00
1200
1200
1200
2100
2100
7F00
4080
4080
80C0
ENDCHAR
STARTCHAR uni1EB5
ENCODING 7861
SWIDTH 602 0
DWIDTH 10 0
BBX 8 14 1 0
BITMAP
7E
00
42
3C
00
7C
42
02
02
3E
C2
82
86
7B
ENDCHAR
STARTCHAR uni1EB6
ENCODING 7862
SWIDTH 602 0
DWIDTH 10 0
BBX 10 17 0 -2
BITMAP
2100
1E00
0000
0C00
0C00
0C00
1200
1200
1200
2100
2100
7F00
4080
4080
80C0
0000
0C00
ENDCHAR
STARTCHAR uni1EB7
ENCODING 7863
SWIDTH 602 0
DWIDTH 10 0
BBX 8 14 1 -2
BITMAP
42
3C
00
7C
42
02
02
3E
C2
82
86
7B
00
18
ENDCHAR
STARTCHAR uni1EB8
ENCODING 7864
SWIDTH 602 0
DWIDTH 10 0
BBX 7 14 2 -2
BITMAP
FE
80
80
80
80
FC
80
80
80
80
80
FE
00
30
ENDCHAR
STARTCHAR uni1EB9
ENCODING 7865
SWIDTH 602 0
DWIDTH 10 0
BBX 8 11 1 -2
BITMAP
3E
42
81
81
FF
80
80
41
3F
00
18
ENDCHAR
STARTCHAR uni1EBC
ENCODING 7868
SWIDTH 602 0
DWIDTH 10 0
BBX 7 14 2 0
BITMAP
FC
00
FE
80
80
80
80
FC
80
80
80
80
80
FE
ENDCHAR
STARTCHAR uni1EBD
ENCODING 7869
SWIDTH 602 0
DWIDTH 10 0
BBX 8 11 1 0
BITMAP
7E
00
3E
42
81
81
FF
80
80
41
3F
ENDCHAR
STARTCHAR uni1EBE
ENCODING 7870
SWIDTH 602 0
DWIDTH 10 0
BBX 7 18 2 0
BITMAP
1C
30
00
3C
66
00
FE
80
80
80
80
FC
80
80
80
80
80
FE
ENDCHAR
STARTCHAR uni1EBF
ENCODING 7871
SWIDTH 602 0
DWIDTH 10 0
BBX 8 15 1 0
BITMAP
0E
18
00
3C
66
00
3E
42
81
81
FF
80
80
41
3F
ENDCHAR
STARTCHAR uni1EC0
ENCODING 7872
SWIDTH 602 0
DWIDTH 10 0
BBX 7 18 2 0
BITMAP
70
18
00
3C
66
00
FE
80
80
80
80
FC
80
80
80
80
80
FE
ENDCHAR
STARTCHAR uni1EC1
ENCODING 7873
SWIDTH 602 0
DWIDTH 10 0
BBX 8 15 1 0
BITMAP
70
18
00
3C
66
00
3E
42
81
81
FF
80
80
41
3F
ENDCHAR
STARTCHAR uni1EC4
ENCODING 7876
SWIDTH 602 0
DWIDTH 10 0
BBX 7 17 2 0
BITMAP
7E
00
3C
66
00
FE
80
80
80
80
FC
80
80
80
80
80
FE
ENDCHAR
STARTCHAR uni1EC5
ENCODING 7877
SWIDTH 602 0
DWIDTH 10 0
BBX 8 14 1 0
BITMAP
7E
00
3C
66
00
3E
42
81
81
FF
80
80
41
3F
ENDCHAR
STARTCHAR uni1EC6
ENCODING 7878
SWIDTH 602 0
DWIDTH 10 0
BBX 7 17 2 -2
BITMAP
78
CC
00
FE
80
80
80
80
FC
80
80
80
80
80
FE
00
30
ENDCHAR
STARTCHAR uni1EC7
ENCODING 7879
SWIDTH 602 0
DWIDTH 10 0
BBX 8 14 1 -2
BITMAP
3C
66
00
3E
42
81
81
FF
80
80
41
3F
00
18
ENDCHAR
STARTCHAR uni1ECA
ENCODING 7882
SWIDTH 602 0
DWIDTH 10 0
BBX 7 14 2 -2
BITMAP
FE
10
10
10
10
10
10
10
10
10
10
FE
00
18
ENDCHAR
STARTCHAR uni1ECB
ENCODING 7883
SWIDTH 602 0
DWIDTH 10 0
BBX 4 14 2 -2
BITMAP
10
00
00
F0
10
10
10
10
10
10
10
10
00
30
ENDCHAR
STARTCHAR uni1ECC
ENCODING 7884
SWIDTH 602 0
DWIDTH 10 0
BBX 9 14 1 -2
BITMAP
3E00
6300
4100
8080
8080
8080
8080
8080
8080
4100
6300
3E00
0000
0C00
ENDCHAR
STARTCHAR uni1ECD
ENCODING 7885
SWIDTH 602 0
DWIDTH 10 0
BBX 9 11 1 -2
BITMAP
3E00
6300
C180
8080
8080
8080
C180
6300
3E00
0000
0C00
ENDCHAR
STARTCHAR uni1ED0
ENCODING 7888
SWIDTH 602 0
DWIDTH 10 0
BBX 9 18 1 0
BITMAP
0E00
1800
0000
3C00
6600
0000
3E00
6300
4100
8080
8080
8080
8080
8080
8080
4100
6300
3E00
ENDCHAR
STARTCHAR uni1ED1
ENCODING 7889
SWIDTH 602 0
DWIDTH 10 0
BBX 9 15 1 0
BITMAP
0E00
1800
0000
3C00
6600
0000
3E00
6300
C180
8080
8080
8080
C180
6300
3E00
ENDCHAR
STARTCHAR uni1ED2
ENCODING 7890
SWIDTH 602 0
DWIDTH 10 0
BBX 9 18 1 0
BITMAP
3800
0C00
0000
3C00
6600
0000
3E00
6300
4100
8080
8080
8080
8080
8080
8080
4100
6300
3E00
ENDCHAR
STARTCHAR uni1ED3
ENCODING 7891
SWIDTH 602 0
DWIDTH 10 0
BBX 9 15 1 0
BITMAP
3800
0C00
0000
3C00
6600
0000
3E00
6300
C180
8080
8080
8080
C180
6300
3E00
ENDCHAR
STARTCHAR uni1ED6
ENCODING 7894
SWIDTH 602 0
DWIDTH 10 0
BBX 9 17 1 0
BITMAP
7E00
0000
3C00
6600
0000
3E00
6300
4100
8080
8080
8080
8080
8080
8080
4100
6300
3E00
ENDCHAR
STARTCHAR uni1ED7
ENCODING 7895
SWIDTH 602 0
DWIDTH 10 0
BBX 9 14 1 0
BITMAP
7E00
0000
3C00
6600
0000
3E00
6300
C180
8080
8080
8080
C180
6300
3E00
ENDCHAR
STARTCHAR uni1ED8
ENCODING 7896
SWIDTH 602 0
DWIDTH 10 0
BBX 9 17 1 -2
BITMAP
1E00
3300
0000
3E00
6300
4100
8080
8080
8080
8080
8080
8080
4100
6300
3E00
0000
0C00
ENDCHAR
STARTCHAR uni1ED9
ENCODING 7897
SWIDTH 602 0
DWIDTH 10 0
BBX 9 14 1 -2
BITMAP
1E00
3300
0000
3E00
6300
C180
8080
8080
8080
C180
6300
3E00
0000
0C00
ENDCHAR
STARTCHAR uni1EDA
ENCODING 7898
SWIDTH 602 0
DWIDTH 10 0
BBX 10 15 1 0
BITMAP
0700
0C00
0000
3EC0
63C0
4140
80C0
8080
8080
8080
8080
8080
4100
6300
3E00
ENDCHAR
STARTCHAR uni1EDB
ENCODING 7899
SWIDTH 602 0
DWIDTH 10 0
BBX 10 12 1 0
BITMAP
0700
0C00
0000
3EC0
63C0
C1C0
80C0
8080
8080
C180
6300
3E00
ENDCHAR
STARTCHAR uni1EDC
ENCODING 7900
SWIDTH 602 0
DWIDTH 10 0
BBX 10 15 1 0
BITMAP
1C00
0600
0000
3EC0
63C0
4140
80C0
8080
8080
8080
8080
8080
4100
6300
3E00
ENDCHAR
STARTCHAR uni1EDD
ENCODING 7901
SWIDTH 602 0
DWIDTH 10 0
BBX 10 12 1 0
BITMAP
1C00
0600
0000
3EC0
63C0
C1C0
80C0
8080
8080
C180
6300
3E00
ENDCHAR
STARTCHAR uni1EE0
ENCODING 7904
SWIDTH 602 0
DWIDTH 10 0
BBX 10 14 1 0
BITMAP
1F80
0000
3EC0
63C0
4140
80C0
8080
8080
8080
8080
8080
4100
6300
3E00
ENDCHAR
STARTCHAR uni1EE1
ENCODING 7905
SWIDTH 602 0
DWIDTH 10 0
BBX 10 11 1 0
BITMAP
1F80
0000
3EC0
63C0
C1C0
80C0
8080
8080
C180
6300
3E00
ENDCHAR
STARTCHAR uni1EE2
ENCODING 7906
SWIDTH 602 0
DWIDTH 10 0
BBX 10 14 1 -2
BITMAP
3EC0
63C0
4140
80C0
8080
8080
8080
8080
8080
4100
6300
3E00
0000
0C00
ENDCHAR
STARTCHAR uni1EE3
ENCODING 7907
SWIDTH 602 0
DWIDTH 10 0
BBX 10 11 1 -2
BITMAP
3EC0
63C0
C1C0
80C0
8080
8080
C180
6300
3E00
0000
0C00
ENDCHAR
STARTCHAR uni1EE4
ENCODING 7908
SWIDTH 602 0
DWIDTH 10 0
BBX 8 14 1 -2
BITMAP
81
81
81
81
81
81
81
81
81
81
C2
7C
00
18
ENDCHAR
STARTCHAR uni1EE5
ENCODING 7909
SWIDTH 602 0
DWIDTH 10 0
BBX 7 11 2 -2
BITMAP
82
82
82
82
82
82
82
86
7A
00
18
ENDCHAR
STARTCHAR uni1EE8
ENCODING 7912
SWIDTH 602 0
DWIDTH 10 0
BBX 10 15 1 0
BITMAP
0380
0600
0000
81C0
81C0
8140
81C0
8100
8100
8100
8100
8100
8100
C200
7C00
ENDCHAR
STARTCHAR uni1EE9
ENCODING 7913
SWIDTH 602 0
DWIDTH 10 0
BBX 9 12 2 0
BITMAP
0700
0C00
0000
8380
8380
8280
8380
8200
8200
8200
8600
7A00
ENDCHAR
STARTCHAR uni1EEA
ENCODING 7914
SWIDTH 602 0
DWIDTH 10 0
BBX 10 15 1 0
BITMAP
1C00
0600
0000
81C0
81C0
8140
81C0
8100
8100
8100
8100
8100
8100
C200
7C00
ENDCHAR
STARTCHAR uni1EEB
ENCODING 7915
SWIDTH 602 0
DWIDTH 10 0
BBX 9 12 2 0
BITMAP
1C00
0600
0000
8380
8380
8280
8380
8200
8200
8200
8600
7A00
ENDCHAR
STARTCHAR uni1EEE
ENCODING 7918
SWIDTH 602 0
DWIDTH 10 0
BBX 10 14 1 0
BITMAP
1F80
0000
81C0
81C0
8140
81C0
8100
8100
8100
8100
8100
8100
C200
7C00
ENDCHAR
STARTCHAR uni1EEF
ENCODING 7919
SWIDTH 602 0
DWIDTH 10 0
BBX 9 11 2 0
BITMAP
3F00
0000
8380
8380
8280
8380
8200
8200
8200
8600
7A00
ENDCHAR
STARTCHAR uni1EF0
ENCODING 7920
SWIDTH 602 0
DWIDTH 10 0
BBX 10 14 1 -2
BITMAP
81C0
81C0
8140
81C0
8100
8100
8100
8100
8100
8100
C200
7C00
0000
1800
ENDCHAR
STARTCHAR uni1EF1
ENCODING 7921
SWIDTH 602 0
DWIDTH 10 0
BBX 9 11 2 -2
BITMAP
8380
8380
8280
8380
8200
8200
8200
8600
7A00
0000
1800
ENDCHAR
STARTCHAR Ygrave
ENCODING 7922
SWIDTH 602 0
DWIDTH 10 0
BBX 9 15 1 0
BITMAP
3800
0C00
0000
C180
4100
2200
2200
1400
1400
0800
0800
0800
0800
0800
0800
ENDCHAR
STARTCHAR ygrave
ENCODING 7923
SWIDTH 602 0
DWIDTH 10 0
BBX 9 15 1 -3
BITMAP
3800
0C00
0000
C080
4100
4100
2200
2200
1400
1400
0800
0800
1800
1000
E000
ENDCHAR
STARTCHAR uni1EF4
ENCODING 7924
SWIDTH 602 0
DWIDTH 10 0
BBX 9 14 1 -2
BITMAP
C180
4100
2200
2200
1400
1400
0800
0800
0800
0800
0800
0800
0000
0C00
ENDCHAR
STARTCHAR uni1EF5
ENCODING 7925
SWIDTH 602 0
DWIDTH 10 0
BBX 9 14 1 -5
BITMAP
C080
4100
4100
2200
2200
1400
1400
0800
0800
1800
1000
E000
0000
3000
ENDCHAR
STARTCHAR uni1EF8
ENCODING 7928
SWIDTH 602 0
DWIDTH 10 0
BBX 9 14 1 0
BITMAP
3F00
0000
C180
4100
2200
2200
1400
1400
0800
0800
0800
0800
0800
0800
ENDCHAR
STARTCHAR uni1EF9
ENCODING 7929
SWIDTH 602 0
DWIDTH 10 0
BBX 9 14 1 -3
BITMAP
7E00
0000
C080
4100
4100
2200
2200
1400
1400
0800
0800
1800
1000
E000
ENDCHAR
STARTCHAR uni2000
ENCODING 8192
SWIDTH 602 0
DWIDTH 10 0
BBX 1 1 0 0
BITMAP
00
ENDCHAR
STARTCHAR uni2001
ENCODING 8193
SWIDTH 602 0
DWIDTH 10 0
BBX 1 1 0 0
BITMAP
00
ENDCHAR
STARTCHAR uni2002
ENCODING 8194
SWIDTH 602 0
DWIDTH 10 0
BBX 1 1 0 0
BITMAP
00
ENDCHAR
STARTCHAR uni2003
ENCODING 8195
SWIDTH 602 0
DWIDTH 10 0
BBX 1 1 0 0
BITMAP
00
ENDCHAR
STARTCHAR uni2004
ENCODING 8196
SWIDTH 602 0
DWIDTH 10 0
BBX 1 1 0 0
BITMAP
00
ENDCHAR
STARTCHAR uni2005
ENCODING 8197
SWIDTH 602 0
DWIDTH 10 0
BBX 1 1 0 0
BITMAP
00
ENDCHAR
STARTCHAR uni2006
ENCODING 8198
SWIDTH 602 0
DWIDTH 10 0
BBX 1 1 0 0
BITMAP
00
ENDCHAR
STARTCHAR uni2007
ENCODING 8199
SWIDTH 602 0
DWIDTH 10 0
BBX 1 1 0 0
BITMAP
00
ENDCHAR
STARTCHAR uni2008
ENCODING 8200
SWIDTH 602 0
DWIDTH 10 0
BBX 1 1 0 0
BITMAP
00
ENDCHAR
STARTCHAR uni2009
ENCODING 8201
SWIDTH 602 0
DWIDTH 10 0
BBX 1 1 0 0
BITMAP
00
ENDCHAR
STARTCHAR uni200A
ENCODING 8202
SWIDTH 602 0
DWIDTH 10 0
BBX 1 1 0 0
BITMAP
00
ENDCHAR
STARTCHAR uni2010
ENCODING 8208
SWIDTH 602 0
DWIDTH 10 0
BBX 7 1 2 5
BITMAP
FE
ENDCHAR
STARTCHAR uni2011
ENCODING 8209
SWIDTH 602 0
DWIDTH 10 0
BBX 7 1 2 5
BITMAP
FE
ENDCHAR
STARTCHAR figuredash
ENCODING 8210
SWIDTH 602 0
DWIDTH 10 0
BBX 8 1 1 5
BITMAP
FF
ENDCHAR
STARTCHAR endash
ENCODING 8211
SWIDTH 602 0
DWIDTH 10 0
BBX 8 1 1 5
BITMAP
FF
ENDCHAR
STARTCHAR emdash
ENCODING 8212
SWIDTH 602 0
DWIDTH 10 0
BBX 9 1 1 5
BITMAP
FF80
ENDCHAR
STARTCHAR afii00208
ENCODING 8213
SWIDTH 602 0
DWIDTH 10 0
BBX 9 1 1 5
BITMAP
FF80
ENDCHAR
STARTCHAR quoteleft
ENCODING 8216
SWIDTH 602 0
DWIDTH 10 0
BBX 2 4 4 8
BITMAP
C0
80
C0
C0
ENDCHAR
STARTCHAR quoteright
ENCODING 8217
SWIDTH 602 0
DWIDTH 10 0
BBX 2 4 4 8
BITMAP
C0
C0
40
C0
ENDCHAR
STARTCHAR quotesinglbase
ENCODING 8218
SWIDTH 602 0
DWIDTH 10 0
BBX 2 6 4 -3
BITMAP
C0
C0
C0
40
40
80
ENDCHAR
STARTCHAR quotereversed
ENCODING 8219
SWIDTH 602 0
DWIDTH 10 0
BBX 2 4 4 8
BITMAP
C0
C0
80
C0
ENDCHAR
STARTCHAR quotedblleft
ENCODING 8220
SWIDTH 602 0
DWIDTH 10 0
BBX 6 4 2 8
BITMAP
8C
88
88
8C
ENDCHAR
STARTCHAR quotedblright
ENCODING 8221
SWIDTH 602 0
DWIDTH 10 0
BBX 6 4 2 8
BITMAP
84
84
84
84
ENDCHAR
STARTCHAR quotedblbase
ENCODING 8222
SWIDTH 602 0
DWIDTH 10 0
BBX 6 4 2 -2
BITMAP
84
84
84
84
ENDCHAR
STARTCHAR uni201F
ENCODING 8223
SWIDTH 602 0
DWIDTH 10 0
BBX 6 4 2 8
BITMAP
84
84
84
84
ENDCHAR
STARTCHAR dagger
ENCODING 8224
SWIDTH 602 0
DWIDTH 10 0
BBX 7 14 2 -2
BITMAP
10
10
10
10
FE
10
10
10
10
10
10
10
10
10
ENDCHAR
STARTCHAR daggerdbl
ENCODING 8225
SWIDTH 602 0
DWIDTH 10 0
BBX 7 14 2 -2
BITMAP
10
10
10
10
FE
10
10
10
10
FE
10
10
10
10
ENDCHAR
STARTCHAR bullet
ENCODING 8226
SWIDTH 602 0
DWIDTH 10 0
BBX 5 5 3 2
BITMAP
F8
F8
F8
F8
F8
ENDCHAR
STARTCHAR ellipsis
ENCODING 8230
SWIDTH 602 0
DWIDTH 10 0
BBX 8 1 1 0
BITMAP
91
ENDCHAR
STARTCHAR perthousand
ENCODING 8240
SWIDTH 602 0
DWIDTH 10 0
BBX 9 12 1 0
BITMAP
4400
A800
A800
B800
5000
1000
2000
2900
7680
5680
5680
8900
ENDCHAR
STARTCHAR guilsinglleft
ENCODING 8249
SWIDTH 602 0
DWIDTH 10 0
BBX 4 7 3 1
BITMAP
10
20
40
C0
40
20
10
ENDCHAR
STARTCHAR guilsinglright
ENCODING 8250
SWIDTH 602 0
DWIDTH 10 0
BBX 4 7 3 1
BITMAP
80
40
20
30
20
40
80
ENDCHAR
STARTCHAR uni203D
ENCODING 8253
SWIDTH 602 0
DWIDTH 10 0
BBX 7 12 2 0
BITMAP
FC
96
92
12
14
18
10
10
10
00
00
10
ENDCHAR
STARTCHAR fraction
ENCODING 8260
SWIDTH 602 0
DWIDTH 10 0
BBX 10 12 0 0
BITMAP
00C0
0080
0100
0200
0600
0400
0800
1800
1000
2000
4000
C000
ENDCHAR
STARTCHAR oneinferior
ENCODING 8321
SWIDTH 602 0
DWIDTH 10 0
BBX 5 6 0 -3
BITMAP
E0
20
20
20
20
F8
ENDCHAR
STARTCHAR twoinferior
ENCODING 8322
SWIDTH 602 0
DWIDTH 10 0
BBX 4 6 -1 -3
BITMAP
E0
10
10
60
40
F0
ENDCHAR
STARTCHAR threeinferior
ENCODING 8323
SWIDTH 602 0
DWIDTH 10 0
BBX 4 6 -1 -3
BITMAP
F0
10
60
10
10
E0
ENDCHAR
STARTCHAR uni20A5
ENCODING 8357
SWIDTH 602 0
DWIDTH 10 0
BBX 9 14 1 -2
BITMAP
0180
0100
0300
B380
CC80
8C80
8880
8880
9880
9880
A880
E880
4000
C000
ENDCHAR
STARTCHAR uni20A6
ENCODING 8358
SWIDTH 602 0
DWIDTH 10 0
BBX 9 12 1 0
BITMAP
8100
C100
E100
FF80
9100
9100
8900
FF80
8500
8300
8300
8100
ENDCHAR
STARTCHAR uni20A9
ENCODING 8361
SWIDTH 602 0
DWIDTH 10 0
BBX 10 12 0 0
BITMAP
8040
8840
88C0
FFC0
D480
D480
5480
7FC0
5380
6300
4100
4100
ENDCHAR
STARTCHAR Euro
ENCODING 8364
SWIDTH 602 0
DWIDTH 10 0
BBX 11 12 -1 0
BITMAP
07E0
0820
1000
FF80
2000
2000
2000
FF80
3000
1000
0C20
07E0
ENDCHAR
STARTCHAR uni20AD
ENCODING 8365
SWIDTH 602 0
DWIDTH 10 0
BBX 9 12 1 0
BITMAP
8300
8600
8C00
9800
9000
FF80
E000
9000
8800
8400
8200
8180
ENDCHAR
STARTCHAR trademark
ENCODING 8482
SWIDTH 602 0
DWIDTH 10 0
BBX 11 6 0 6
BITMAP
FE60
2660
27E0
25A0
25A0
2420
ENDCHAR
STARTCHAR uni212A
ENCODING 8490
SWIDTH 602 0
DWIDTH 10 0
BBX 9 12 1 0
BITMAP
8300
8600
8C00
9800
9000
A000
E000
9000
8800
8400
8200
8180
ENDCHAR
STARTCHAR uni212B
ENCODING 8491
SWIDTH 602 0
DWIDTH 10 0
BBX 10 15 0 0
BITMAP
0E00
0E00
0000
0C00
0C00
0C00
1200
1200
1200
2100
2100
7F00
4080
4080
80C0
ENDCHAR
STARTCHAR uni2132
ENCODING 8498
SWIDTH 602 0
DWIDTH 10 0
BBX 7 12 2 0
BITMAP
02
02
02
02
02
7E
02
02
02
02
02
FE
ENDCHAR
STARTCHAR universal
ENCODING 8704
SWIDTH 602 0
DWIDTH 10 0
BBX 10 12 0 0
BITMAP
80C0
4080
4080
7F00
2100
2100
1200
1200
1200
0C00
0C00
0C00
ENDCHAR
STARTCHAR existential
ENCODING 8707
SWIDTH 602 0
DWIDTH 10 0
BBX 7 12 2 0
BITMAP
FE
02
02
02
02
7E
02
02
02
02
02
FE
ENDCHAR
STARTCHAR uni2204
ENCODING 8708
SWIDTH 602 0
DWIDTH 10 0
BBX 9 14 1 -1
BITMAP
0180
7F00
0300
0300
0500
0500
3F00
0900
1100
1100
2100
6100
7F00
C000
ENDCHAR
STARTCHAR minus
ENCODING 8722
SWIDTH 602 0
DWIDTH 10 0
BBX 9 1 1 4
BITMAP
FF80
ENDCHAR
STARTCHAR fraction
ENCODING 8725
SWIDTH 602 0
DWIDTH 10 0
BBX 10 12 0 0
BITMAP
00C0
0080
0100
0200
0600
0400
0800
1800
1000
2000
4000
C000
ENDCHAR
STARTCHAR periodcentered
ENCODING 8729
SWIDTH 602 0
DWIDTH 10 0
BBX 2 1 4 5
BITMAP
C0
ENDCHAR
STARTCHAR uni2236
ENCODING 8758
SWIDTH 602 0
DWIDTH 10 0
BBX 2 9 4 0
BITMAP
C0
C0
00
00
00
00
00
C0
C0
ENDCHAR
STARTCHAR uni2259
ENCODING 8793
SWIDTH 602 0
DWIDTH 10 0
BBX 9 8 1 2
BITMAP
1E00
3300
0000
FF80
0000
0000
0000
FF80
ENDCHAR
STARTCHAR uni225A
ENCODING 8794
SWIDTH 602 0
DWIDTH 10 0
BBX 9 8 1 2
BITMAP
3300
1E00
0000
FF80
0000
0000
0000
FF80
ENDCHAR
STARTCHAR notequal
ENCODING 8800
SWIDTH 602 0
DWIDTH 10 0
BBX 9 14 1 -2
BITMAP
0180
0100
0300
0200
0400
FF80
0800
0800
1000
FF80
2000
6000
4000
C000
ENDCHAR
STARTCHAR equivalence
ENCODING 8801
SWIDTH 602 0
DWIDTH 10 0
BBX 9 5 0 2
BITMAP
FF80
0000
FF80
0000
FF80
ENDCHAR
STARTCHAR uni2262
ENCODING 8802
SWIDTH 602 0
DWIDTH 10 0
BBX 9 14 0 -2
BITMAP
0180
0100
0300
0200
0400
FF80
0800
FF80
1000
FF80
2000
6000
4000
C000
ENDCHAR
STARTCHAR lessequal
ENCODING 8804
SWIDTH 602 0
DWIDTH 10 0
BBX 9 11 1 -2
BITMAP
0080
0380
0E00
3800
E000
3800
0E00
0380
0080
0000
FF80
ENDCHAR
STARTCHAR greaterequal
ENCODING 8805
SWIDTH 602 0
DWIDTH 10 0
BBX 9 11 1 -2
BITMAP
8000
E000
3800
0E00
0380
0E00
3800
E000
8000
0000
FF80
ENDCHAR
STARTCHAR uni226E
ENCODING 8814
SWIDTH 602 0
DWIDTH 10 0
BBX 9 14 1 -2
BITMAP
0180
0100
0300
0280
0780
0E00
3800
E800
3800
1E00
2380
6080
4000
C000
ENDCHAR
STARTCHAR uni226F
ENCODING 8815
SWIDTH 602 0
DWIDTH 10 0
BBX 9 14 1 -2
BITMAP
0180
0100
0300
8200
E400
3C00
0E00
0B80
1E00
3800
E000
E000
4000
C000
ENDCHAR
STARTCHAR uni2270
ENCODING 8816
SWIDTH 602 0
DWIDTH 10 0
BBX 9 14 1 -3
BITMAP
0180
0100
0380
0380
0E00
3C00
E800
3800
1E00
1380
2080
6000
FF80
C000
ENDCHAR
STARTCHAR uni2271
ENCODING 8817
SWIDTH 602 0
DWIDTH 10 0
BBX 9 14 1 -3
BITMAP
0180
0100
8300
E200
3C00
0E00
0B80
0E00
3800
F000
A000
6000
FF80
C000
ENDCHAR
STARTCHAR SF100000
ENCODING 9472
SWIDTH 602 0
DWIDTH 10 0
BBX 10 1 0 6
BITMAP
FFC0
ENDCHAR
STARTCHAR uni2501
ENCODING 9473
SWIDTH 602 0
DWIDTH 10 0
BBX 10 3 0 5
BITMAP
FFC0
FFC0
FFC0
ENDCHAR
STARTCHAR SF110000
ENCODING 9474
SWIDTH 602 0
DWIDTH 10 0
BBX 1 18 4 -3
BITMAP
80
80
80
80
80
80
80
80
80
80
80
80
80
80
80
80
80
80
ENDCHAR
STARTCHAR uni2503
ENCODING 9475
SWIDTH 602 0
DWIDTH 10 0
BBX 3 18 3 -3
BITMAP
E0
E0
E0
E0
E0
E0
E0
E0
E0
E0
E0
E0
E0
E0
E0
E0
E0
E0
ENDCHAR
STARTCHAR SF010000
ENCODING 9484
SWIDTH 602 0
DWIDTH 10 0
BBX 6 10 4 -3
BITMAP
FC
80
80
80
80
80
80
80
80
80
ENDCHAR
STARTCHAR uni250D
ENCODING 9485
SWIDTH 602 0
DWIDTH 10 0
BBX 7 11 3 -3
BITMAP
FE
FE
FE
40
40
40
40
40
40
40
40
ENDCHAR
STARTCHAR uni250E
ENCODING 9486
SWIDTH 602 0
DWIDTH 10 0
BBX 7 11 3 -3
BITMAP
E0
FE
E0
E0
E0
E0
E0
E0
E0
E0
E0
ENDCHAR
STARTCHAR uni250F
ENCODING 9487
SWIDTH 602 0
DWIDTH 10 0
BBX 7 11 3 -3
BITMAP
FE
FE
FE
E0
E0
E0
E0
E0
E0
E0
E0
ENDCHAR
STARTCHAR SF030000
ENCODING 9488
SWIDTH 602 0
DWIDTH 10 0
BBX 5 10 0 -3
BITMAP
F8
08
08
08
08
08
08
08
08
08
ENDCHAR
STARTCHAR uni2511
ENCODING 9489
SWIDTH 602 0
DWIDTH 10 0
BBX 6 11 0 -3
BITMAP
FC
FC
FC
08
08
08
08
08
08
08
08
ENDCHAR
STARTCHAR uni2512
ENCODING 9490
SWIDTH 602 0
DWIDTH 10 0
BBX 6 11 0 -3
BITMAP
1C
FC
1C
1C
1C
1C
1C
1C
1C
1C
1C
ENDCHAR
STARTCHAR uni2513
ENCODING 9491
SWIDTH 602 0
DWIDTH 10 0
BBX 6 11 0 -3
BITMAP
FC
FC
FC
1C
1C
1C
1C
1C
1C
1C
1C
ENDCHAR
STARTCHAR SF020000
ENCODING 9492
SWIDTH 602 0
DWIDTH 10 0
BBX 6 9 4 6
BITMAP
80
80
80
80
80
80
80
80
FC
ENDCHAR
STARTCHAR uni2515
ENCODING 9493
SWIDTH 602 0
DWIDTH 10 0
BBX 7 10 3 5
BITMAP
40
40
40
40
40
40
40
FE
FE
FE
ENDCHAR
STARTCHAR uni2516
ENCODING 9494
SWIDTH 602 0
DWIDTH 10 0
BBX 7 10 3 5
BITMAP
E0
E0
E0
E0
E0
E0
E0
E0
FE
E0
ENDCHAR
STARTCHAR uni2517
ENCODING 9495
SWIDTH 602 0
DWIDTH 10 0
BBX 7 10 3 5
BITMAP
E0
E0
E0
E0
E0
E0
E0
FE
FE
FE
ENDCHAR
STARTCHAR SF040000
ENCODING 9496
SWIDTH 602 0
DWIDTH 10 0
BBX 5 9 0 6
BITMAP
08
08
08
08
08
08
08
08
F8
ENDCHAR
STARTCHAR uni2519
ENCODING 9497
SWIDTH 602 0
DWIDTH 10 0
BBX 6 10 0 5
BITMAP
08
08
08
08
08
08
08
FC
FC
FC
ENDCHAR
STARTCHAR uni251A
ENCODING 9498
SWIDTH 602 0
DWIDTH 10 0
BBX 6 10 0 5
BITMAP
1C
1C
1C
1C
1C
1C
1C
1C
FC
1C
ENDCHAR
STARTCHAR uni251B
ENCODING 9499
SWIDTH 602 0
DWIDTH 10 0
BBX 6 10 0 5
BITMAP
1C
1C
1C
1C
1C
1C
1C
FC
FC
FC
ENDCHAR
STARTCHAR SF080000
ENCODING 9500
SWIDTH 602 0
DWIDTH 10 0
BBX 6 18 4 -3
BITMAP
80
80
80
80
80
80
80
80
FC
80
80
80
80
80
80
80
80
80
ENDCHAR
STARTCHAR uni251D
ENCODING 9501
SWIDTH 602 0
DWIDTH 10 0
BBX 7 18 3 -3
BITMAP
40
40
40
40
40
40
40
FE
FE
FE
40
40
40
40
40
40
40
40
ENDCHAR
STARTCHAR uni251E
ENCODING 9502
SWIDTH 602 0
DWIDTH 10 0
BBX 7 18 3 -3
BITMAP
E0
E0
E0
E0
E0
E0
E0
E0
FE
E0
40
40
40
40
40
40
40
40
ENDCHAR
STARTCHAR uni251F
ENCODING 9503
SWIDTH 602 0
DWIDTH 10 0
BBX 7 18 3 -3
BITMAP
40
40
40
40
40
40
40
E0
FE
E0
E0
E0
E0
E0
E0
E0
E0
E0
ENDCHAR
STARTCHAR uni2520
ENCODING 9504
SWIDTH 602 0
DWIDTH 10 0
BBX 7 18 3 -3
BITMAP
E0
E0
E0
E0
E0
E0
E0
E0
FE
E0
E0
E0
E0
E0
E0
E0
E0
E0
ENDCHAR
STARTCHAR uni2521
ENCODING 9505
SWIDTH 602 0
DWIDTH 10 0
BBX 7 18 3 -3
BITMAP
E0
E0
E0
E0
E0
E0
E0
FE
FE
FE
40
40
40
40
40
40
40
40
ENDCHAR
STARTCHAR uni2522
ENCODING 9506
SWIDTH 602 0
DWIDTH 10 0
BBX 7 18 3 -3
BITMAP
40
40
40
40
40
40
40
FE
FE
FE
E0
E0
E0
E0
E0
E0
E0
E0
ENDCHAR
STARTCHAR uni2523
ENCODING 9507
SWIDTH 602 0
DWIDTH 10 0
BBX 7 18 3 -3
BITMAP
E0
E0
E0
E0
E0
E0
E0
FE
FE
FE
E0
E0
E0
E0
E0
E0
E0
E0
ENDCHAR
STARTCHAR SF090000
ENCODING 9508
SWIDTH 602 0
DWIDTH 10 0
BBX 5 18 0 -3
BITMAP
08
08
08
08
08
08
08
08
F8
08
08
08
08
08
08
08
08
08
ENDCHAR
STARTCHAR uni2525
ENCODING 9509
SWIDTH 602 0
DWIDTH 10 0
BBX 6 18 0 -3
BITMAP
08
08
08
08
08
08
08
FC
FC
FC
08
08
08
08
08
08
08
08
ENDCHAR
STARTCHAR uni2526
ENCODING 9510
SWIDTH 602 0
DWIDTH 10 0
BBX 6 18 0 -3
BITMAP
1C
1C
1C
1C
1C
1C
1C
1C
FC
1C
08
08
08
08
08
08
08
08
ENDCHAR
STARTCHAR uni2527
ENCODING 9511
SWIDTH 602 0
DWIDTH 10 0
BBX 6 18 0 -3
BITMAP
08
08
08
08
08
08
08
1C
FC
1C
1C
1C
1C
1C
1C
1C
1C
1C
ENDCHAR
STARTCHAR uni2528
ENCODING 9512
SWIDTH 602 0
DWIDTH 10 0
BBX 6 18 0 -3
BITMAP
1C
1C
1C
1C
1C
1C
1C
1C
FC
1C
1C
1C
1C
1C
1C
1C
1C
1C
ENDCHAR
STARTCHAR uni2529
ENCODING 9513
SWIDTH 602 0
DWIDTH 10 0
BBX 6 18 0 -3
BITMAP
1C
1C
1C
1C
1C
1C
1C
FC
FC
FC
08
08
08
08
08
08
08
08
ENDCHAR
STARTCHAR uni252A
ENCODING 9514
SWIDTH 602 0
DWIDTH 10 0
BBX 6 18 0 -3
BITMAP
08
08
08
08
08
08
08
FC
FC
FC
1C
1C
1C
1C
1C
1C
1C
1C
ENDCHAR
STARTCHAR uni252B
ENCODING 9515
SWIDTH 602 0
DWIDTH 10 0
BBX 6 18 0 -3
BITMAP
1C
1C
1C
1C
1C
1C
1C
FC
FC
FC
1C
1C
1C
1C
1C
1C
1C
1C
ENDCHAR
STARTCHAR SF060000
ENCODING 9516
SWIDTH 602 0
DWIDTH 10 0
BBX 10 10 0 -3
BITMAP
FFC0
0800
0800
0800
0800
0800
0800
0800
0800
0800
ENDCHAR
STARTCHAR uni252D
ENCODING 9517
SWIDTH 602 0
DWIDTH 10 0
BBX 10 11 0 -3
BITMAP
FC00
FFC0
FC00
0800
0800
0800
0800
0800
0800
0800
0800
ENDCHAR
STARTCHAR uni252E
ENCODING 9518
SWIDTH 602 0
DWIDTH 10 0
BBX 10 11 0 -3
BITMAP
1FC0
FFC0
1FC0
0800
0800
0800
0800
0800
0800
0800
0800
ENDCHAR
STARTCHAR uni252F
ENCODING 9519
SWIDTH 602 0
DWIDTH 10 0
BBX 10 11 0 -3
BITMAP
FFC0
FFC0
FFC0
0800
0800
0800
0800
0800
0800
0800
0800
ENDCHAR
STARTCHAR uni2530
ENCODING 9520
SWIDTH 602 0
DWIDTH 10 0
BBX 10 11 0 -3
BITMAP
1C00
FFC0
1C00
1C00
1C00
1C00
1C00
1C00
1C00
1C00
1C00
ENDCHAR
STARTCHAR uni2531
ENCODING 9521
SWIDTH 602 0
DWIDTH 10 0
BBX 10 11 0 -3
BITMAP
FC00
FFC0
FC00
1C00
1C00
1C00
1C00
1C00
1C00
1C00
1C00
ENDCHAR
STARTCHAR uni2532
ENCODING 9522
SWIDTH 602 0
DWIDTH 10 0
BBX 10 11 0 -3
BITMAP
1FC0
FFC0
1FC0
1C00
1C00
1C00
1C00
1C00
1C00
1C00
1C00
ENDCHAR
STARTCHAR uni2533
ENCODING 9523
SWIDTH 602 0
DWIDTH 10 0
BBX 10 11 0 -3
BITMAP
FFC0
FFC0
FFC0
1C00
1C00
1C00
1C00
1C00
1C00
1C00
1C00
ENDCHAR
STARTCHAR SF070000
ENCODING 9524
SWIDTH 602 0
DWIDTH 10 0
BBX 10 9 0 6
BITMAP
0800
0800
0800
0800
0800
0800
0800
0800
FFC0
ENDCHAR
STARTCHAR uni2535
ENCODING 9525
SWIDTH 602 0
DWIDTH 10 0
BBX 10 10 0 5
BITMAP
0800
0800
0800
0800
0800
0800
0800
FC00
FFC0
FC00
ENDCHAR
STARTCHAR uni2536
ENCODING 9526
SWIDTH 602 0
DWIDTH 10 0
BBX 10 10 0 5
BITMAP
0800
0800
0800
0800
0800
0800
0800
1FC0
FFC0
1FC0
ENDCHAR
STARTCHAR uni2537
ENCODING 9527
SWIDTH 602 0
DWIDTH 10 0
BBX 10 10 0 5
BITMAP
0800
0800
0800
0800
0800
0800
0800
FFC0
FFC0
FFC0
ENDCHAR
STARTCHAR uni2538
ENCODING 9528
SWIDTH 602 0
DWIDTH 10 0
BBX 10 10 0 5
BITMAP
1C00
1C00
1C00
1C00
1C00
1C00
1C00
1C00
FFC0
1C00
ENDCHAR
STARTCHAR uni2539
ENCODING 9529
SWIDTH 602 0
DWIDTH 10 0
BBX 10 10 0 5
BITMAP
1C00
1C00
1C00
1C00
1C00
1C00
1C00
FC00
FFC0
FC00
ENDCHAR
STARTCHAR uni253A
ENCODING 9530
SWIDTH 602 0
DWIDTH 10 0
BBX 10 10 0 5
BITMAP
1C00
1C00
1C00
1C00
1C00
1C00
1C00
1FC0
FFC0
1FC0
ENDCHAR
STARTCHAR uni253B
ENCODING 9531
SWIDTH 602 0
DWIDTH 10 0
BBX 10 10 0 5
BITMAP
1C00
1C00
1C00
1C00
1C00
1C00
1C00
FFC0
FFC0
FFC0
ENDCHAR
STARTCHAR SF050000
ENCODING 9532
SWIDTH 602 0
DWIDTH 10 0
BBX 10 18 0 -3
BITMAP
0800
0800
0800
0800
0800
0800
0800
0800
FFC0
0800
0800
0800
0800
0800
0800
0800
0800
0800
ENDCHAR
STARTCHAR uni253D
ENCODING 9533
SWIDTH 602 0
DWIDTH 10 0
BBX 10 18 0 -3
BITMAP
0800
0800
0800
0800
0800
0800
0800
FC00
FFC0
FC00
0800
0800
0800
0800
0800
0800
0800
0800
ENDCHAR
STARTCHAR uni253E
ENCODING 9534
SWIDTH 602 0
DWIDTH 10 0
BBX 10 18 0 -3
BITMAP
0800
0800
0800
0800
0800
0800
0800
1FC0
FFC0
1FC0
0800
0800
0800
0800
0800
0800
0800
0800
ENDCHAR
STARTCHAR uni253F
ENCODING 9535
SWIDTH 602 0
DWIDTH 10 0
BBX 10 18 0 -3
BITMAP
0800
0800
0800
0800
0800
0800
0800
FFC0
FFC0
FFC0
0800
0800
0800
0800
0800
0800
0800
0800
ENDCHAR
STARTCHAR uni2540
ENCODING 9536
SWIDTH 602 0
DWIDTH 10 0
BBX 10 18 0 -3
BITMAP
1C00
1C00
1C00
1C00
1C00
1C00
1C00
1C00
FFC0
1C00
0800
0800
0800
0800
0800
0800
0800
0800
ENDCHAR
STARTCHAR uni2541
ENCODING 9537
SWIDTH 602 0
DWIDTH 10 0
BBX 10 18 0 -3
BITMAP
0800
0800
0800
0800
0800
0800
0800
1C00
FFC0
1C00
1C00
1C00
1C00
1C00
1C00
1C00
1C00
1C00
ENDCHAR
STARTCHAR uni2542
ENCODING 9538
SWIDTH 602 0
DWIDTH 10 0
BBX 10 18 0 -3
BITMAP
1C00
1C00
1C00
1C00
1C00
1C00
1C00
1C00
FFC0
1C00
1C00
1C00
1C00
1C00
1C00
1C00
1C00
1C00
ENDCHAR
STARTCHAR uni2543
ENCODING 9539
SWIDTH 602 0
DWIDTH 10 0
BBX 10 18 0 -3
BITMAP
1C00
1C00
1C00
1C00
1C00
1C00
1C00
FC00
FFC0
FC00
0800
0800
0800
0800
0800
0800
0800
0800
ENDCHAR
STARTCHAR uni2544
ENCODING 9540
SWIDTH 602 0
DWIDTH 10 0
BBX 10 18 0 -3
BITMAP
1C00
1C00
1C00
1C00
1C00
1C00
1C00
1FC0
FFC0
1FC0
0800
0800
0800
0800
0800
0800
0800
0800
ENDCHAR
STARTCHAR uni2545
ENCODING 9541
SWIDTH 602 0
DWIDTH 10 0
BBX 10 18 0 -3
BITMAP
0800
0800
0800
0800
0800
0800
0800
FC00
FFC0
FC00
1C00
1C00
1C00
1C00
1C00
1C00
1C00
1C00
ENDCHAR
STARTCHAR uni2546
ENCODING 9542
SWIDTH 602 0
DWIDTH 10 0
BBX 10 18 0 -3
BITMAP
0800
0800
0800
0800
0800
0800
0800
1FC0
FFC0
1FC0
1C00
1C00
1C00
1C00
1C00
1C00
1C00
1C00
ENDCHAR
STARTCHAR uni2547
ENCODING 9543
SWIDTH 602 0
DWIDTH 10 0
BBX 10 18 0 -3
BITMAP
1C00
1C00
1C00
1C00
1C00
1C00
1C00
FFC0
FFC0
FFC0
0800
0800
0800
0800
0800
0800
0800
0800
ENDCHAR
STARTCHAR uni2548
ENCODING 9544
SWIDTH 602 0
DWIDTH 10 0
BBX 10 18 0 -3
BITMAP
0800
0800
0800
0800
0800
0800
0800
FFC0
FFC0
FFC0
1C00
1C00
1C00
1C00
1C00
1C00
1C00
1C00
ENDCHAR
STARTCHAR uni2549
ENCODING 9545
SWIDTH 602 0
DWIDTH 10 0
BBX 10 18 0 -3
BITMAP
1C00
1C00
1C00
1C00
1C00
1C00
1C00
FC00
FFC0
FC00
1C00
1C00
1C00
1C00
1C00
1C00
1C00
1C00
ENDCHAR
STARTCHAR uni254A
ENCODING 9546
SWIDTH 602 0
DWIDTH 10 0
BBX 10 18 0 -3
BITMAP
1C00
1C00
1C00
1C00
1C00
1C00
1C00
1FC0
FFC0
1FC0
1C00
1C00
1C00
1C00
1C00
1C00
1C00
1C00
ENDCHAR
STARTCHAR uni254B
ENCODING 9547
SWIDTH 602 0
DWIDTH 10 0
BBX 10 18 0 -3
BITMAP
1C00
1C00
1C00
1C00
1C00
1C00
1C00
FFC0
FFC0
FFC0
1C00
1C00
1C00
1C00
1C00
1C00
1C00
1C00
ENDCHAR
STARTCHAR uni254C
ENCODING 9548
SWIDTH 602 0
DWIDTH 10 0
BBX 10 18 0 -3
BITMAP
0000
0000
0000
0000
0000
0000
0000
0000
F7C0
0000
0000
0000
0000
0000
0000
0000
0000
0000
ENDCHAR
STARTCHAR uni254D
ENCODING 9549
SWIDTH 602 0
DWIDTH 10 0
BBX 10 18 0 -3
BITMAP
0000
0000
0000
0000
0000
0000
0000
F7C0
F7C0
F7C0
0000
0000
0000
0000
0000
0000
0000
0000
ENDCHAR
STARTCHAR uni254E
ENCODING 9550
SWIDTH 602 0
DWIDTH 10 0
BBX 10 18 0 -3
BITMAP
0800
0800
0800
0800
0800
0800
0800
0800
0000
0800
0800
0800
0800
0800
0800
0800
0800
0800
ENDCHAR
STARTCHAR uni254F
ENCODING 9551
SWIDTH 602 0
DWIDTH 10 0
BBX 10 18 0 -3
BITMAP
1C00
1C00
1C00
1C00
1C00
1C00
1C00
1C00
0000
1C00
1C00
1C00
1C00
1C00
1C00
1C00
1C00
1C00
ENDCHAR
STARTCHAR SF430000
ENCODING 9552
SWIDTH 602 0
DWIDTH 10 0
BBX 10 3 0 5
BITMAP
FFC0
0000
FFC0
ENDCHAR
STARTCHAR SF240000
ENCODING 9553
SWIDTH 602 0
DWIDTH 10 0
BBX 3 18 3 -3
BITMAP
A0
A0
A0
A0
A0
A0
A0
A0
A0
A0
A0
A0
A0
A0
A0
A0
A0
A0
ENDCHAR
STARTCHAR SF390000
ENCODING 9556
SWIDTH 602 0
DWIDTH 10 0
BBX 7 11 3 -3
BITMAP
FE
80
BE
A0
A0
A0
A0
A0
A0
A0
A0
ENDCHAR
STARTCHAR SF250000
ENCODING 9559
SWIDTH 602 0
DWIDTH 10 0
BBX 6 11 0 -3
BITMAP
FC
04
F4
14
14
14
14
14
14
14
14
ENDCHAR
STARTCHAR SF380000
ENCODING 9562
SWIDTH 602 0
DWIDTH 10 0
BBX 7 10 3 5
BITMAP
A0
A0
A0
A0
A0
A0
A0
BE
80
FE
ENDCHAR
STARTCHAR SF260000
ENCODING 9565
SWIDTH 602 0
DWIDTH 10 0
BBX 6 10 0 5
BITMAP
14
14
14
14
14
14
14
F4
04
FC
ENDCHAR
STARTCHAR SF420000
ENCODING 9568
SWIDTH 602 0
DWIDTH 10 0
BBX 7 18 3 -3
BITMAP
A0
A0
A0
A0
A0
A0
A0
BE
80
BE
A0
A0
A0
A0
A0
A0
A0
A0
ENDCHAR
STARTCHAR SF230000
ENCODING 9571
SWIDTH 602 0
DWIDTH 10 0
BBX 6 18 0 -3
BITMAP
14
14
14
14
14
14
14
F4
04
F4
14
14
14
14
14
14
14
14
ENDCHAR
STARTCHAR SF410000
ENCODING 9574
SWIDTH 602 0
DWIDTH 10 0
BBX 10 11 0 -3
BITMAP
FFC0
0000
F7C0
1400
1400
1400
1400
1400
1400
1400
1400
ENDCHAR
STARTCHAR SF400000
ENCODING 9577
SWIDTH 602 0
DWIDTH 10 0
BBX 10 10 0 5
BITMAP
1400
1400
1400
1400
1400
1400
1400
F7C0
0000
FFC0
ENDCHAR
STARTCHAR SF540000
ENCODING 9578
SWIDTH 602 0
DWIDTH 10 0
BBX 10 18 0 -3
BITMAP
0800
0800
0800
0800
0800
0800
0800
FFC0
0800
FFC0
0800
0800
0800
0800
0800
0800
0800
0800
ENDCHAR
STARTCHAR SF530000
ENCODING 9579
SWIDTH 602 0
DWIDTH 10 0
BBX 10 18 0 -3
BITMAP
1400
1400
1400
1400
1400
1400
1400
1400
FFC0
1400
1400
1400
1400
1400
1400
1400
1400
1400
ENDCHAR
STARTCHAR SF440000
ENCODING 9580
SWIDTH 602 0
DWIDTH 10 0
BBX 10 18 0 -3
BITMAP
1400
1400
1400
1400
1400
1400
1400
F7C0
0000
F7C0
1400
1400
1400
1400
1400
1400
1400
1400
ENDCHAR
STARTCHAR uni2574
ENCODING 9588
SWIDTH 602 0
DWIDTH 10 0
BBX 5 1 0 6
BITMAP
F8
ENDCHAR
STARTCHAR uni2575
ENCODING 9589
SWIDTH 602 0
DWIDTH 10 0
BBX 1 9 4 6
BITMAP
80
80
80
80
80
80
80
80
80
ENDCHAR
STARTCHAR uni2576
ENCODING 9590
SWIDTH 602 0
DWIDTH 10 0
BBX 6 1 4 6
BITMAP
FC
ENDCHAR
STARTCHAR uni2577
ENCODING 9591
SWIDTH 602 0
DWIDTH 10 0
BBX 1 10 4 -3
BITMAP
80
80
80
80
80
80
80
80
80
80
ENDCHAR
STARTCHAR uni2578
ENCODING 9592
SWIDTH 602 0
DWIDTH 10 0
BBX 6 3 0 5
BITMAP
FC
FC
FC
ENDCHAR
STARTCHAR uni2579
ENCODING 9593
SWIDTH 602 0
DWIDTH 10 0
BBX 3 10 3 5
BITMAP
E0
E0
E0
E0
E0
E0
E0
E0
E0
E0
ENDCHAR
STARTCHAR uni257A
ENCODING 9594
SWIDTH 602 0
DWIDTH 10 0
BBX 7 3 3 5
BITMAP
FE
FE
FE
ENDCHAR
STARTCHAR uni257B
ENCODING 9595
SWIDTH 602 0
DWIDTH 10 0
BBX 3 11 3 -3
BITMAP
E0
E0
E0
E0
E0
E0
E0
E0
E0
E0
E0
ENDCHAR
STARTCHAR uni257C
ENCODING 9596
SWIDTH 602 0
DWIDTH 10 0
BBX 10 3 0 5
BITMAP
1FC0
FFC0
1FC0
ENDCHAR
STARTCHAR uni257D
ENCODING 9597
SWIDTH 602 0
DWIDTH 10 0
BBX 3 18 3 -3
BITMAP
40
40
40
40
40
40
40
E0
E0
E0
E0
E0
E0
E0
E0
E0
E0
E0
ENDCHAR
STARTCHAR uni257E
ENCODING 9598
SWIDTH 602 0
DWIDTH 10 0
BBX 10 3 0 5
BITMAP
FC00
FFC0
FC00
ENDCHAR
STARTCHAR uni257F
ENCODING 9599
SWIDTH 602 0
DWIDTH 10 0
BBX 3 18 3 -3
BITMAP
E0
E0
E0
E0
E0
E0
E0
E0
E0
E0
40
40
40
40
40
40
40
40
ENDCHAR
STARTCHAR upblock
ENCODING 9600
SWIDTH 602 0
DWIDTH 10 0
BBX 10 19 0 -3
BITMAP
FFC0
FFC0
FFC0
FFC0
FFC0
FFC0
FFC0
FFC0
FFC0
0000
0000
0000
0000
0000
0000
0000
0000
0000
0000
ENDCHAR
STARTCHAR uni2581
ENCODING 9601
SWIDTH 602 0
DWIDTH 10 0
BBX 10 2 0 -3
BITMAP
FFC0
FFC0
ENDCHAR
STARTCHAR uni2582
ENCODING 9602
SWIDTH 602 0
DWIDTH 10 0
BBX 10 5 0 -3
BITMAP
FFC0
FFC0
FFC0
FFC0
FFC0
ENDCHAR
STARTCHAR uni2583
ENCODING 9603
SWIDTH 602 0
DWIDTH 10 0
BBX 10 7 0 -3
BITMAP
FFC0
FFC0
FFC0
FFC0
FFC0
FFC0
FFC0
ENDCHAR
STARTCHAR dnblock
ENCODING 9604
SWIDTH 602 0
DWIDTH 10 0
BBX 10 10 0 -3
BITMAP
FFC0
FFC0
FFC0
FFC0
FFC0
FFC0
FFC0
FFC0
FFC0
FFC0
ENDCHAR
STARTCHAR uni2585
ENCODING 9605
SWIDTH 602 0
DWIDTH 10 0
BBX 10 12 0 -3
BITMAP
FFC0
FFC0
FFC0
FFC0
FFC0
FFC0
FFC0
FFC0
FFC0
FFC0
FFC0
FFC0
ENDCHAR
STARTCHAR uni2586
ENCODING 9606
SWIDTH 602 0
DWIDTH 10 0
BBX 10 14 0 -3
BITMAP
FFC0
FFC0
FFC0
FFC0
FFC0
FFC0
FFC0
FFC0
FFC0
FFC0
FFC0
FFC0
FFC0
FFC0
ENDCHAR
STARTCHAR uni2587
ENCODING 9607
SWIDTH 602 0
DWIDTH 10 0
BBX 10 17 0 -3
BITMAP
FFC0
FFC0
FFC0
FFC0
FFC0
FFC0
FFC0
FFC0
FFC0
FFC0
FFC0
FFC0
FFC0
FFC0
FFC0
FFC0
FFC0
ENDCHAR
STARTCHAR block
ENCODING 9608
SWIDTH 602 0
DWIDTH 10 0
BBX 10 19 0 -3
BITMAP
FFC0
FFC0
FFC0
FFC0
FFC0
FFC0
FFC0
FFC0
FFC0
FFC0
FFC0
FFC0
FFC0
FFC0
FFC0
FFC0
FFC0
FFC0
FFC0
ENDCHAR
STARTCHAR uni2589
ENCODING 9609
SWIDTH 602 0
DWIDTH 10 0
BBX 9 19 0 -3
BITMAP
FF80
FF80
FF80
FF80
FF80
FF80
FF80
FF80
FF80
FF80
FF80
FF80
FF80
FF80
FF80
FF80
FF80
FF80
FF80
ENDCHAR
STARTCHAR uni258A
ENCODING 9610
SWIDTH 602 0
DWIDTH 10 0
BBX 8 19 0 -3
BITMAP
FF
FF
FF
FF
FF
FF
FF
FF
FF
FF
FF
FF
FF
FF
FF
FF
FF
FF
FF
ENDCHAR
STARTCHAR uni258B
ENCODING 9611
SWIDTH 602 0
DWIDTH 10 0
BBX 6 19 0 -3
BITMAP
FC
FC
FC
FC
FC
FC
FC
FC
FC
FC
FC
FC
FC
FC
FC
FC
FC
FC
FC
ENDCHAR
STARTCHAR lfblock
ENCODING 9612
SWIDTH 602 0
DWIDTH 10 0
BBX 5 19 0 -3
BITMAP
F8
F8
F8
F8
F8
F8
F8
F8
F8
F8
F8
F8
F8
F8
F8
F8
F8
F8
F8
ENDCHAR
STARTCHAR uni258D
ENCODING 9613
SWIDTH 602 0
DWIDTH 10 0
BBX 4 19 0 -3
BITMAP
F0
F0
F0
F0
F0
F0
F0
F0
F0
F0
F0
F0
F0
F0
F0
F0
F0
F0
F0
ENDCHAR
STARTCHAR uni258E
ENCODING 9614
SWIDTH 602 0
DWIDTH 10 0
BBX 3 19 0 -3
BITMAP
E0
E0
E0
E0
E0
E0
E0
E0
E0
E0
E0
E0
E0
E0
E0
E0
E0
E0
E0
ENDCHAR
STARTCHAR uni258F
ENCODING 9615
SWIDTH 602 0
DWIDTH 10 0
BBX 1 19 0 -3
BITMAP
80
80
80
80
80
80
80
80
80
80
80
80
80
80
80
80
80
80
80
ENDCHAR
STARTCHAR rtblock
ENCODING 9616
SWIDTH 602 0
DWIDTH 10 0
BBX 10 19 0 -3
BITMAP
07C0
07C0
07C0
07C0
07C0
07C0
07C0
07C0
07C0
07C0
07C0
07C0
07C0
07C0
07C0
07C0
07C0
07C0
07C0
ENDCHAR
STARTCHAR ltshade
ENCODING 9617
SWIDTH 602 0
DWIDTH 10 0
BBX 10 19 0 -3
BITMAP
0000
5540
0000
AA80
0000
5540
0000
AA80
0000
5540
0000
AA80
0000
5540
0000
AA80
0000
5540
0000
ENDCHAR
STARTCHAR shade
ENCODING 9618
SWIDTH 602 0
DWIDTH 10 0
BBX 10 19 0 -3
BITMAP
5540
AA80
5540
AA80
5540
AA80
5540
AA80
5540
AA80
5540
AA80
5540
AA80
5540
AA80
5540
AA80
5540
ENDCHAR
STARTCHAR dkshade
ENCODING 9619
SWIDTH 602 0
DWIDTH 10 0
BBX 10 19 0 -3
BITMAP
FFC0
AA80
FFC0
5540
FFC0
AA80
FFC0
5540
FFC0
AA80
FFC0
5540
FFC0
AA80
FFC0
5540
FFC0
AA80
FFC0
ENDCHAR
STARTCHAR uni2594
ENCODING 9620
SWIDTH 602 0
DWIDTH 10 0
BBX 10 19 0 -3
BITMAP
FFC0
FFC0
0000
0000
0000
0000
0000
0000
0000
0000
0000
0000
0000
0000
0000
0000
0000
0000
0000
ENDCHAR
STARTCHAR uni2595
ENCODING 9621
SWIDTH 602 0
DWIDTH 10 0
BBX 10 19 0 -3
BITMAP
00C0
00C0
00C0
00C0
00C0
00C0
00C0
00C0
00C0
00C0
00C0
00C0
00C0
00C0
00C0
00C0
00C0
00C0
00C0
ENDCHAR
STARTCHAR fi
ENCODING -1
SWIDTH 602 0
DWIDTH 10 0
BBX 8 13 1 0
BITMAP
3C
7D
40
40
FF
41
41
41
41
41
41
41
41
ENDCHAR
STARTCHAR fl
ENCODING -1
SWIDTH 602 0
DWIDTH 10 0
BBX 8 13 1 0
BITMAP
3F
41
41
41
FD
41
41
41
41
41
41
41
41
ENDCHAR
ENDFONT
